<svg width="1088" height="574" viewBox="0 0 1088 574" fill="none" xmlns="http://www.w3.org/2000/svg">
<g clip-path="url(#clip0_2395_4554)" filter="url(#filter0_d_2395_4554)">
<rect width="1080" height="566" transform="translate(4)" fill="black" fill-opacity="0.2"/>
<rect width="1080" height="566" transform="translate(4)" fill="url(#paint0_linear_2395_4554)"/>
<rect width="1080" height="566" transform="translate(4)" fill="url(#paint1_radial_2395_4554)" fill-opacity="0.2"/>
<rect width="1080" height="566" transform="translate(4)" fill="url(#paint2_radial_2395_4554)" fill-opacity="0.2"/>
<rect width="1080" height="566" transform="translate(4)" fill="url(#paint3_radial_2395_4554)" fill-opacity="0.2"/>
<rect width="1080" height="566" transform="translate(4)" fill="url(#paint4_linear_2395_4554)" fill-opacity="0.2"/>
<g clip-path="url(#clip1_2395_4554)">
<path fill-rule="evenodd" clip-rule="evenodd" d="M50.1547 54.3532C54.681 54.3532 58.3502 50.684 58.3502 46.1578C58.3502 44.4327 57.8172 42.8322 56.907 41.5119L62.2332 36.1855C62.6826 35.7362 62.4265 34.9607 61.8018 34.844C61.1298 34.7185 60.4606 34.5734 59.7954 34.4088C58.4507 34.076 57.1216 33.6633 55.816 33.1706L55.6934 33.1242C55.4573 33.034 55.2219 32.9413 54.9872 32.8459C53.4796 32.2985 51.8525 32 50.1557 32C46.2501 32 42.7139 33.5817 40.1527 36.1396C37.5871 38.7018 36 42.2434 36 46.1558C36 47.6857 36.2427 49.1589 36.6917 50.539C36.934 51.2837 37.8075 51.5652 38.4858 51.1736C39.0596 50.8422 39.2904 50.1384 39.099 49.5041C37.9092 45.5613 38.8722 41.1078 41.9882 37.9918C46.141 33.839 52.6697 33.5103 57.1986 37.0055L54.7994 39.4047C53.4793 38.495 51.8792 37.9623 50.1547 37.9623C45.6285 37.9623 41.9593 41.6315 41.9593 46.1578C41.9593 47.8822 42.4919 49.4823 43.4017 50.8026L38.0764 56.1278C37.627 56.5772 37.8831 57.3527 38.5078 57.4693C39.1799 57.5949 39.849 57.7399 40.5142 57.9045C41.859 58.2373 43.188 58.6501 44.4937 59.1428L44.6162 59.1892C44.8524 59.2794 45.0878 59.3721 45.3224 59.4674C46.8301 60.0148 48.4571 60.3133 50.1539 60.3133C54.0333 60.3133 57.5483 58.7528 60.1051 56.2253L60.1654 56.1654C62.7259 53.6038 64.3097 50.0656 64.3097 46.1576C64.3097 44.6284 64.0672 43.1558 63.6186 41.7763C63.3762 41.0308 62.5019 40.7491 61.8229 41.141C61.2485 41.4726 61.0176 42.1771 61.2091 42.812C62.3985 46.7546 61.4353 51.2077 58.3196 54.3233C54.1669 58.4762 47.6381 58.8048 43.1092 55.3096L45.5088 52.91C46.8292 53.8203 48.4297 54.3532 50.1547 54.3532ZM55.5955 46.1574C55.5955 49.2435 53.0938 51.7452 50.0077 51.7452C49.0443 51.7452 48.1379 51.5014 47.3467 51.0721L54.9224 43.4964C55.3517 44.2875 55.5955 45.1941 55.5955 46.1574ZM44.4199 46.1574C44.4199 43.0714 46.9216 40.5696 50.0077 40.5696C51.0478 40.5696 52.0215 40.8538 52.8555 41.3488L45.199 49.0052C44.7041 48.1712 44.4199 47.1975 44.4199 46.1574Z" fill="white"/>
<path d="M109.972 53.4709H108.234V39.7566H109.972V44.7669L109.734 46.248H110.1C110.502 44.7669 111.508 44.0537 113.354 44.0537C115.713 44.0537 116.792 45.2606 116.792 47.7109V53.4709H114.872L115.238 48.0766C115.348 46.2663 114.488 45.5897 112.842 45.5897C110.904 45.5897 109.972 46.76 109.972 48.68V53.4709Z" fill="white"/>
<path d="M74.8545 42.1703V40.6709H84.1071V44.4561L74.7997 51.5875V51.9532H84.4362V53.4709H74.5254V49.6675L83.8328 42.5361V42.1703H74.8545Z" fill="white"/>
<path fill-rule="evenodd" clip-rule="evenodd" d="M92.9485 49.7408H94.6674C94.3931 52.246 92.9668 53.7454 90.3154 53.7454C87.2617 53.7454 85.5977 51.8802 85.5977 48.8997C85.5977 45.9191 87.2068 44.054 90.1325 44.054C92.8754 44.054 94.2651 45.6997 94.2651 48.6071H87.3165C87.3165 50.7648 87.8651 52.2825 90.3154 52.2825C92.0525 52.2825 92.7839 51.4048 92.9485 49.7408ZM87.4811 47.4185H92.4731C92.4548 46.2848 91.7051 45.4985 90.1691 45.4985C88.6331 45.4985 87.7919 46.1385 87.4811 47.4185Z" fill="white"/>
<path fill-rule="evenodd" clip-rule="evenodd" d="M96.4297 57.6768H98.1668V53.0322L97.984 51.3682H98.3497C98.8068 52.8494 99.8308 53.7454 101.824 53.7454C104.622 53.7454 106.158 51.8802 106.158 48.8997C106.158 45.9191 104.622 44.054 101.824 44.054C99.904 44.054 98.8068 44.95 98.3497 46.4311H97.984L98.1668 44.3282H96.4297V57.6768ZM101.477 52.246C99.4468 52.246 98.2583 50.8745 98.2583 48.8814C98.2583 46.8882 99.2823 45.5168 101.477 45.5168C103.433 45.5168 104.421 46.7237 104.421 48.8814C104.421 51.0391 103.433 52.246 101.477 52.246Z" fill="white"/>
<path d="M119.77 44.3281H118.033L120.703 53.471H122.605L122.001 55.3727C121.873 55.8664 121.818 55.903 121.306 55.8847L118.216 55.8481V57.5853L120.941 57.3476C122.696 57.2013 123.519 56.1041 123.958 54.5316L126.975 44.3281H125.238L122.678 53.1967H122.312L119.77 44.3281Z" fill="white"/>
<path d="M130.292 53.471H128.555V44.3281H130.292L130.109 46.2481H130.475C130.859 44.767 131.682 44.3281 133.254 44.3281H134.882V46.0287L132.888 45.8458C131.17 45.6996 130.292 46.7418 130.292 48.6801V53.471Z" fill="white"/>
<path d="M147.468 52.2459C144.725 52.2459 143.354 50.5453 143.354 47.071C143.354 43.5967 144.652 41.8962 147.194 41.8962C149.388 41.8962 150.595 43.0116 150.851 45.5899H152.643C152.35 42.0425 150.504 40.3967 147.212 40.3967C143.5 40.3967 141.58 42.6276 141.58 47.071C141.58 51.5145 143.573 53.7453 147.486 53.7453C150.942 53.7453 152.899 52.0996 153.192 48.5339H151.4C151.144 51.1305 149.827 52.2459 147.468 52.2459Z" fill="white"/>
<path d="M154.369 39.7566H155.96C157.587 39.7566 158.373 40.5429 158.373 42.1703V51.9897H161.244V53.4709H153.82V51.9897H156.709V41.6217C156.709 41.1097 156.655 40.9817 156.161 41.0732L154.369 41.4023V39.7566Z" fill="white"/>
<path fill-rule="evenodd" clip-rule="evenodd" d="M166.905 44.054C163.979 44.054 162.15 45.9191 162.15 48.8997C162.15 51.8802 163.979 53.7454 166.905 53.7454C169.849 53.7454 171.677 51.8802 171.677 48.8997C171.677 45.9191 169.849 44.054 166.905 44.054ZM166.905 52.2825C164.912 52.2825 163.869 51.0757 163.869 48.8997C163.869 46.7237 164.912 45.5168 166.905 45.5168C168.916 45.5168 169.958 46.7237 169.958 48.8997C169.958 51.0757 168.916 52.2825 166.905 52.2825Z" fill="white"/>
<path d="M173.443 44.3281H175.363L174.998 49.7224C174.888 51.4961 175.747 52.191 177.393 52.191C179.295 52.191 180.246 51.0207 180.264 49.2104V44.3281H182.001V51.4596C182.001 51.9716 182.056 52.0996 182.55 52.0081L183.592 51.8253V53.471H182.641C181.343 53.471 180.483 52.6664 180.483 51.4961L180.118 51.5144C179.715 52.9956 178.582 53.7453 176.881 53.7453C174.522 53.7453 173.443 52.5384 173.443 50.0881V44.3281Z" fill="white"/>
<path fill-rule="evenodd" clip-rule="evenodd" d="M194.236 39.7566H192.499V44.7669L192.682 46.4309H192.316C191.877 44.9497 190.853 44.0537 188.842 44.0537C186.062 44.0537 184.508 45.9189 184.508 48.8995C184.508 51.88 186.062 53.7452 188.842 53.7452C190.762 53.7452 191.877 52.8492 192.316 51.368H192.682C192.682 52.5749 193.614 53.4709 194.876 53.4709H195.827V51.8252L194.784 52.008C194.272 52.0995 194.236 51.9715 194.236 51.4595V39.7566ZM189.207 45.5532C191.219 45.5532 192.407 46.9246 192.407 48.8995C192.407 50.8743 191.402 52.2275 189.207 52.2275C187.232 52.2275 186.245 51.0389 186.245 48.8995C186.245 46.76 187.232 45.5532 189.207 45.5532Z" fill="white"/>
</g>
<g clip-path="url(#clip2_2395_4554)">
<path d="M342.785 362.749C342.785 362.749 365.283 362.749 398.292 362.749C403.565 362.749 408.602 362.749 413.44 362.749C454.752 362.749 493.531 342.856 517.629 309.301L525.782 297.95C549.88 264.396 588.663 244.502 629.973 244.502H829.826" stroke="url(#paint5_linear_2395_4554)"/>
<g style="mix-blend-mode:multiply">
<path d="M342.785 362.749C342.785 362.749 365.283 362.749 398.292 362.749C403.565 362.749 408.602 362.749 413.44 362.749C454.752 362.749 493.531 342.856 517.629 309.301L525.782 297.95C549.88 264.396 588.663 244.502 629.973 244.502H829.826" stroke="#9667ED"/>
</g>
<path d="M-144.254 480.996C-144.254 480.996 -121.756 480.996 -88.7473 480.996C-83.474 480.996 -78.4373 480.996 -73.5989 480.996C-32.2867 480.996 6.49218 461.102 30.5897 427.548L38.7431 416.197C62.8406 382.643 101.623 362.749 142.934 362.749H342.787" stroke="url(#paint6_linear_2395_4554)"/>
<g style="mix-blend-mode:multiply">
<path d="M-144.254 480.996C-144.254 480.996 -121.756 480.996 -88.7473 480.996C-83.474 480.996 -78.4373 480.996 -73.5989 480.996C-32.2867 480.996 6.49218 461.102 30.5897 427.548L38.7431 416.197C62.8406 382.643 101.623 362.749 142.934 362.749H342.787" stroke="#9667ED"/>
</g>
<path d="M891.959 244.502C891.959 244.502 914.457 244.502 947.466 244.502C952.739 244.502 957.776 244.502 962.614 244.502C1003.93 244.502 1042.71 224.608 1066.8 191.055L1074.96 179.702C1099.05 146.149 1137.84 126.255 1179.15 126.255H1379" stroke="url(#paint7_linear_2395_4554)"/>
<g style="mix-blend-mode:multiply">
<path d="M891.959 244.502C891.959 244.502 914.457 244.502 947.466 244.502C952.739 244.502 957.776 244.502 962.614 244.502C1003.93 244.502 1042.71 224.608 1066.8 191.055L1074.96 179.702C1099.05 146.149 1137.84 126.255 1179.15 126.255H1379" stroke="#9667ED"/>
</g>
<path d="M190.461 203.416H330.761C336.85 203.416 341.784 208.351 341.784 214.439V270.556C341.784 276.645 336.85 281.579 330.761 281.579H190.461C184.372 281.579 179.438 276.645 179.438 270.556V214.439C179.438 208.351 184.372 203.416 190.461 203.416Z" fill="#242424"/>
<path d="M190.461 203.416H330.761C336.85 203.416 341.784 208.351 341.784 214.439V270.556C341.784 276.645 336.85 281.579 330.761 281.579H190.461C184.372 281.579 179.438 276.645 179.438 270.556V214.439C179.438 208.351 184.372 203.416 190.461 203.416Z" stroke="#343434"/>
<path d="M201.039 254.523V231.202H209.581C211.237 231.202 212.606 231.475 213.692 232.022C214.778 232.561 215.59 233.293 216.129 234.219C216.668 235.138 216.937 236.175 216.937 237.327C216.937 238.299 216.759 239.119 216.402 239.788C216.045 240.448 215.568 240.979 214.967 241.382C214.376 241.776 213.722 242.065 213.009 242.247V242.476C213.782 242.514 214.538 242.764 215.275 243.227C216.019 243.682 216.634 244.332 217.119 245.173C217.606 246.017 217.849 247.041 217.849 248.248C217.849 249.44 217.568 250.511 217.005 251.461C216.452 252.401 215.594 253.148 214.432 253.703C213.271 254.25 211.786 254.523 209.98 254.523H201.039ZM204.559 251.505H209.637C211.323 251.505 212.53 251.178 213.259 250.527C213.989 249.873 214.352 249.058 214.352 248.077C214.352 247.342 214.167 246.667 213.794 246.051C213.421 245.436 212.89 244.947 212.201 244.582C211.517 244.217 210.704 244.035 209.764 244.035H204.559V251.505ZM204.559 241.291H209.273C210.062 241.291 210.772 241.139 211.403 240.834C212.041 240.532 212.546 240.107 212.918 239.56C213.297 239.007 213.488 238.353 213.488 237.602C213.488 236.638 213.149 235.828 212.473 235.177C211.798 234.523 210.762 234.197 209.365 234.197H204.559V241.291ZM232.829 247.27V237.032H236.246V254.523H232.897V251.495H232.715C232.314 252.429 231.668 253.206 230.779 253.827C229.899 254.443 228.802 254.751 227.488 254.751C226.365 254.751 225.371 254.505 224.505 254.01C223.647 253.509 222.972 252.769 222.477 251.789C221.992 250.811 221.749 249.601 221.749 248.158V237.032H225.155V247.747C225.155 248.939 225.483 249.887 226.145 250.595C226.806 251.3 227.664 251.653 228.718 251.653C229.356 251.653 229.991 251.495 230.62 251.176C231.258 250.855 231.785 250.374 232.204 249.729C232.629 249.084 232.837 248.264 232.829 247.27ZM240.82 254.523V237.032H244.225V254.523H240.82ZM242.54 234.333C241.948 234.333 241.439 234.136 241.014 233.742C240.598 233.339 240.389 232.86 240.389 232.307C240.389 231.743 240.598 231.266 241.014 230.872C241.439 230.469 241.948 230.268 242.54 230.268C243.133 230.268 243.638 230.469 244.055 230.872C244.48 231.266 244.692 231.743 244.692 232.307C244.692 232.86 244.48 233.339 244.055 233.742C243.638 234.136 243.133 234.333 242.54 234.333ZM252.212 231.202V254.523H248.807V231.202H252.212ZM263.34 254.864C261.929 254.864 260.668 254.505 259.56 253.783C258.46 253.054 257.594 252.018 256.963 250.675C256.341 249.322 256.029 247.703 256.029 245.811C256.029 243.921 256.345 242.303 256.975 240.961C257.612 239.616 258.486 238.588 259.594 237.874C260.703 237.161 261.959 236.804 263.364 236.804C264.449 236.804 265.322 236.986 265.982 237.351C266.651 237.708 267.166 238.125 267.531 238.604C267.904 239.081 268.193 239.504 268.397 239.868H268.601V231.202H272.007V254.523H268.682V251.801H268.397C268.193 252.174 267.896 252.599 267.509 253.076C267.128 253.555 266.605 253.972 265.938 254.329C265.268 254.685 264.404 254.864 263.34 254.864ZM264.092 251.962C265.072 251.962 265.9 251.703 266.575 251.186C267.259 250.663 267.774 249.937 268.124 249.011C268.481 248.086 268.66 247.007 268.66 245.777C268.66 244.562 268.485 243.5 268.134 242.588C267.786 241.678 267.273 240.969 266.597 240.46C265.922 239.951 265.086 239.696 264.092 239.696C263.068 239.696 262.214 239.963 261.53 240.494C260.847 241.025 260.33 241.75 259.981 242.668C259.64 243.588 259.468 244.624 259.468 245.777C259.468 246.947 259.644 247.997 259.993 248.931C260.342 249.865 260.859 250.605 261.54 251.152C262.232 251.691 263.082 251.962 264.092 251.962ZM276.867 254.523V237.032H280.272V254.523H276.867ZM278.587 234.333C277.993 234.333 277.486 234.136 277.059 233.742C276.643 233.339 276.434 232.86 276.434 232.307C276.434 231.743 276.643 231.266 277.059 230.872C277.486 230.469 277.993 230.268 278.587 230.268C279.178 230.268 279.683 230.469 280.1 230.872C280.527 231.266 280.739 231.743 280.739 232.307C280.739 232.86 280.527 233.339 280.1 233.742C279.683 234.136 279.178 234.333 278.587 234.333ZM288.257 244.137V254.523H284.852V237.032H288.121V239.878H288.338C288.74 238.952 289.37 238.209 290.228 237.648C291.093 237.085 292.182 236.804 293.497 236.804C294.687 236.804 295.731 237.054 296.627 237.556C297.523 238.049 298.219 238.786 298.712 239.764C299.205 240.744 299.451 241.955 299.451 243.398V254.523H296.046V243.807C296.046 242.54 295.717 241.55 295.056 240.834C294.397 240.115 293.489 239.754 292.334 239.754C291.544 239.754 290.843 239.924 290.228 240.265C289.62 240.608 289.137 241.109 288.781 241.768C288.432 242.422 288.257 243.211 288.257 244.137ZM311.353 261.447C309.964 261.447 308.767 261.265 307.765 260.9C306.771 260.536 305.957 260.052 305.328 259.453C304.699 258.854 304.228 258.197 303.917 257.483L306.843 256.277C307.048 256.611 307.32 256.964 307.663 257.335C308.012 257.716 308.483 258.038 309.074 258.303C309.675 258.569 310.445 258.702 311.387 258.702C312.678 258.702 313.744 258.387 314.586 257.758C315.429 257.134 315.85 256.14 315.85 254.773V251.334H315.634C315.429 251.707 315.133 252.12 314.746 252.575C314.367 253.032 313.842 253.427 313.175 253.759C312.507 254.094 311.637 254.26 310.567 254.26C309.184 254.26 307.939 253.938 306.831 253.292C305.731 252.641 304.857 251.679 304.211 250.412C303.574 249.136 303.255 247.568 303.255 245.709C303.255 243.849 303.57 242.255 304.201 240.927C304.839 239.598 305.711 238.58 306.819 237.874C307.927 237.161 309.184 236.804 310.589 236.804C311.675 236.804 312.551 236.986 313.221 237.351C313.888 237.708 314.407 238.125 314.78 238.604C315.159 239.081 315.451 239.504 315.656 239.868H315.906V237.032H319.244V254.91C319.244 256.413 318.895 257.647 318.197 258.611C317.498 259.575 316.552 260.289 315.361 260.752C314.177 261.215 312.84 261.447 311.353 261.447ZM311.319 251.436C312.297 251.436 313.125 251.21 313.8 250.753C314.483 250.29 315.001 249.631 315.349 248.773C315.706 247.907 315.884 246.871 315.884 245.664C315.884 244.486 315.71 243.45 315.361 242.554C315.013 241.658 314.499 240.961 313.824 240.46C313.149 239.951 312.313 239.696 311.319 239.696C310.292 239.696 309.439 239.963 308.755 240.494C308.072 241.017 307.557 241.73 307.208 242.634C306.865 243.538 306.695 244.548 306.695 245.664C306.695 246.811 306.869 247.815 307.218 248.681C307.569 249.547 308.084 250.222 308.767 250.709C309.459 251.194 310.308 251.436 311.319 251.436Z" fill="#DDDDDD"/>
<path d="M709.57 203.416H879.934C886.023 203.416 890.958 208.351 890.958 214.439V270.556C890.958 276.645 886.023 281.579 879.934 281.579H709.57C703.481 281.579 698.547 276.645 698.547 270.556V214.439C698.547 208.351 703.481 203.416 709.57 203.416Z" fill="#242424"/>
<path d="M709.57 203.416H879.934C886.023 203.416 890.958 208.351 890.958 214.439V270.556C890.958 276.645 886.023 281.579 879.934 281.579H709.57C703.481 281.579 698.547 276.645 698.547 270.556V214.439C698.547 208.351 703.481 203.416 709.57 203.416Z" stroke="#343434"/>
<path d="M727.699 254.523H720.148V231.202H727.939C730.224 231.202 732.186 231.669 733.826 232.601C735.465 233.529 736.722 234.86 737.596 236.6C738.476 238.329 738.917 240.405 738.917 242.829C738.917 245.258 738.472 247.346 737.584 249.092C736.704 250.837 735.429 252.18 733.757 253.122C732.088 254.056 730.068 254.523 727.699 254.523ZM723.668 251.449H727.506C729.282 251.449 730.759 251.114 731.936 250.446C733.112 249.771 733.994 248.795 734.577 247.52C735.162 246.238 735.455 244.672 735.455 242.829C735.455 240.999 735.162 239.445 734.577 238.171C734 236.896 733.138 235.928 731.994 235.267C730.847 234.605 729.422 234.277 727.723 234.277H723.668V251.449ZM750.557 254.876C748.834 254.876 747.351 254.507 746.106 253.771C744.867 253.028 743.911 251.984 743.236 250.639C742.568 249.288 742.234 247.705 742.234 245.891C742.234 244.099 742.568 242.52 743.236 241.155C743.911 239.788 744.853 238.722 746.06 237.954C747.274 237.187 748.693 236.804 750.319 236.804C751.305 236.804 752.263 236.968 753.189 237.293C754.115 237.62 754.947 238.133 755.682 238.83C756.42 239.53 756.999 240.438 757.424 241.552C757.851 242.66 758.063 244.009 758.063 245.594V246.803H744.158V244.251H754.726C754.726 243.356 754.544 242.562 754.179 241.873C753.814 241.173 753.303 240.622 752.642 240.221C751.988 239.818 751.223 239.616 750.341 239.616C749.385 239.616 748.549 239.852 747.836 240.323C747.13 240.786 746.583 241.394 746.196 242.145C745.817 242.889 745.627 243.696 745.627 244.57V246.562C745.627 247.733 745.831 248.727 746.242 249.547C746.659 250.366 747.24 250.994 747.984 251.426C748.728 251.851 749.597 252.064 750.591 252.064C751.237 252.064 751.826 251.972 752.357 251.789C752.888 251.601 753.347 251.32 753.736 250.947C754.123 250.575 754.418 250.116 754.624 249.569L757.847 250.15C757.588 251.1 757.125 251.93 756.456 252.643C755.797 253.35 754.965 253.9 753.963 254.294C752.969 254.683 751.834 254.876 750.557 254.876ZM761.842 261.083V237.032H765.167V239.868H765.451C765.648 239.504 765.932 239.081 766.305 238.604C766.676 238.125 767.193 237.708 767.854 237.351C768.514 236.986 769.388 236.804 770.472 236.804C771.885 236.804 773.146 237.161 774.254 237.874C775.362 238.588 776.23 239.616 776.862 240.961C777.499 242.303 777.818 243.921 777.818 245.811C777.818 247.703 777.503 249.322 776.874 250.675C776.242 252.018 775.376 253.054 774.276 253.783C773.176 254.505 771.919 254.864 770.506 254.864C769.444 254.864 768.574 254.685 767.898 254.329C767.231 253.972 766.708 253.555 766.327 253.076C765.948 252.599 765.656 252.174 765.451 251.801H765.245V261.083H761.842ZM765.177 245.777C765.177 247.007 765.355 248.086 765.712 249.011C766.069 249.937 766.586 250.663 767.261 251.186C767.937 251.703 768.764 251.962 769.744 251.962C770.761 251.962 771.612 251.691 772.294 251.152C772.977 250.605 773.494 249.865 773.843 248.931C774.2 247.997 774.378 246.947 774.378 245.777C774.378 244.624 774.204 243.588 773.855 242.668C773.512 241.75 772.997 241.025 772.306 240.494C771.622 239.963 770.769 239.696 769.744 239.696C768.756 239.696 767.923 239.951 767.239 240.46C766.564 240.969 766.05 241.678 765.702 242.588C765.351 243.5 765.177 244.562 765.177 245.777ZM785.037 231.202V254.523H781.634V231.202H785.037ZM796.987 254.876C795.347 254.876 793.916 254.501 792.693 253.749C791.471 252.998 790.523 251.946 789.847 250.595C789.17 249.244 788.833 247.665 788.833 245.857C788.833 244.043 789.17 242.456 789.847 241.097C790.523 239.738 791.471 238.684 792.693 237.932C793.916 237.181 795.347 236.804 796.987 236.804C798.626 236.804 800.057 237.181 801.28 237.932C802.502 238.684 803.45 239.738 804.128 241.097C804.803 242.456 805.14 244.043 805.14 245.857C805.14 247.665 804.803 249.244 804.128 250.595C803.45 251.946 802.502 252.998 801.28 253.749C800.057 254.501 798.626 254.876 796.987 254.876ZM796.999 252.018C798.061 252.018 798.941 251.737 799.64 251.176C800.338 250.613 800.855 249.865 801.19 248.931C801.53 247.997 801.701 246.969 801.701 245.845C801.701 244.73 801.53 243.704 801.19 242.77C800.855 241.83 800.338 241.075 799.64 240.506C798.941 239.936 798.061 239.652 796.999 239.652C795.928 239.652 795.038 239.936 794.333 240.506C793.635 241.075 793.114 241.83 792.774 242.77C792.439 243.704 792.273 244.73 792.273 245.845C792.273 246.969 792.439 247.997 792.774 248.931C793.114 249.865 793.635 250.613 794.333 251.176C795.038 251.737 795.928 252.018 796.999 252.018ZM810.499 261.083C809.99 261.083 809.527 261.041 809.109 260.956C808.692 260.88 808.381 260.798 808.175 260.706L808.996 257.916C809.618 258.084 810.173 258.157 810.658 258.132C811.145 258.11 811.574 257.928 811.945 257.585C812.325 257.245 812.658 256.687 812.947 255.912L813.368 254.751L806.968 237.032H810.612L815.043 250.605H815.224L819.655 237.032H823.311L816.101 256.858C815.767 257.768 815.342 258.539 814.827 259.169C814.31 259.806 813.694 260.285 812.981 260.604C812.267 260.922 811.439 261.083 810.499 261.083ZM826.51 254.523V237.032H829.915V254.523H826.51ZM828.229 234.333C827.638 234.333 827.129 234.136 826.704 233.742C826.285 233.339 826.077 232.86 826.077 232.307C826.077 231.743 826.285 231.266 826.704 230.872C827.129 230.469 827.638 230.268 828.229 230.268C828.823 230.268 829.326 230.469 829.745 230.872C830.169 231.266 830.382 231.743 830.382 232.307C830.382 232.86 830.169 233.339 829.745 233.742C829.326 234.136 828.823 234.333 828.229 234.333ZM837.9 244.137V254.523H834.497V237.032H837.764V239.878H837.98C838.383 238.952 839.012 238.209 839.87 237.648C840.736 237.085 841.826 236.804 843.139 236.804C844.332 236.804 845.376 237.054 846.272 237.556C847.168 238.049 847.861 238.786 848.354 239.764C848.849 240.744 849.096 241.955 849.096 243.398V254.523H845.691V243.807C845.691 242.54 845.36 241.55 844.699 240.834C844.039 240.115 843.131 239.754 841.977 239.754C841.189 239.754 840.486 239.924 839.87 240.265C839.263 240.608 838.782 241.109 838.425 241.768C838.076 242.422 837.9 243.211 837.9 244.137ZM860.995 261.447C859.606 261.447 858.41 261.265 857.408 260.9C856.414 260.536 855.602 260.052 854.97 259.453C854.341 258.854 853.87 258.197 853.559 257.483L856.486 256.277C856.69 256.611 856.965 256.964 857.306 257.335C857.654 257.716 858.125 258.038 858.718 258.303C859.318 258.569 860.087 258.702 861.029 258.702C862.32 258.702 863.386 258.387 864.23 257.758C865.072 257.134 865.493 256.14 865.493 254.773V251.334H865.278C865.072 251.707 864.777 252.12 864.389 252.575C864.01 253.032 863.487 253.427 862.817 253.759C862.15 254.094 861.28 254.26 860.21 254.26C858.829 254.26 857.582 253.938 856.474 253.292C855.373 252.641 854.502 251.679 853.856 250.412C853.217 249.136 852.898 247.568 852.898 245.709C852.898 243.849 853.215 242.255 853.844 240.927C854.481 239.598 855.355 238.58 856.464 237.874C857.572 237.161 858.829 236.804 860.232 236.804C861.318 236.804 862.196 236.986 862.863 237.351C863.531 237.708 864.052 238.125 864.423 238.604C864.803 239.081 865.096 239.504 865.301 239.868H865.551V237.032H868.888V254.91C868.888 256.413 868.537 257.647 867.84 258.611C867.141 259.575 866.197 260.289 865.004 260.752C863.819 261.215 862.485 261.447 860.995 261.447ZM860.961 251.436C861.941 251.436 862.769 251.21 863.445 250.753C864.128 250.29 864.643 249.631 864.992 248.773C865.349 247.907 865.527 246.871 865.527 245.664C865.527 244.486 865.353 243.45 865.004 242.554C864.655 241.658 864.142 240.961 863.467 240.46C862.791 239.951 861.955 239.696 860.961 239.696C859.937 239.696 859.083 239.963 858.4 240.494C857.716 241.017 857.199 241.73 856.85 242.634C856.51 243.538 856.337 244.548 856.337 245.664C856.337 246.811 856.512 247.815 856.863 248.681C857.211 249.547 857.726 250.222 858.41 250.709C859.101 251.194 859.951 251.436 860.961 251.436Z" fill="#DDDDDD"/>
<path d="M342.785 242.498C342.785 242.498 365.283 242.498 398.292 242.498C403.565 242.498 408.602 242.498 413.44 242.498C454.752 242.498 493.531 222.604 517.629 189.051L525.782 177.698C549.88 144.145 588.663 124.251 629.973 124.251H829.826" stroke="url(#paint8_linear_2395_4554)"/>
<g style="mix-blend-mode:multiply">
<path d="M342.785 242.498C342.785 242.498 365.283 242.498 398.292 242.498C403.565 242.498 408.602 242.498 413.44 242.498C454.752 242.498 493.531 222.604 517.629 189.051L525.782 177.698C549.88 144.145 588.663 124.251 629.973 124.251H829.826" stroke="#61E8B7"/>
</g>
<path d="M773.707 124.251C773.707 124.251 796.205 124.251 829.214 124.251C834.487 124.251 839.524 124.251 844.362 124.251C885.674 124.251 924.453 104.357 948.551 70.804L956.704 59.4511C980.802 25.8985 1019.58 6.00415 1060.89 6.00415H1260.75" stroke="url(#paint9_linear_2395_4554)"/>
<g style="mix-blend-mode:multiply">
<path d="M773.707 124.251C773.707 124.251 796.205 124.251 829.214 124.251C834.487 124.251 839.524 124.251 844.362 124.251C885.674 124.251 924.453 104.357 948.551 70.804L956.704 59.4511C980.802 25.8985 1019.58 6.00415 1060.89 6.00415H1260.75" stroke="#61E8B7"/>
</g>
<path d="M-493 357.738C-493 357.738 -461.937 357.738 -416.365 357.738C-394.328 357.738 -375.293 357.738 -357.726 357.738C-323.705 357.738 -291.083 344.224 -267.027 320.17L-224.917 278.062C-200.862 254.008 -168.234 240.494 -134.213 240.494H179.437" stroke="url(#paint10_linear_2395_4554)"/>
<g style="mix-blend-mode:multiply">
<path d="M-493 357.738C-493 357.738 -461.937 357.738 -416.365 357.738C-394.328 357.738 -375.293 357.738 -357.726 357.738C-323.705 357.738 -291.083 344.224 -267.027 320.17L-224.917 278.062C-200.862 254.008 -168.234 240.494 -134.213 240.494H179.437" stroke="#61E8B7"/>
</g>
</g>
<path d="M37.664 456V445.024H39.344V454.592H44.32L44.544 456H37.664ZM45.8018 456L49.3698 445.024H51.4018L54.9858 456H53.2578L50.3618 446.672H50.2977L47.4658 456H45.8018ZM47.5938 453.536V452.24H53.1298V453.536H47.5938ZM59.8435 456.16C58.7022 456.16 57.8115 455.84 57.1715 455.2C56.5315 454.549 56.2115 453.648 56.2115 452.496V445.024H57.8595V452.496C57.8595 453.221 58.0462 453.792 58.4195 454.208C58.7928 454.613 59.3155 454.816 59.9875 454.816C60.6702 454.816 61.1982 454.613 61.5715 454.208C61.9448 453.792 62.1315 453.221 62.1315 452.496V445.024H63.7635V452.496C63.7635 453.648 63.4435 454.549 62.8035 455.2C62.1635 455.84 61.2728 456.16 60.1315 456.16H59.8435ZM65.9653 456V445.024H67.6293L70.9893 451.664L71.5813 452.944H71.6453V445.024H73.2133V456H71.5333L68.0613 449.216L67.5813 448.112L67.5173 448.128V456H65.9653ZM79.079 456.16C78.4923 456.16 77.9483 456.075 77.447 455.904C76.9563 455.733 76.5243 455.461 76.151 455.088C75.7777 454.704 75.4843 454.197 75.271 453.568C75.0683 452.939 74.967 452.165 74.967 451.248V449.776C74.967 448.859 75.0737 448.085 75.287 447.456C75.5003 446.827 75.7937 446.325 76.167 445.952C76.5403 445.568 76.9723 445.291 77.463 445.12C77.9643 444.949 78.4977 444.864 79.063 444.864H79.287C80.119 444.864 80.8283 445.024 81.415 445.344C82.0123 445.664 82.4657 446.149 82.775 446.8C83.0843 447.44 83.239 448.245 83.239 449.216H81.623C81.623 448.512 81.543 447.941 81.383 447.504C81.2337 447.056 80.9777 446.731 80.615 446.528C80.2523 446.315 79.767 446.208 79.159 446.208C78.807 446.208 78.4817 446.261 78.183 446.368C77.895 446.464 77.639 446.635 77.415 446.88C77.191 447.115 77.015 447.44 76.887 447.856C76.759 448.272 76.695 448.795 76.695 449.424V451.584C76.695 452.213 76.759 452.741 76.887 453.168C77.015 453.584 77.191 453.915 77.415 454.16C77.639 454.395 77.895 454.565 78.183 454.672C78.4817 454.768 78.807 454.816 79.159 454.816C80.0763 454.816 80.7217 454.581 81.095 454.112C81.479 453.632 81.671 452.869 81.671 451.824H83.239C83.239 452.763 83.0843 453.552 82.775 454.192C82.4657 454.832 82.0177 455.323 81.431 455.664C80.8443 455.995 80.135 456.16 79.303 456.16H79.079ZM85.1528 456V445.024H86.7848V449.696H90.7528V445.024H92.4008V456H90.7528V451.088H86.7848V456H85.1528ZM104.868 456L103.156 445.024H104.66L106.004 453.232H106.068L107.332 445.024H108.756L110.036 453.232H110.1L111.412 445.024H112.756L111.044 456H109.252L107.988 448.048H107.924L106.676 456H104.868ZM114.142 456V445.024H121.31L121.086 446.384H115.822V449.728H120.59V451.056H115.822V454.608H121.182L121.406 456H114.142ZM123.736 456V445.024H130.904L130.68 446.384H125.416V449.728H130.184V451.056H125.416V454.608H130.776L131 456H123.736ZM133.122 456V445.024H134.754V451.008L139.362 445.024H141.154L137.474 450.064L141.314 456H139.394L136.21 451.152L134.754 452.976V456H133.122ZM155.669 456.16C154.912 456.16 154.245 456.027 153.669 455.76C153.104 455.493 152.661 455.125 152.341 454.656C152.021 454.187 151.861 453.653 151.861 453.056V452.768H153.365C153.365 453.504 153.578 454.037 154.005 454.368C154.432 454.699 155.008 454.864 155.733 454.864C156.437 454.864 157.013 454.704 157.461 454.384C157.909 454.053 158.133 453.563 158.133 452.912C158.133 452.464 158.026 452.096 157.813 451.808C157.61 451.52 157.338 451.312 156.997 451.184C156.656 451.045 156.282 450.976 155.877 450.976H154.501V449.808H155.733C156.128 449.808 156.485 449.739 156.805 449.6C157.136 449.461 157.397 449.259 157.589 448.992C157.792 448.715 157.893 448.373 157.893 447.968C157.893 447.563 157.797 447.227 157.605 446.96C157.413 446.693 157.152 446.496 156.821 446.368C156.501 446.24 156.138 446.176 155.733 446.176C155.061 446.176 154.533 446.341 154.149 446.672C153.776 447.003 153.589 447.483 153.589 448.112H152.133V447.84C152.133 447.232 152.288 446.709 152.597 446.272C152.917 445.824 153.349 445.477 153.893 445.232C154.437 444.987 155.05 444.864 155.733 444.864H155.941C156.613 444.864 157.216 444.987 157.749 445.232C158.282 445.467 158.704 445.808 159.013 446.256C159.333 446.693 159.493 447.216 159.493 447.824C159.493 448.251 159.418 448.619 159.269 448.928C159.12 449.237 158.917 449.499 158.661 449.712C158.405 449.925 158.112 450.112 157.781 450.272V450.352C158.357 450.533 158.826 450.848 159.189 451.296C159.562 451.744 159.749 452.331 159.749 453.056C159.749 453.675 159.584 454.219 159.253 454.688C158.933 455.147 158.485 455.509 157.909 455.776C157.333 456.032 156.677 456.16 155.941 456.16H155.669ZM174.521 459.2V444.48H175.705V459.2H174.521ZM190.684 456V445.024H194.508C195.116 445.024 195.681 445.104 196.204 445.264C196.727 445.424 197.185 445.685 197.58 446.048C197.975 446.4 198.284 446.869 198.508 447.456C198.732 448.032 198.844 448.736 198.844 449.568V451.456C198.844 452.267 198.732 452.965 198.508 453.552C198.284 454.128 197.975 454.597 197.58 454.96C197.185 455.312 196.727 455.573 196.204 455.744C195.681 455.915 195.116 456 194.508 456H190.684ZM192.38 454.64H194.396C194.919 454.64 195.383 454.555 195.788 454.384C196.193 454.203 196.513 453.893 196.748 453.456C196.993 453.019 197.116 452.4 197.116 451.6V449.408C197.116 448.629 196.993 448.021 196.748 447.584C196.513 447.136 196.193 446.821 195.788 446.64C195.383 446.459 194.919 446.368 194.396 446.368H192.38V454.64ZM199.302 456L202.87 445.024H204.902L208.486 456H206.758L203.862 446.672H203.798L200.966 456H199.302ZM201.094 453.536V452.24H206.63V453.536H201.094ZM212.656 456V451.92L208.976 445.024H210.816L213.536 450.144H213.6L216.304 445.024H218L214.336 451.92V456H212.656ZM229.219 456V454.672H232.115V446.88H229.219V445.904C229.571 445.872 229.96 445.813 230.387 445.728C230.814 445.632 231.262 445.515 231.731 445.376C232.211 445.227 232.68 445.056 233.139 444.864H233.731V454.672H236.595V456H229.219Z" fill="#888888"/>
<path d="M53.024 526V482.864H59.04V526H53.024ZM37.92 487.088V481.584H74.08V487.088H37.92ZM101.728 526V508.272C101.728 505.968 101.003 504.069 99.552 502.576C98.1013 501.083 96.224 500.336 93.92 500.336C92.384 500.336 91.0187 500.677 89.824 501.36C88.6293 502.043 87.6907 502.981 87.008 504.176C86.3253 505.371 85.984 506.736 85.984 508.272L83.616 506.928C83.616 504.624 84.128 502.576 85.152 500.784C86.176 498.992 87.6053 497.584 89.44 496.56C91.2747 495.493 93.344 494.96 95.648 494.96C97.952 494.96 99.9787 495.472 101.728 496.496C103.52 497.52 104.928 498.949 105.952 500.784C106.976 502.619 107.488 504.731 107.488 507.12V526H101.728ZM80.224 526V480.304H85.984V526H80.224ZM115.286 526V495.6H121.047V526H115.286ZM121.047 508.656L118.871 507.696C118.871 503.813 119.767 500.72 121.559 498.416C123.351 496.112 125.932 494.96 129.303 494.96C130.839 494.96 132.225 495.237 133.463 495.792C134.7 496.304 135.852 497.179 136.919 498.416L133.143 502.32C132.503 501.637 131.799 501.147 131.031 500.848C130.263 500.549 129.367 500.4 128.343 500.4C126.209 500.4 124.46 501.083 123.095 502.448C121.729 503.813 121.047 505.883 121.047 508.656ZM154.054 526.64C151.025 526.64 148.294 525.957 145.862 524.592C143.43 523.184 141.51 521.285 140.102 518.896C138.694 516.507 137.99 513.797 137.99 510.768C137.99 507.781 138.673 505.093 140.038 502.704C141.446 500.315 143.323 498.437 145.67 497.072C148.059 495.664 150.726 494.96 153.67 494.96C156.486 494.96 158.961 495.6 161.094 496.88C163.27 498.16 164.955 499.931 166.15 502.192C167.387 504.453 168.006 507.013 168.006 509.872C168.006 510.299 167.985 510.768 167.942 511.28C167.899 511.749 167.814 512.304 167.686 512.944H142.022V508.144H164.614L162.502 510C162.502 507.952 162.139 506.224 161.414 504.816C160.689 503.365 159.665 502.256 158.342 501.488C157.019 500.677 155.419 500.272 153.542 500.272C151.579 500.272 149.851 500.699 148.358 501.552C146.865 502.405 145.713 503.6 144.902 505.136C144.091 506.672 143.686 508.485 143.686 510.576C143.686 512.709 144.113 514.587 144.966 516.208C145.819 517.787 147.035 519.024 148.614 519.92C150.193 520.773 152.006 521.2 154.054 521.2C155.761 521.2 157.318 520.901 158.726 520.304C160.177 519.707 161.414 518.811 162.438 517.616L166.15 521.392C164.699 523.099 162.907 524.4 160.774 525.296C158.683 526.192 156.443 526.64 154.054 526.64ZM188.367 526.64C185.337 526.64 182.607 525.957 180.175 524.592C177.743 523.184 175.823 521.285 174.415 518.896C173.007 516.507 172.303 513.797 172.303 510.768C172.303 507.781 172.985 505.093 174.351 502.704C175.759 500.315 177.636 498.437 179.983 497.072C182.372 495.664 185.039 494.96 187.983 494.96C190.799 494.96 193.273 495.6 195.407 496.88C197.583 498.16 199.268 499.931 200.463 502.192C201.7 504.453 202.319 507.013 202.319 509.872C202.319 510.299 202.297 510.768 202.255 511.28C202.212 511.749 202.127 512.304 201.999 512.944H176.335V508.144H198.927L196.815 510C196.815 507.952 196.452 506.224 195.727 504.816C195.001 503.365 193.977 502.256 192.655 501.488C191.332 500.677 189.732 500.272 187.855 500.272C185.892 500.272 184.164 500.699 182.671 501.552C181.177 502.405 180.025 503.6 179.215 505.136C178.404 506.672 177.999 508.485 177.999 510.576C177.999 512.709 178.425 514.587 179.279 516.208C180.132 517.787 181.348 519.024 182.927 519.92C184.505 520.773 186.319 521.2 188.367 521.2C190.073 521.2 191.631 520.901 193.039 520.304C194.489 519.707 195.727 518.811 196.751 517.616L200.463 521.392C199.012 523.099 197.22 524.4 195.087 525.296C192.996 526.192 190.756 526.64 188.367 526.64ZM235.288 526.64C231.789 526.64 228.802 526 226.328 524.72C223.853 523.44 221.656 521.584 219.736 519.152L223.832 515.056C225.24 517.019 226.861 518.512 228.696 519.536C230.53 520.517 232.792 521.008 235.48 521.008C238.125 521.008 240.237 520.432 241.816 519.28C243.437 518.128 244.248 516.549 244.248 514.544C244.248 512.88 243.864 511.536 243.096 510.512C242.328 509.488 241.282 508.656 239.96 508.016C238.68 507.333 237.272 506.736 235.736 506.224C234.2 505.669 232.664 505.093 231.128 504.496C229.592 503.856 228.184 503.088 226.904 502.192C225.624 501.253 224.578 500.037 223.768 498.544C223 497.051 222.616 495.173 222.616 492.912C222.616 490.395 223.213 488.261 224.408 486.512C225.645 484.72 227.309 483.355 229.4 482.416C231.533 481.435 233.922 480.944 236.568 480.944C239.469 480.944 242.072 481.52 244.376 482.672C246.68 483.781 248.557 485.253 250.007 487.088L245.912 491.184C244.589 489.648 243.16 488.496 241.624 487.728C240.13 486.96 238.402 486.576 236.44 486.576C234.05 486.576 232.152 487.109 230.744 488.176C229.336 489.2 228.632 490.651 228.632 492.528C228.632 494.021 229.016 495.237 229.784 496.176C230.594 497.072 231.64 497.84 232.92 498.48C234.2 499.12 235.608 499.717 237.144 500.272C238.722 500.784 240.28 501.36 241.816 502C243.352 502.64 244.76 503.451 246.04 504.432C247.32 505.413 248.344 506.693 249.112 508.272C249.922 509.808 250.328 511.749 250.328 514.096C250.328 518.021 248.962 521.093 246.232 523.312C243.544 525.531 239.896 526.64 235.288 526.64ZM262.404 526V520.496H274.756C278.041 520.496 280.921 519.792 283.396 518.384C285.87 516.933 287.79 514.949 289.156 512.432C290.564 509.915 291.268 507.013 291.268 503.728C291.268 500.485 290.564 497.605 289.156 495.088C287.748 492.571 285.806 490.608 283.332 489.2C280.857 487.792 277.998 487.088 274.756 487.088H262.468V481.584H274.884C278.126 481.584 281.113 482.139 283.844 483.248C286.617 484.357 289.006 485.915 291.012 487.92C293.06 489.925 294.638 492.272 295.748 494.96C296.9 497.648 297.476 500.592 297.476 503.792C297.476 506.949 296.9 509.893 295.748 512.624C294.638 515.312 293.081 517.659 291.076 519.664C289.07 521.669 286.681 523.227 283.908 524.336C281.177 525.445 278.212 526 275.012 526H262.404ZM258.436 526V481.584H264.452V526H258.436ZM305.811 526V481.584H311.827V526H305.811ZM309.907 526V520.496H333.715V526H309.907ZM357.408 526.64C354.208 526.64 351.243 526.064 348.512 524.912C345.781 523.717 343.392 522.075 341.344 519.984C339.339 517.893 337.781 515.461 336.672 512.688C335.563 509.915 335.008 506.949 335.008 503.792C335.008 500.592 335.563 497.605 336.672 494.832C337.781 492.059 339.339 489.648 341.344 487.6C343.392 485.509 345.76 483.888 348.448 482.736C351.179 481.541 354.144 480.944 357.344 480.944C360.843 480.944 363.915 481.541 366.56 482.736C369.205 483.931 371.552 485.552 373.6 487.6L369.44 491.76C368.032 490.181 366.304 488.944 364.256 488.048C362.251 487.152 359.947 486.704 357.344 486.704C354.997 486.704 352.843 487.131 350.88 487.984C348.917 488.795 347.211 489.968 345.76 491.504C344.309 493.04 343.179 494.853 342.368 496.944C341.6 499.035 341.216 501.317 341.216 503.792C341.216 506.267 341.6 508.549 342.368 510.64C343.179 512.731 344.309 514.544 345.76 516.08C347.211 517.616 348.917 518.811 350.88 519.664C352.843 520.475 354.997 520.88 357.344 520.88C360.117 520.88 362.528 520.432 364.576 519.536C366.624 518.597 368.352 517.339 369.76 515.76L373.92 519.856C371.872 521.989 369.461 523.653 366.688 524.848C363.957 526.043 360.864 526.64 357.408 526.64ZM381.823 495.92L380.479 480.304H386.815L385.47 495.92H381.823ZM402.388 526.64C400.681 526.64 399.06 526.427 397.524 526C396.031 525.531 394.644 524.891 393.364 524.08C392.084 523.227 390.975 522.224 390.036 521.072L393.748 517.36C394.857 518.725 396.137 519.749 397.588 520.432C399.039 521.072 400.66 521.392 402.452 521.392C404.244 521.392 405.631 521.093 406.612 520.496C407.593 519.856 408.084 518.981 408.084 517.872C408.084 516.763 407.679 515.909 406.868 515.312C406.1 514.672 405.097 514.16 403.86 513.776C402.623 513.349 401.3 512.944 399.892 512.56C398.527 512.133 397.225 511.6 395.988 510.96C394.751 510.32 393.727 509.445 392.916 508.336C392.148 507.227 391.764 505.755 391.764 503.92C391.764 502.085 392.212 500.507 393.108 499.184C394.004 497.819 395.241 496.773 396.82 496.048C398.441 495.323 400.383 494.96 402.644 494.96C405.033 494.96 407.145 495.387 408.98 496.24C410.857 497.051 412.393 498.288 413.588 499.952L409.876 503.664C409.023 502.555 407.956 501.701 406.676 501.104C405.439 500.507 404.031 500.208 402.452 500.208C400.788 500.208 399.508 500.507 398.612 501.104C397.759 501.659 397.332 502.448 397.332 503.472C397.332 504.496 397.716 505.285 398.484 505.84C399.252 506.395 400.255 506.864 401.492 507.248C402.772 507.632 404.095 508.037 405.46 508.464C406.825 508.848 408.127 509.381 409.364 510.064C410.601 510.747 411.604 511.664 412.372 512.816C413.183 513.968 413.588 515.483 413.588 517.36C413.588 520.219 412.564 522.48 410.516 524.144C408.511 525.808 405.801 526.64 402.388 526.64ZM420.357 533.04L424.325 525.424L426.373 524.912C426.159 525.381 425.882 525.765 425.541 526.064C425.242 526.363 424.858 526.512 424.389 526.512C423.493 526.512 422.661 526.149 421.893 525.424C421.167 524.656 420.805 523.717 420.805 522.608C420.805 521.371 421.21 520.347 422.021 519.536C422.831 518.683 423.855 518.256 425.093 518.256C426.202 518.256 427.183 518.683 428.037 519.536C428.89 520.347 429.317 521.371 429.317 522.608C429.317 523.077 429.21 523.653 428.997 524.336C428.826 524.976 428.463 525.808 427.909 526.832L423.685 534.832L420.357 533.04ZM472.222 526.64C469.065 526.64 466.121 526.064 463.39 524.912C460.659 523.717 458.27 522.075 456.222 519.984C454.174 517.851 452.574 515.397 451.422 512.624C450.313 509.851 449.758 506.885 449.758 503.728C449.758 500.528 450.313 497.563 451.422 494.832C452.574 492.059 454.153 489.627 456.158 487.536C458.206 485.445 460.574 483.824 463.262 482.672C465.993 481.52 468.937 480.944 472.094 480.944C475.251 480.944 478.174 481.52 480.862 482.672C483.593 483.824 485.982 485.445 488.03 487.536C490.078 489.627 491.678 492.059 492.83 494.832C493.982 497.605 494.558 500.592 494.558 503.792C494.558 506.949 493.982 509.915 492.83 512.688C491.678 515.461 490.078 517.893 488.03 519.984C486.025 522.075 483.657 523.717 480.926 524.912C478.238 526.064 475.337 526.64 472.222 526.64ZM472.094 520.88C475.294 520.88 478.089 520.155 480.478 518.704C482.91 517.211 484.83 515.184 486.238 512.624C487.646 510.021 488.35 507.056 488.35 503.728C488.35 501.253 487.945 498.992 487.134 496.944C486.323 494.853 485.193 493.04 483.742 491.504C482.291 489.968 480.585 488.795 478.622 487.984C476.659 487.131 474.483 486.704 472.094 486.704C468.937 486.704 466.142 487.429 463.71 488.88C461.321 490.331 459.422 492.336 458.014 494.896C456.649 497.456 455.966 500.4 455.966 503.728C455.966 506.203 456.35 508.507 457.118 510.64C457.929 512.731 459.038 514.544 460.446 516.08C461.897 517.573 463.603 518.747 465.566 519.6C467.571 520.453 469.747 520.88 472.094 520.88ZM523.291 526V508.272C523.291 505.968 522.565 504.069 521.115 502.576C519.664 501.083 517.787 500.336 515.483 500.336C513.947 500.336 512.581 500.677 511.387 501.36C510.192 502.043 509.253 502.981 508.571 504.176C507.888 505.371 507.547 506.736 507.547 508.272L505.179 506.928C505.179 504.624 505.691 502.576 506.715 500.784C507.739 498.992 509.168 497.584 511.003 496.56C512.837 495.493 514.907 494.96 517.211 494.96C519.515 494.96 521.541 495.536 523.291 496.688C525.083 497.84 526.491 499.355 527.515 501.232C528.539 503.067 529.051 505.029 529.051 507.12V526H523.291ZM501.786 526V495.6H507.547V526H501.786ZM550.929 526.64C547.9 526.64 545.169 525.957 542.737 524.592C540.305 523.184 538.385 521.285 536.977 518.896C535.569 516.507 534.865 513.797 534.865 510.768C534.865 507.781 535.548 505.093 536.913 502.704C538.321 500.315 540.198 498.437 542.545 497.072C544.934 495.664 547.601 494.96 550.545 494.96C553.361 494.96 555.836 495.6 557.969 496.88C560.145 498.16 561.83 499.931 563.025 502.192C564.262 504.453 564.881 507.013 564.881 509.872C564.881 510.299 564.86 510.768 564.817 511.28C564.774 511.749 564.689 512.304 564.561 512.944H538.897V508.144H561.489L559.377 510C559.377 507.952 559.014 506.224 558.289 504.816C557.564 503.365 556.54 502.256 555.217 501.488C553.894 500.677 552.294 500.272 550.417 500.272C548.454 500.272 546.726 500.699 545.233 501.552C543.74 502.405 542.588 503.6 541.777 505.136C540.966 506.672 540.561 508.485 540.561 510.576C540.561 512.709 540.988 514.587 541.841 516.208C542.694 517.787 543.91 519.024 545.489 519.92C547.068 520.773 548.881 521.2 550.929 521.2C552.636 521.2 554.193 520.901 555.601 520.304C557.052 519.707 558.289 518.811 559.313 517.616L563.025 521.392C561.574 523.099 559.782 524.4 557.649 525.296C555.558 526.192 553.318 526.64 550.929 526.64ZM582.746 521.84L607.834 485.68H614.874L589.786 521.84H582.746ZM582.746 526V521.84L587.866 520.496H614.426V526H582.746ZM584.09 487.088V481.584H614.874V485.68L609.69 487.088H584.09ZM633.929 526.64C630.9 526.64 628.169 525.957 625.737 524.592C623.305 523.184 621.385 521.285 619.977 518.896C618.569 516.507 617.865 513.797 617.865 510.768C617.865 507.781 618.548 505.093 619.913 502.704C621.321 500.315 623.198 498.437 625.545 497.072C627.934 495.664 630.601 494.96 633.545 494.96C636.361 494.96 638.836 495.6 640.969 496.88C643.145 498.16 644.83 499.931 646.025 502.192C647.262 504.453 647.881 507.013 647.881 509.872C647.881 510.299 647.86 510.768 647.817 511.28C647.774 511.749 647.689 512.304 647.561 512.944H621.897V508.144H644.489L642.377 510C642.377 507.952 642.014 506.224 641.289 504.816C640.564 503.365 639.54 502.256 638.217 501.488C636.894 500.677 635.294 500.272 633.417 500.272C631.454 500.272 629.726 500.699 628.233 501.552C626.74 502.405 625.588 503.6 624.777 505.136C623.966 506.672 623.561 508.485 623.561 510.576C623.561 512.709 623.988 514.587 624.841 516.208C625.694 517.787 626.91 519.024 628.489 519.92C630.068 520.773 631.881 521.2 633.929 521.2C635.636 521.2 637.193 520.901 638.601 520.304C640.052 519.707 641.289 518.811 642.313 517.616L646.025 521.392C644.574 523.099 642.782 524.4 640.649 525.296C638.558 526.192 636.318 526.64 633.929 526.64ZM670.162 526.64C667.858 526.64 665.767 526.171 663.89 525.232C662.055 524.251 660.583 522.907 659.474 521.2C658.364 519.493 657.746 517.552 657.618 515.376V506.224C657.746 504.005 658.364 502.064 659.474 500.4C660.626 498.693 662.119 497.371 663.954 496.432C665.831 495.451 667.9 494.96 670.162 494.96C672.935 494.96 675.431 495.664 677.65 497.072C679.911 498.48 681.682 500.379 682.962 502.768C684.242 505.157 684.882 507.845 684.882 510.832C684.882 513.819 684.242 516.507 682.962 518.896C681.682 521.285 679.911 523.184 677.65 524.592C675.431 525.957 672.935 526.64 670.162 526.64ZM654.161 538.736V495.6H659.922V503.6L658.834 510.96L659.922 518.384V538.736H654.161ZM669.202 521.2C671.122 521.2 672.807 520.752 674.258 519.856C675.708 518.96 676.86 517.744 677.714 516.208C678.567 514.629 678.994 512.816 678.994 510.768C678.994 508.763 678.567 506.971 677.714 505.392C676.86 503.813 675.708 502.597 674.258 501.744C672.807 500.848 671.143 500.4 669.266 500.4C667.346 500.4 665.66 500.848 664.21 501.744C662.759 502.597 661.628 503.813 660.818 505.392C660.007 506.971 659.602 508.784 659.602 510.832C659.602 512.837 659.986 514.629 660.754 516.208C661.564 517.744 662.695 518.96 664.146 519.856C665.639 520.752 667.324 521.2 669.202 521.2ZM712.916 526V508.272C712.916 505.968 712.19 504.069 710.74 502.576C709.289 501.083 707.412 500.336 705.108 500.336C703.572 500.336 702.206 500.677 701.012 501.36C699.817 502.043 698.878 502.981 698.196 504.176C697.513 505.371 697.172 506.736 697.172 508.272L694.804 506.928C694.804 504.624 695.316 502.576 696.34 500.784C697.364 498.992 698.793 497.584 700.628 496.56C702.462 495.493 704.532 494.96 706.836 494.96C709.14 494.96 711.166 495.472 712.916 496.496C714.708 497.52 716.116 498.949 717.14 500.784C718.164 502.619 718.676 504.731 718.676 507.12V526H712.916ZM691.411 526V480.304H697.172V526H691.411ZM736.458 526.256L723.274 495.6H729.674L739.466 519.6H737.418L747.722 495.6H754.122L739.914 526.256H736.458ZM727.754 538.736L736.714 520.368L739.914 526.256L734.154 538.736H727.754ZM758.599 526V495.6H764.359V526H758.599ZM764.359 508.656L762.183 507.696C762.183 503.813 763.079 500.72 764.871 498.416C766.663 496.112 769.244 494.96 772.615 494.96C774.151 494.96 775.538 495.237 776.775 495.792C778.012 496.304 779.164 497.179 780.231 498.416L776.455 502.32C775.815 501.637 775.111 501.147 774.343 500.848C773.575 500.549 772.679 500.4 771.655 500.4C769.522 500.4 767.772 501.083 766.407 502.448C765.042 503.813 764.359 505.883 764.359 508.656Z" fill="white"/>
</g>
<defs>
<filter id="filter0_d_2395_4554" x="0" y="0" width="1088" height="574" filterUnits="userSpaceOnUse" color-interpolation-filters="sRGB">
<feFlood flood-opacity="0" result="BackgroundImageFix"/>
<feColorMatrix in="SourceAlpha" type="matrix" values="0 0 0 0 0 0 0 0 0 0 0 0 0 0 0 0 0 0 127 0" result="hardAlpha"/>
<feOffset dy="4"/>
<feGaussianBlur stdDeviation="2"/>
<feComposite in2="hardAlpha" operator="out"/>
<feColorMatrix type="matrix" values="0 0 0 0 0 0 0 0 0 0 0 0 0 0 0 0 0 0 0.25 0"/>
<feBlend mode="normal" in2="BackgroundImageFix" result="effect1_dropShadow_2395_4554"/>
<feBlend mode="normal" in="SourceGraphic" in2="effect1_dropShadow_2395_4554" result="shape"/>
</filter>
<linearGradient id="paint0_linear_2395_4554" x1="540" y1="130.756" x2="540" y2="566" gradientUnits="userSpaceOnUse">
<stop stop-color="#111111"/>
<stop offset="1" stop-color="#181818"/>
</linearGradient>
<radialGradient id="paint1_radial_2395_4554" cx="0" cy="0" r="1" gradientUnits="userSpaceOnUse" gradientTransform="translate(576.281 595.348) rotate(-90) scale(312.348 474.523)">
<stop stop-color="white" stop-opacity="0.1"/>
<stop offset="1" stop-color="white" stop-opacity="0"/>
</radialGradient>
<radialGradient id="paint2_radial_2395_4554" cx="0" cy="0" r="1" gradientUnits="userSpaceOnUse" gradientTransform="translate(22.7812 622.338) rotate(-33.2682) scale(618.6 792.982)">
<stop stop-color="#A375FF" stop-opacity="0.2"/>
<stop offset="1" stop-color="white" stop-opacity="0"/>
</radialGradient>
<radialGradient id="paint3_radial_2395_4554" cx="0" cy="0" r="1" gradientUnits="userSpaceOnUse" gradientTransform="translate(-1.74473e-05 665.05) rotate(-34.0189) scale(651.502 369.25)">
<stop stop-color="#A375FF" stop-opacity="0.25"/>
<stop offset="1" stop-opacity="0"/>
</radialGradient>
<linearGradient id="paint4_linear_2395_4554" x1="292.781" y1="373.927" x2="-338.821" y2="1030.75" gradientUnits="userSpaceOnUse">
<stop stop-color="white" stop-opacity="0"/>
<stop offset="1" stop-color="white"/>
</linearGradient>
<linearGradient id="paint5_linear_2395_4554" x1="370.709" y1="223679" x2="586.714" y2="223679" gradientUnits="userSpaceOnUse">
<stop stop-color="#242424"/>
<stop offset="0.466346" stop-color="#DDDDDD"/>
<stop offset="0.490385" stop-color="#343434"/>
<stop offset="0.673077" stop-color="#343434"/>
<stop offset="0.855769" stop-color="#DDDDDD"/>
</linearGradient>
<linearGradient id="paint6_linear_2395_4554" x1="-116.33" y1="223797" x2="99.6753" y2="223797" gradientUnits="userSpaceOnUse">
<stop stop-color="#242424"/>
<stop offset="0.466346" stop-color="#DDDDDD"/>
<stop offset="0.490385" stop-color="#343434"/>
<stop offset="0.673077" stop-color="#343434"/>
<stop offset="0.855769" stop-color="#DDDDDD"/>
</linearGradient>
<linearGradient id="paint7_linear_2395_4554" x1="919.883" y1="223561" x2="1135.89" y2="223561" gradientUnits="userSpaceOnUse">
<stop stop-color="#242424"/>
<stop offset="0.466346" stop-color="#DDDDDD"/>
<stop offset="0.490385" stop-color="#343434"/>
<stop offset="0.673077" stop-color="#343434"/>
<stop offset="0.855769" stop-color="#DDDDDD"/>
</linearGradient>
<linearGradient id="paint8_linear_2395_4554" x1="370.709" y1="223559" x2="586.714" y2="223559" gradientUnits="userSpaceOnUse">
<stop stop-color="#242424"/>
<stop offset="0.466346" stop-color="#DDDDDD"/>
<stop offset="0.490385" stop-color="#343434"/>
<stop offset="0.673077" stop-color="#343434"/>
<stop offset="0.855769" stop-color="#DDDDDD"/>
</linearGradient>
<linearGradient id="paint9_linear_2395_4554" x1="801.631" y1="223440" x2="1017.64" y2="223440" gradientUnits="userSpaceOnUse">
<stop stop-color="#242424"/>
<stop offset="0.466346" stop-color="#DDDDDD"/>
<stop offset="0.490385" stop-color="#343434"/>
<stop offset="0.673077" stop-color="#343434"/>
<stop offset="0.855769" stop-color="#DDDDDD"/>
</linearGradient>
<linearGradient id="paint10_linear_2395_4554" x1="-454.447" y1="221783" x2="-156.216" y2="221783" gradientUnits="userSpaceOnUse">
<stop stop-color="#242424"/>
<stop offset="0.466346" stop-color="#DDDDDD"/>
<stop offset="0.490385" stop-color="#343434"/>
<stop offset="0.673077" stop-color="#343434"/>
<stop offset="0.855769" stop-color="#DDDDDD"/>
</linearGradient>
<clipPath id="clip0_2395_4554">
<rect width="1080" height="566" fill="white" transform="translate(4)"/>
</clipPath>
<clipPath id="clip1_2395_4554">
<rect width="160" height="28.3429" fill="white" transform="translate(36 32)"/>
</clipPath>
<clipPath id="clip2_2395_4554">
<rect width="1872" height="479" fill="white" transform="translate(-493 4)"/>
</clipPath>
</defs>
</svg>
