<svg width="1600" height="900" viewBox="0 0 1600 900" fill="none" xmlns="http://www.w3.org/2000/svg">
  <rect width="1600" height="900" fill="#050505" />
  <rect width="1600" height="900" fill="url(#topGlow)" />
  <g opacity="0.96">
    <path
      d="M92 89.1563C92 74.4962 103.75 62.6094 118.247 62.6094C123.773 62.6094 128.9 64.3359 133.131 67.2867L140.818 59.5084C126.311 48.1746 105.397 49.2408 92.0928 62.7132C82.1111 72.8159 79.0259 87.2612 82.8363 100.042C83.4497 102.101 82.7097 104.385 80.8693 105.459C78.6938 106.73 75.8916 105.816 75.1151 103.399C73.677 98.9263 72.8999 94.1549 72.8999 89.1972C72.8999 76.5201 77.9749 65.0396 86.1808 56.7244L86.3741 56.5294C94.5662 48.3258 105.824 43.2627 118.219 43.2627C123.637 43.2627 128.831 44.2317 133.644 46.0097L135.875 46.8647C140.046 48.6478 144.323 50.141 148.649 51.3448C150.79 51.9404 152.944 52.4652 155.108 52.9187C157.119 53.3405 157.944 56.1428 156.497 57.7668L139.337 76.9991C142.271 81.7695 143.991 87.5534 143.991 93.7886C143.991 108.449 132.241 120.336 117.744 120.336C112.218 120.336 107.091 118.609 102.86 115.659L95.1731 123.437C109.68 134.771 130.594 133.705 143.898 120.232C153.879 110.13 156.965 95.6842 153.154 82.9036C152.541 80.8442 153.281 78.5602 155.121 77.4864C157.297 76.2162 160.099 77.1296 160.875 79.5465C162.314 84.0195 163.091 88.7912 163.091 93.7491C163.091 106.426 158.016 117.907 149.81 126.222L149.617 126.417C141.424 134.62 130.167 139.684 117.771 139.684C112.353 139.684 107.159 138.715 102.346 136.937L100.115 136.082C95.9441 134.299 91.6672 132.805 87.3415 131.601C85.2002 131.006 83.0461 130.481 80.8823 130.027C78.8713 129.606 78.0464 126.803 79.4935 125.179L96.6531 105.947C93.7199 101.177 92 95.3929 92 89.1563ZM118.691 111.893C128.636 111.893 136.699 103.83 136.699 93.8851C136.699 90.7798 135.914 87.8562 134.534 85.3055L110.12 109.72C112.67 111.108 115.588 111.893 118.691 111.893ZM118.691 66.4199C108.747 66.4199 100.684 74.483 100.684 84.4275C100.684 87.7811 101.599 90.9208 103.191 93.6089L127.87 68.9304C125.182 67.3378 122.042 66.4199 118.691 66.4199Z"
      fill="white"
    />
  </g>
  <g>
    <text
      fill="white"
      font-family="'Avenir Next', 'Helvetica Neue', Arial, sans-serif"
      font-size="90"
      font-weight="500"
      letter-spacing="-0.05em"
    >
      <tspan x="78" y="340">Nitro v3 + Zephyr:</tspan>
      <tspan x="78" y="440">Backends Can Now</tspan>
      <tspan x="78" y="540">Ship in One Step</tspan>
    </text>
    <text
      x="78"
      y="622"
      fill="#6D6D6D"
      font-family="'Avenir Next', 'Helvetica Neue', Arial, sans-serif"
      font-size="44"
      font-weight="500"
      letter-spacing="-0.03em"
    >
      Deploys now feel native
    </text>
  </g>
  <g transform="translate(1204 82)">
    <path d="M294 0H450L362 98H206L294 0Z" fill="#130A1E" stroke="#6F2CF0" stroke-width="6" />
    <path d="M240 162H520L430 262H150L240 162Z" fill="#1A0C28" stroke="#6F2CF0" stroke-width="6" />
    <path d="M184 334H588L498 444H94L184 334Z" fill="#231037" stroke="#6F2CF0" stroke-width="6" />
    <path d="M128 528H654L562 650H36L128 528Z" fill="#321751" stroke="#6F2CF0" stroke-width="6" />
    <path d="M72 744H720L626 900H-22L72 744Z" fill="#4D2787" stroke="#6F2CF0" stroke-width="6" />
  </g>
  <defs>
    <radialGradient
      id="topGlow"
      cx="0"
      cy="0"
      r="1"
      gradientUnits="userSpaceOnUse"
      gradientTransform="translate(1192 -12) rotate(112.063) scale(758.958 830.35)"
    >
      <stop stop-color="#4E1CA8" stop-opacity="0.42" />
      <stop offset="0.32" stop-color="#2A1059" stop-opacity="0.18" />
      <stop offset="1" stop-color="#050505" stop-opacity="0" />
    </radialGradient>
  </defs>
</svg>
