<svg width="72" height="72" viewBox="0 0 72 72" fill="none" xmlns="http://www.w3.org/2000/svg">
<g opacity="0.2" filter="url(#filter0_dii_1488_2275)">
<path d="M10.1826 26.292C10.1826 12.2087 21.5994 0.791992 35.6826 0.791992C49.7659 0.791992 61.1826 12.2087 61.1826 26.292C61.1826 40.3753 49.7659 51.792 35.6826 51.792C21.5994 51.792 10.1826 40.3753 10.1826 26.292Z" fill="#010101"/>
<path d="M10.1826 26.292C10.1826 12.2087 21.5994 0.791992 35.6826 0.791992C49.7659 0.791992 61.1826 12.2087 61.1826 26.292C61.1826 40.3753 49.7659 51.792 35.6826 51.792C21.5994 51.792 10.1826 40.3753 10.1826 26.292Z" fill="url(#paint0_radial_1488_2275)" fill-opacity="0.5"/>
<path d="M10.6826 26.292C10.6826 12.4849 21.8755 1.29199 35.6826 1.29199C49.4897 1.29199 60.6826 12.4849 60.6826 26.292C60.6826 40.0991 49.4897 51.292 35.6826 51.292C21.8755 51.292 10.6826 40.0991 10.6826 26.292Z" stroke="url(#paint1_linear_1488_2275)" style="mix-blend-mode:overlay"/>
</g>
<mask id="mask0_1488_2275" style="mask-type:luminance" maskUnits="userSpaceOnUse" x="26" y="17" width="20" height="20">
<path d="M45.5083 17.0542H26.5083V36.0542H45.5083V17.0542Z" fill="white"/>
</mask>
<g mask="url(#mask0_1488_2275)">
<path d="M41.4553 17.9937H44.3597L38.0143 25.2463L45.4794 35.1152H39.6341L35.0563 29.1296L29.818 35.1152H26.9116L33.6986 27.3579L26.5376 17.9937H32.5309L36.669 23.4646L41.4553 17.9937ZM40.4359 33.3766H42.0454L31.6564 19.641H29.9295L40.4359 33.3766Z" fill="white"/>
</g>
<defs>
<filter id="filter0_dii_1488_2275" x="0.182617" y="-0.208008" width="71" height="72" filterUnits="userSpaceOnUse" color-interpolation-filters="sRGB">
<feFlood flood-opacity="0" result="BackgroundImageFix"/>
<feColorMatrix in="SourceAlpha" type="matrix" values="0 0 0 0 0 0 0 0 0 0 0 0 0 0 0 0 0 0 127 0" result="hardAlpha"/>
<feOffset dy="10"/>
<feGaussianBlur stdDeviation="5"/>
<feComposite in2="hardAlpha" operator="out"/>
<feColorMatrix type="matrix" values="0 0 0 0 0 0 0 0 0 0 0 0 0 0 0 0 0 0 0.1 0"/>
<feBlend mode="normal" in2="BackgroundImageFix" result="effect1_dropShadow_1488_2275"/>
<feBlend mode="normal" in="SourceGraphic" in2="effect1_dropShadow_1488_2275" result="shape"/>
<feColorMatrix in="SourceAlpha" type="matrix" values="0 0 0 0 0 0 0 0 0 0 0 0 0 0 0 0 0 0 127 0" result="hardAlpha"/>
<feOffset/>
<feGaussianBlur stdDeviation="5"/>
<feComposite in2="hardAlpha" operator="arithmetic" k2="-1" k3="1"/>
<feColorMatrix type="matrix" values="0 0 0 0 0.943597 0 0 0 0 0.923779 0 0 0 0 1 0 0 0 1 0"/>
<feBlend mode="overlay" in2="shape" result="effect2_innerShadow_1488_2275"/>
<feColorMatrix in="SourceAlpha" type="matrix" values="0 0 0 0 0 0 0 0 0 0 0 0 0 0 0 0 0 0 127 0" result="hardAlpha"/>
<feOffset dy="-1"/>
<feGaussianBlur stdDeviation="10"/>
<feComposite in2="hardAlpha" operator="arithmetic" k2="-1" k3="1"/>
<feColorMatrix type="matrix" values="0 0 0 0 0.92995 0 0 0 0 0.905339 0 0 0 0 1 0 0 0 1 0"/>
<feBlend mode="overlay" in2="effect2_innerShadow_1488_2275" result="effect3_innerShadow_1488_2275"/>
</filter>
<radialGradient id="paint0_radial_1488_2275" cx="0" cy="0" r="1" gradientUnits="userSpaceOnUse" gradientTransform="translate(61.1826 69.042) rotate(-131.312) scale(90.8643 33.5548)">
<stop stop-color="white" stop-opacity="0"/>
<stop offset="1" stop-color="white"/>
</radialGradient>
<linearGradient id="paint1_linear_1488_2275" x1="27.108" y1="36.1664" x2="49.3045" y2="2.38953" gradientUnits="userSpaceOnUse">
<stop stop-color="white" stop-opacity="0.5"/>
<stop offset="1" stop-color="white" stop-opacity="0.5"/>
</linearGradient>
</defs>
</svg>
