<svg width="72" height="72" viewBox="0 0 72 72" fill="none" xmlns="http://www.w3.org/2000/svg">
<g opacity="0.2" filter="url(#filter0_dii_1488_2295)">
<path d="M10.1826 26.292C10.1826 12.2087 21.5994 0.791992 35.6826 0.791992C49.7659 0.791992 61.1826 12.2087 61.1826 26.292C61.1826 40.3753 49.7659 51.792 35.6826 51.792C21.5994 51.792 10.1826 40.3753 10.1826 26.292Z" fill="#010101"/>
<path d="M10.1826 26.292C10.1826 12.2087 21.5994 0.791992 35.6826 0.791992C49.7659 0.791992 61.1826 12.2087 61.1826 26.292C61.1826 40.3753 49.7659 51.792 35.6826 51.792C21.5994 51.792 10.1826 40.3753 10.1826 26.292Z" fill="url(#paint0_radial_1488_2295)" fill-opacity="0.5"/>
<path d="M10.6826 26.292C10.6826 12.4849 21.8755 1.29199 35.6826 1.29199C49.4897 1.29199 60.6826 12.4849 60.6826 26.292C60.6826 40.0991 49.4897 51.292 35.6826 51.292C21.8755 51.292 10.6826 40.0991 10.6826 26.292Z" stroke="url(#paint1_linear_1488_2295)" style="mix-blend-mode:overlay"/>
</g>
<path d="M45.2434 21.3454C45.1437 20.4801 44.3596 19.6503 43.5393 19.5391C38.537 18.8926 33.4786 18.8926 28.478 19.5391C27.6569 19.65 26.8729 20.4801 26.7732 21.3454C26.42 24.517 26.42 27.5922 26.7732 30.763C26.8729 31.6284 27.6569 32.459 28.478 32.5694C33.4786 33.2159 38.5372 33.2159 43.5393 32.5694C44.3596 32.4592 45.1437 31.6284 45.2434 30.763C45.5966 27.5925 45.5966 24.517 45.2434 21.3454ZM34.4248 29.3487V22.7608L39.1749 26.0548L34.4248 29.3487Z" fill="white"/>
<defs>
<filter id="filter0_dii_1488_2295" x="0.182617" y="-0.208008" width="71" height="72" filterUnits="userSpaceOnUse" color-interpolation-filters="sRGB">
<feFlood flood-opacity="0" result="BackgroundImageFix"/>
<feColorMatrix in="SourceAlpha" type="matrix" values="0 0 0 0 0 0 0 0 0 0 0 0 0 0 0 0 0 0 127 0" result="hardAlpha"/>
<feOffset dy="10"/>
<feGaussianBlur stdDeviation="5"/>
<feComposite in2="hardAlpha" operator="out"/>
<feColorMatrix type="matrix" values="0 0 0 0 0 0 0 0 0 0 0 0 0 0 0 0 0 0 0.1 0"/>
<feBlend mode="normal" in2="BackgroundImageFix" result="effect1_dropShadow_1488_2295"/>
<feBlend mode="normal" in="SourceGraphic" in2="effect1_dropShadow_1488_2295" result="shape"/>
<feColorMatrix in="SourceAlpha" type="matrix" values="0 0 0 0 0 0 0 0 0 0 0 0 0 0 0 0 0 0 127 0" result="hardAlpha"/>
<feOffset/>
<feGaussianBlur stdDeviation="5"/>
<feComposite in2="hardAlpha" operator="arithmetic" k2="-1" k3="1"/>
<feColorMatrix type="matrix" values="0 0 0 0 0.943597 0 0 0 0 0.923779 0 0 0 0 1 0 0 0 1 0"/>
<feBlend mode="overlay" in2="shape" result="effect2_innerShadow_1488_2295"/>
<feColorMatrix in="SourceAlpha" type="matrix" values="0 0 0 0 0 0 0 0 0 0 0 0 0 0 0 0 0 0 127 0" result="hardAlpha"/>
<feOffset dy="-1"/>
<feGaussianBlur stdDeviation="10"/>
<feComposite in2="hardAlpha" operator="arithmetic" k2="-1" k3="1"/>
<feColorMatrix type="matrix" values="0 0 0 0 0.92995 0 0 0 0 0.905339 0 0 0 0 1 0 0 0 1 0"/>
<feBlend mode="overlay" in2="effect2_innerShadow_1488_2295" result="effect3_innerShadow_1488_2295"/>
</filter>
<radialGradient id="paint0_radial_1488_2295" cx="0" cy="0" r="1" gradientUnits="userSpaceOnUse" gradientTransform="translate(61.1826 69.042) rotate(-131.312) scale(90.8643 33.5548)">
<stop stop-color="white" stop-opacity="0"/>
<stop offset="1" stop-color="white"/>
</radialGradient>
<linearGradient id="paint1_linear_1488_2295" x1="27.108" y1="36.1664" x2="49.3045" y2="2.38953" gradientUnits="userSpaceOnUse">
<stop stop-color="white" stop-opacity="0.5"/>
<stop offset="1" stop-color="white" stop-opacity="0.5"/>
</linearGradient>
</defs>
</svg>
