<svg width="72" height="72" viewBox="0 0 72 72" fill="none" xmlns="http://www.w3.org/2000/svg">
<g opacity="0.2" filter="url(#filter0_dii_1488_2289)">
<rect x="10.1826" y="0.791992" width="51" height="51" rx="25.5" fill="#010101"/>
<rect x="10.1826" y="0.791992" width="51" height="51" rx="25.5" fill="url(#paint0_radial_1488_2289)" fill-opacity="0.5"/>
<rect x="10.6826" y="1.29199" width="50" height="50" rx="25" stroke="url(#paint1_linear_1488_2289)" style="mix-blend-mode:overlay"/>
</g>
<path d="M43.3304 18.2012C41.8135 17.549 40.1868 17.0684 38.486 16.7931C38.455 16.7878 38.4241 16.8011 38.4081 16.8276C38.1989 17.1764 37.9672 17.6312 37.8049 17.9888C35.9756 17.7321 34.1556 17.7321 32.3638 17.9888C32.2015 17.6233 31.9614 17.1764 31.7512 16.8276C31.7353 16.802 31.7043 16.7887 31.6734 16.7931C29.9735 17.0675 28.3468 17.5481 26.8289 18.2012C26.8158 18.2065 26.8045 18.2154 26.797 18.2269C23.7116 22.5466 22.8663 26.7602 23.281 30.9215C23.2828 30.9418 23.2951 30.9613 23.3119 30.9737C25.3476 32.3746 27.3196 33.2251 29.2549 33.7889C29.2858 33.7977 29.3186 33.7872 29.3384 33.7632C29.7961 33.1774 30.2042 32.5596 30.5541 31.91C30.5747 31.872 30.555 31.8268 30.5128 31.8118C29.8655 31.5817 29.2492 31.3011 28.6563 30.9826C28.6094 30.9569 28.6056 30.8941 28.6488 30.864C28.7736 30.7764 28.8984 30.6852 29.0175 30.5931C29.0391 30.5763 29.0691 30.5728 29.0944 30.5834C32.9895 32.2499 37.2063 32.2499 41.0554 30.5834C41.0807 30.5719 41.1107 30.5754 41.1332 30.5922C41.2524 30.6843 41.3772 30.7763 41.5029 30.8639C41.546 30.894 41.5432 30.9569 41.4963 30.9825C40.9034 31.3073 40.2871 31.5817 39.6388 31.8109C39.5966 31.8259 39.5779 31.872 39.5985 31.91C39.956 32.5587 40.364 33.1764 40.8134 33.7623C40.8321 33.7871 40.8659 33.7977 40.8968 33.7889C42.8415 33.2251 44.8135 32.3746 46.8492 30.9736C46.867 30.9613 46.8783 30.9427 46.8801 30.9223C47.3764 26.1114 46.049 21.9324 43.3613 18.2277C43.3548 18.2154 43.3435 18.2065 43.3304 18.2012ZM31.1359 28.3876C29.9632 28.3876 28.9969 27.3788 28.9969 26.1397C28.9969 24.9007 29.9444 23.8918 31.1359 23.8918C32.3366 23.8918 33.2935 24.9096 33.2747 26.1397C33.2747 27.3788 32.3272 28.3876 31.1359 28.3876ZM39.0441 28.3876C37.8715 28.3876 36.9052 27.3788 36.9052 26.1397C36.9052 24.9007 37.8527 23.8918 39.0441 23.8918C40.2449 23.8918 41.2018 24.9096 41.1831 26.1397C41.1831 27.3788 40.2449 28.3876 39.0441 28.3876Z" fill="white"/>
<defs>
<filter id="filter0_dii_1488_2289" x="0.182617" y="-0.208008" width="71" height="72" filterUnits="userSpaceOnUse" color-interpolation-filters="sRGB">
<feFlood flood-opacity="0" result="BackgroundImageFix"/>
<feColorMatrix in="SourceAlpha" type="matrix" values="0 0 0 0 0 0 0 0 0 0 0 0 0 0 0 0 0 0 127 0" result="hardAlpha"/>
<feOffset dy="10"/>
<feGaussianBlur stdDeviation="5"/>
<feComposite in2="hardAlpha" operator="out"/>
<feColorMatrix type="matrix" values="0 0 0 0 0 0 0 0 0 0 0 0 0 0 0 0 0 0 0.1 0"/>
<feBlend mode="normal" in2="BackgroundImageFix" result="effect1_dropShadow_1488_2289"/>
<feBlend mode="normal" in="SourceGraphic" in2="effect1_dropShadow_1488_2289" result="shape"/>
<feColorMatrix in="SourceAlpha" type="matrix" values="0 0 0 0 0 0 0 0 0 0 0 0 0 0 0 0 0 0 127 0" result="hardAlpha"/>
<feOffset/>
<feGaussianBlur stdDeviation="5"/>
<feComposite in2="hardAlpha" operator="arithmetic" k2="-1" k3="1"/>
<feColorMatrix type="matrix" values="0 0 0 0 0.943597 0 0 0 0 0.923779 0 0 0 0 1 0 0 0 1 0"/>
<feBlend mode="overlay" in2="shape" result="effect2_innerShadow_1488_2289"/>
<feColorMatrix in="SourceAlpha" type="matrix" values="0 0 0 0 0 0 0 0 0 0 0 0 0 0 0 0 0 0 127 0" result="hardAlpha"/>
<feOffset dy="-1"/>
<feGaussianBlur stdDeviation="10"/>
<feComposite in2="hardAlpha" operator="arithmetic" k2="-1" k3="1"/>
<feColorMatrix type="matrix" values="0 0 0 0 0.92995 0 0 0 0 0.905339 0 0 0 0 1 0 0 0 1 0"/>
<feBlend mode="overlay" in2="effect2_innerShadow_1488_2289" result="effect3_innerShadow_1488_2289"/>
</filter>
<radialGradient id="paint0_radial_1488_2289" cx="0" cy="0" r="1" gradientUnits="userSpaceOnUse" gradientTransform="translate(61.1826 69.042) rotate(-131.312) scale(90.8643 33.5548)">
<stop stop-color="white" stop-opacity="0"/>
<stop offset="1" stop-color="white"/>
</radialGradient>
<linearGradient id="paint1_linear_1488_2289" x1="27.108" y1="36.1664" x2="49.3045" y2="2.38953" gradientUnits="userSpaceOnUse">
<stop stop-color="white" stop-opacity="0.5"/>
<stop offset="1" stop-color="white" stop-opacity="0.5"/>
</linearGradient>
</defs>
</svg>
