<svg width="81" height="81" viewBox="0 0 81 81" fill="none" xmlns="http://www.w3.org/2000/svg" xmlns:xlink="http://www.w3.org/1999/xlink">
<mask id="mask0_1287_13093" style="mask-type:alpha" maskUnits="userSpaceOnUse" x="0" y="0" width="81" height="81">
<circle cx="40.0518" cy="40.2024" r="40" fill="#D9D9D9"/>
</mask>
<g mask="url(#mask0_1287_13093)">
<g opacity="0.2" filter="url(#filter0_bdii_1287_13093)">
<circle cx="40.0518" cy="40.2024" r="40" fill="url(#paint0_radial_1287_13093)" fill-opacity="0.5" shape-rendering="crispEdges"/>
<circle cx="40.0518" cy="40.2024" r="39.5" stroke="url(#paint1_linear_1287_13093)" style="mix-blend-mode:overlay" shape-rendering="crispEdges"/>
</g>
<g transform="translate(16, 15) scale(3)" fill="#0089D6">
<path d="M7.47 12.412l3.348-.592.031-.007-1.722-2.049a291.474 291.474 0 01-1.723-2.058c0-.01 1.779-4.909 1.789-4.926a788.95 788.95 0 012.934 5.066l2.95 5.115.023.039-10.948-.001 3.317-.587zM.9 11.788c0-.003.811-1.412 1.803-3.131L4.507 5.53l2.102-1.764C7.765 2.797 8.714 2 8.717 2a.37.37 0 01-.033.085L6.4 6.981 4.16 11.789l-1.63.002c-.897.001-1.63 0-1.63-.003z"/>
</g>
</g>
<defs>
<filter id="filter0_bdii_1287_13093" x="-33.9482" y="-33.7976" width="148" height="148" filterUnits="userSpaceOnUse" color-interpolation-filters="sRGB">
<feFlood flood-opacity="0" result="BackgroundImageFix"/>
<feGaussianBlur in="BackgroundImageFix" stdDeviation="17"/>
<feComposite in2="SourceAlpha" operator="in" result="effect1_backgroundBlur_1287_13093"/>
<feColorMatrix in="SourceAlpha" type="matrix" values="0 0 0 0 0 0 0 0 0 0 0 0 0 0 0 0 0 0 127 0" result="hardAlpha"/>
<feOffset dy="10"/>
<feGaussianBlur stdDeviation="5"/>
<feComposite in2="hardAlpha" operator="out"/>
<feColorMatrix type="matrix" values="0 0 0 0 0 0 0 0 0 0 0 0 0 0 0 0 0 0 0.1 0"/>
<feBlend mode="normal" in2="effect1_backgroundBlur_1287_13093" result="effect2_dropShadow_1287_13093"/>
<feBlend mode="normal" in="SourceGraphic" in2="effect2_dropShadow_1287_13093" result="shape"/>
<feColorMatrix in="SourceAlpha" type="matrix" values="0 0 0 0 0 0 0 0 0 0 0 0 0 0 0 0 0 0 127 0" result="hardAlpha"/>
<feOffset/>
<feGaussianBlur stdDeviation="5"/>
<feComposite in2="hardAlpha" operator="arithmetic" k2="-1" k3="1"/>
<feColorMatrix type="matrix" values="0 0 0 0 0.943597 0 0 0 0 0.923779 0 0 0 0 1 0 0 0 1 0"/>
<feBlend mode="overlay" in2="shape" result="effect3_innerShadow_1287_13093"/>
<feColorMatrix in="SourceAlpha" type="matrix" values="0 0 0 0 0 0 0 0 0 0 0 0 0 0 0 0 0 0 127 0" result="hardAlpha"/>
<feOffset dy="-1"/>
<feGaussianBlur stdDeviation="10"/>
<feComposite in2="hardAlpha" operator="arithmetic" k2="-1" k3="1"/>
<feColorMatrix type="matrix" values="0 0 0 0 0.92995 0 0 0 0 0.905339 0 0 0 0 1 0 0 0 1 0"/>
<feBlend mode="overlay" in2="effect3_innerShadow_1287_13093" result="effect4_innerShadow_1287_13093"/>
</filter>
<radialGradient id="paint0_radial_1287_13093" cx="0" cy="0" r="1" gradientUnits="userSpaceOnUse" gradientTransform="translate(80.0518 107.261) rotate(-131.312) scale(142.532 52.635)">
<stop stop-color="white" stop-opacity="0"/>
<stop offset="1" stop-color="white"/>
</radialGradient>
<linearGradient id="paint1_linear_1287_13093" x1="26.6013" y1="55.6917" x2="61.4194" y2="2.70834" gradientUnits="userSpaceOnUse">
<stop stop-color="white" stop-opacity="0.5"/>
<stop offset="1" stop-color="white" stop-opacity="0.5"/>
</linearGradient>
</defs>
</svg>
