<svg width="33" height="33" viewBox="0 0 33 33" fill="none" xmlns="http://www.w3.org/2000/svg">
<g clip-path="url(#clip0_1287_12703)">
<path fill-rule="evenodd" clip-rule="evenodd" d="M17.6429 0.5H15.3571V10.6205L11.5659 1.23693L9.44666 2.09318L13.3361 11.7198L5.99442 4.37816L4.37818 5.99442L11.4148 13.0311L2.29586 9.0469L1.38073 11.1414L11.0297 15.3571H0.5V17.6429H11.0297L1.38074 21.8586L2.29586 23.9531L11.4148 19.969L4.37818 27.0056L5.99442 28.6218L13.3361 21.2802L9.44666 30.9069L11.5659 31.763L15.3571 22.3795V32.5H17.6429V22.3795L21.4341 31.763L23.5533 30.9069L19.664 21.2802L27.0056 28.6218L28.6218 27.0056L21.5851 19.969L30.7042 23.9531L31.6192 21.8586L21.9704 17.6429H32.5V15.3571H21.9702L31.6192 11.1414L30.7042 9.0469L21.5851 13.0311L28.6218 5.9944L27.0056 4.37816L19.664 11.7198L23.5533 2.09318L21.4341 1.23693L17.6429 10.6205V0.5Z" fill="#080809"/>
</g>
<defs>
<clipPath id="clip0_1287_12703">
<rect width="32" height="32" fill="white" transform="translate(0.5 0.5)"/>
</clipPath>
</defs>
</svg>
