<svg width="33" height="33" viewBox="0 0 33 33" fill="none" xmlns="http://www.w3.org/2000/svg">
<g clip-path="url(#clip0_1287_12722)">
<path d="M16.5 32.5C15.4444 32.5 14.4722 32.2362 13.5833 31.7083C12.7222 31.2083 12.0278 30.5278 11.5 29.6667C11 28.7778 10.75 27.8056 10.75 26.7499C10.75 25.4166 11.0556 24.3056 11.6667 23.4166C12.2778 22.5278 13.2222 21.4861 14.5 20.2917C15.4444 19.4306 15.9167 18.611 15.9167 17.8333V17.0834H15.1667C14.3056 17.0834 13.125 17.9445 11.625 19.6667C10.1528 21.389 8.3611 22.2499 6.25 22.2499C5.19445 22.2499 4.22222 22 3.33333 21.5C2.47222 20.9722 1.77778 20.2778 1.25 19.4166C0.75 18.5278 0.5 17.5555 0.5 16.5C0.5 15.4444 0.75 14.4861 1.25 13.625C1.77778 12.7361 2.47222 12.0417 3.33333 11.5417C4.22222 11.0139 5.19445 10.75 6.25 10.75C8.33333 10.75 10.1111 11.5972 11.5833 13.2917C13.0556 14.9861 14.25 15.8333 15.1667 15.8333H15.9167V15.1667C15.9167 14.3889 15.4444 13.5694 14.5 12.7083L13.5417 11.8333C12.8472 11.1944 12.2083 10.4306 11.625 9.54166C11.0417 8.62499 10.75 7.52778 10.75 6.25C10.75 5.19445 11 4.23611 11.5 3.37501C12.0278 2.48611 12.7222 1.79167 13.5833 1.29167C14.4722 0.763888 15.4444 0.5 16.5 0.5C17.5555 0.5 18.5139 0.763888 19.375 1.29167C20.2638 1.81944 20.9584 2.51389 21.4584 3.37501C21.9861 4.23611 22.2499 5.19445 22.2499 6.25C22.2499 8.33333 21.4027 10.1111 19.7083 11.5833C18.0139 13.0556 17.1667 14.25 17.1667 15.1667V15.8333H17.8333C18.7778 15.8333 19.9722 14.9861 21.4166 13.2917C22.8333 11.5972 24.611 10.75 26.7501 10.75C27.8056 10.75 28.7638 11.0139 29.625 11.5417C30.5139 12.0417 31.2083 12.7222 31.7083 13.5833C32.2362 14.4444 32.5 15.4167 32.5 16.5C32.5 17.5555 32.2362 18.5278 31.7083 19.4166C31.2083 20.2778 30.5139 20.9722 29.625 21.5C28.7638 22 27.8056 22.2499 26.7501 22.2499C25.4445 22.2499 24.3195 21.9306 23.375 21.2917C22.4584 20.6528 21.4306 19.7222 20.2917 18.5C19.4306 17.5555 18.611 17.0834 17.8333 17.0834H17.1667V17.8333C17.1667 18.8611 18.0139 20.0555 19.7083 21.4166C21.4027 22.7778 22.2499 24.5555 22.2499 26.7499C22.2499 27.8056 21.9861 28.7778 21.4584 29.6667C20.9584 30.5278 20.2778 31.2083 19.4166 31.7083C18.5555 32.2362 17.5834 32.5 16.5 32.5Z" fill="#080809"/>
</g>
<defs>
<clipPath id="clip0_1287_12722">
<rect width="32" height="32" fill="white" transform="translate(0.5 0.5)"/>
</clipPath>
</defs>
</svg>
