<svg width="81" height="81" viewBox="0 0 81 81" fill="none" xmlns="http://www.w3.org/2000/svg" xmlns:xlink="http://www.w3.org/1999/xlink">
<mask id="mask0_1287_13093" style="mask-type:alpha" maskUnits="userSpaceOnUse" x="0" y="0" width="81" height="81">
<circle cx="40.0518" cy="40.2024" r="40" fill="#D9D9D9"/>
</mask>
<g mask="url(#mask0_1287_13093)">
<g opacity="0.2" filter="url(#filter0_bdii_1287_13093)">
<circle cx="40.0518" cy="40.2024" r="40" fill="url(#paint0_radial_1287_13093)" fill-opacity="0.5" shape-rendering="crispEdges"/>
<circle cx="40.0518" cy="40.2024" r="39.5" stroke="url(#paint1_linear_1287_13093)" style="mix-blend-mode:overlay" shape-rendering="crispEdges"/>
</g>
<!-- Enlarged and centered clock icon -->
<g transform="translate(20, 20) scale(1.7)">
  <path d="M13.919 3.036V1.3h.632V0H9.377v1.3h.631v1.749a10.572 10.572 0 0 0-8.575 10.384C1.433 19.275 6.17 24 12 24c5.842 0 10.567-4.737 10.567-10.567 0-5.186-3.729-9.486-8.648-10.397zm-1.628 15.826v-.607h-.619v.607c-2.757-.158-4.955-2.38-5.101-5.137h.607v-.62h-.607a5.436 5.436 0 0 1 5.101-5.089v.607h.62v-.607a5.435 5.435 0 0 1 5.137 5.114h-.607v.619h.607a5.444 5.444 0 0 1-5.138 5.113zm2.26-7.712-.39-.389-1.979 1.725a.912.912 0 0 0-.316-.06.986.986 0 0 0-.971.995c0 .547.437.996.971.996.535 0 .972-.45.972-.996a.839.839 0 0 0-.049-.304z" fill="#FF0000"/>
</g>
</g>
<defs>
<filter id="filter0_bdii_1287_13093" x="-33.9482" y="-33.7976" width="148" height="148" filterUnits="userSpaceOnUse" color-interpolation-filters="sRGB">
<feFlood flood-opacity="0" result="BackgroundImageFix"/>
<feGaussianBlur in="BackgroundImageFix" stdDeviation="17"/>
<feComposite in2="SourceAlpha" operator="in" result="effect1_backgroundBlur_1287_13093"/>
<feColorMatrix in="SourceAlpha" type="matrix" values="0 0 0 0 0 0 0 0 0 0 0 0 0 0 0 0 0 0 127 0" result="hardAlpha"/>
<feOffset dy="10"/>
<feGaussianBlur stdDeviation="5"/>
<feComposite in2="hardAlpha" operator="out"/>
<feColorMatrix type="matrix" values="0 0 0 0 0 0 0 0 0 0 0 0 0 0 0 0 0 0 0.1 0"/>
<feBlend mode="normal" in2="effect1_backgroundBlur_1287_13093" result="effect2_dropShadow_1287_13093"/>
<feBlend mode="normal" in="SourceGraphic" in2="effect2_dropShadow_1287_13093" result="shape"/>
<feColorMatrix in="SourceAlpha" type="matrix" values="0 0 0 0 0 0 0 0 0 0 0 0 0 0 0 0 0 0 127 0" result="hardAlpha"/>
<feOffset/>
<feGaussianBlur stdDeviation="5"/>
<feComposite in2="hardAlpha" operator="arithmetic" k2="-1" k3="1"/>
<feColorMatrix type="matrix" values="0 0 0 0 0.943597 0 0 0 0 0.923779 0 0 0 0 1 0 0 0 1 0"/>
<feBlend mode="overlay" in2="shape" result="effect3_innerShadow_1287_13093"/>
<feColorMatrix in="SourceAlpha" type="matrix" values="0 0 0 0 0 0 0 0 0 0 0 0 0 0 0 0 0 0 127 0" result="hardAlpha"/>
<feOffset dy="-1"/>
<feGaussianBlur stdDeviation="10"/>
<feComposite in2="hardAlpha" operator="arithmetic" k2="-1" k3="1"/>
<feColorMatrix type="matrix" values="0 0 0 0 0.92995 0 0 0 0 0.905339 0 0 0 0 1 0 0 0 1 0"/>
<feBlend mode="overlay" in2="effect3_innerShadow_1287_13093" result="effect4_innerShadow_1287_13093"/>
</filter>
<radialGradient id="paint0_radial_1287_13093" cx="0" cy="0" r="1" gradientUnits="userSpaceOnUse" gradientTransform="translate(80.0518 107.261) rotate(-131.312) scale(142.532 52.635)">
<stop stop-color="white" stop-opacity="0"/>
<stop offset="1" stop-color="white"/>
</radialGradient>
<linearGradient id="paint1_linear_1287_13093" x1="26.6013" y1="55.6917" x2="61.4194" y2="2.70834" gradientUnits="userSpaceOnUse">
<stop stop-color="white" stop-opacity="0.5"/>
<stop offset="1" stop-color="white" stop-opacity="0.5"/>
</linearGradient>
</defs>
</svg>
