<svg width="24" height="24" viewBox="0 0 24 24" fill="none" xmlns="http://www.w3.org/2000/svg">
<g clip-path="url(#clip0_1287_5570)">
<path d="M12 24C11.2083 24 10.4792 23.8021 9.8125 23.4062C9.16667 23.0312 8.64583 22.5209 8.25 21.875C7.875 21.2083 7.6875 20.4792 7.6875 19.6874C7.6875 18.6875 7.91666 17.8542 8.375 17.1875C8.83333 16.5209 9.54167 15.7396 10.5 14.8438C11.2083 14.1979 11.5625 13.5833 11.5625 13V12.4375H11C10.3542 12.4375 9.46874 13.0834 8.34374 14.375C7.23959 15.6667 5.89583 16.3124 4.3125 16.3124C3.52084 16.3124 2.79167 16.125 2.125 15.75C1.47917 15.3541 0.958333 14.8333 0.5625 14.1875C0.1875 13.5209 0 12.7916 0 12C0 11.2083 0.1875 10.4896 0.5625 9.84374C0.958333 9.17708 1.47917 8.65625 2.125 8.28125C2.79167 7.88542 3.52084 7.6875 4.3125 7.6875C5.875 7.6875 7.20833 8.32291 8.3125 9.59375C9.41666 10.8646 10.3125 11.5 11 11.5H11.5625V11C11.5625 10.4167 11.2083 9.80208 10.5 9.15625L9.78125 8.5C9.26041 8.02084 8.78125 7.44792 8.34374 6.78125C7.90625 6.09374 7.6875 5.27083 7.6875 4.3125C7.6875 3.52084 7.875 2.80208 8.25 2.15626C8.64583 1.48958 9.16667 0.96875 9.8125 0.593749C10.4792 0.197916 11.2083 0 12 0C12.7916 0 13.5104 0.197916 14.1563 0.593749C14.8229 0.989582 15.3438 1.51042 15.7188 2.15626C16.1146 2.80208 16.3124 3.52084 16.3124 4.3125C16.3124 5.875 15.677 7.20833 14.4062 8.3125C13.1354 9.41666 12.5 10.3125 12.5 11V11.5H13C13.7083 11.5 14.6041 10.8646 15.6875 9.59375C16.75 8.32291 18.0833 7.6875 19.6876 7.6875C20.4792 7.6875 21.1979 7.88542 21.8437 8.28125C22.5104 8.65625 23.0312 9.16667 23.4062 9.8125C23.8021 10.4583 24 11.1875 24 12C24 12.7916 23.8021 13.5209 23.4062 14.1875C23.0312 14.8333 22.5104 15.3541 21.8437 15.75C21.1979 16.125 20.4792 16.3124 19.6876 16.3124C18.7084 16.3124 17.8646 16.0729 17.1563 15.5938C16.4688 15.1146 15.6979 14.4167 14.8438 13.5C14.1979 12.7916 13.5833 12.4375 13 12.4375H12.5V13C12.5 13.7708 13.1354 14.6666 14.4062 15.6875C15.677 16.7083 16.3124 18.0416 16.3124 19.6874C16.3124 20.4792 16.1146 21.2083 15.7188 21.875C15.3438 22.5209 14.8333 23.0312 14.1875 23.4062C13.5416 23.8021 12.8125 24 12 24Z" fill="#E4B08A"/>
</g>
<defs>
<clipPath id="clip0_1287_5570">
<rect width="24" height="24" fill="white"/>
</clipPath>
</defs>
</svg>
