<svg width="20" height="20" viewBox="0 0 20 20" fill="none" xmlns="http://www.w3.org/2000/svg">
<g clip-path="url(#clip0_47_2072)">
<path d="M0 10C0 4.47715 4.47715 0 10 0C15.5228 0 20 4.47715 20 10C20 15.5228 15.5228 20 10 20C4.47715 20 0 15.5228 0 10Z" fill="url(#paint0_radial_47_2072)" fill-opacity="0.1"/>
<path style="mix-blend-mode:overlay" d="M10.0002 19.6666C4.66141 19.6666 0.333496 15.3387 0.333496 9.99992C0.333496 4.66117 4.66141 0.333252 10.0002 0.333252C15.339 0.333252 19.6669 4.66117 19.6669 9.99992C19.6669 15.3387 15.339 19.6666 10.0002 19.6666Z" stroke="url(#paint1_linear_47_2072)" stroke-width="0.666667"/>
</g>
<defs>
<radialGradient id="paint0_radial_47_2072" cx="0" cy="0" r="1" gradientUnits="userSpaceOnUse" gradientTransform="translate(20 26.7647) rotate(-131.312) scale(35.6331 13.1587)">
<stop stop-color="white" stop-opacity="0"/>
<stop offset="1" stop-color="white"/>
</radialGradient>
<linearGradient id="paint1_linear_47_2072" x1="0.00016295" y1="9.99992" x2="17.5279" y2="3.41712" gradientUnits="userSpaceOnUse">
<stop stop-color="white"/>
<stop offset="0.5" stop-color="white" stop-opacity="0"/>
<stop offset="1" stop-color="white"/>
</linearGradient>
<clipPath id="clip0_47_2072">
<rect width="20" height="20" fill="white"/>
</clipPath>
</defs>
</svg>
