<svg width="80" height="81" viewBox="0 0 80 81" fill="none" xmlns="http://www.w3.org/2000/svg">
<path fill-rule="evenodd" clip-rule="evenodd" d="M63.1592 40.0083C63.1592 52.7989 52.7904 63.1678 39.9998 63.1678C35.125 63.1678 30.6021 61.6617 26.8708 59.0895L20.0897 65.8705C32.8882 75.7478 51.3377 74.8187 63.073 63.0834C71.8776 54.2788 74.5994 41.6948 71.2384 30.5536C70.6971 28.7593 71.3498 26.7687 72.9729 25.8316C74.8913 24.724 77.3621 25.5201 78.0471 27.6268C79.3148 31.5253 80 35.6866 80 40.0079C80 51.0517 75.5247 61.0501 68.2888 68.2888C68.2322 68.3453 68.1755 68.4017 68.1186 68.4579C60.893 75.6006 50.9602 80.0106 39.9974 80.0106C35.2024 80.0106 30.6046 79.1669 26.3441 77.62C25.6811 77.3505 25.0158 77.0885 24.3484 76.8338C24.2331 76.7898 24.1177 76.746 24.0023 76.7025C20.3125 75.3103 16.5568 74.144 12.7567 73.2035C10.8768 72.7383 8.98596 72.3283 7.08687 71.9736C5.32146 71.6439 4.59772 69.4526 5.86764 68.1827L20.9163 53.134C18.3455 49.4033 16.8403 44.8816 16.8403 40.0083C16.8403 27.2177 27.2092 16.8489 39.9998 16.8489C44.873 16.8489 49.3948 18.3541 53.1254 20.9249L59.9052 14.1451C47.1068 4.2679 28.6573 5.19695 16.9219 16.9323C8.11664 25.7376 5.39511 38.3228 8.75734 49.4647C9.29829 51.2573 8.64611 53.2462 7.02451 54.1825C5.10778 55.2891 2.63931 54.4937 1.9546 52.389C0.685821 48.489 1.24159e-07 44.3259 0 40.0026C-3.49152e-07 28.9468 4.48511 18.9385 11.7351 11.6979C18.9727 4.46979 28.9657 1.7799e-06 40.0026 0C44.7976 -5.11395e-07 49.3954 0.843625 53.6559 2.39054C54.3189 2.66002 54.9842 2.92209 55.6516 3.17675C55.7669 3.22074 55.8823 3.26452 55.9977 3.30807C59.6875 4.70023 63.4432 5.86655 67.2433 6.80701C69.1232 7.27227 71.014 7.68225 72.9131 8.03695C74.6785 8.36669 75.4023 10.558 74.1324 11.8279L59.0809 26.8794C61.6531 30.6107 63.1592 35.1336 63.1592 40.0083ZM39.5843 55.7979C48.3051 55.7979 55.3748 48.7283 55.3748 40.0074C55.3748 37.2849 54.6858 34.7234 53.4727 32.4876L32.0644 53.8958C34.3002 55.1089 36.8618 55.7979 39.5843 55.7979ZM39.5843 24.2169C30.8634 24.2169 23.7937 31.2865 23.7937 40.0074C23.7937 42.9466 24.5968 45.6982 25.9954 48.0549L47.6317 26.4186C45.2751 25.0199 42.5235 24.2169 39.5843 24.2169Z" fill="white"/>
</svg>
