<svg width="384" height="319" viewBox="0 0 384 319" fill="none" xmlns="http://www.w3.org/2000/svg">
<mask id="mask0_1451_1554" style="mask-type:alpha" maskUnits="userSpaceOnUse" x="26" y="-18" width="332" height="333">
<rect x="26" y="-17.3179" width="332" height="332" fill="url(#paint0_radial_1451_1554)"/>
</mask>
<g mask="url(#mask0_1451_1554)">
<g clip-path="url(#clip0_1451_1554)">
<rect opacity="0.1" x="22.5" y="-16.8179" width="63" height="63" rx="15.5" stroke="#F8F8F8"/>
<rect opacity="0.3" x="90.5" y="-16.8179" width="199" height="63" rx="15.5" stroke="#F8F8F8"/>
<rect opacity="0.1" x="294.5" y="-16.8179" width="63" height="63" rx="15.5" stroke="#F8F8F8"/>
<rect opacity="0.3" x="-45.5" y="51.1821" width="131" height="63" rx="15.5" stroke="#F8F8F8"/>
<g opacity="0.5" filter="url(#filter0_dii_1451_1554)">
<rect x="34" y="62" width="40" height="40" rx="20" fill="#010101"/>
<rect x="34" y="62" width="40" height="40" rx="20" fill="url(#paint1_radial_1451_1554)" fill-opacity="0.5"/>
<rect x="34.5" y="62.5" width="39" height="39" rx="19.5" stroke="url(#paint2_linear_1451_1554)" style="mix-blend-mode:overlay"/>
</g>
<g opacity="0.5" filter="url(#filter1_dii_1451_1554)">
<rect x="41" y="69" width="26" height="26" rx="13" fill="#010101"/>
<rect x="41" y="69" width="26" height="26" rx="13" fill="url(#paint3_radial_1451_1554)" fill-opacity="0.5"/>
<rect x="41.5" y="69.5" width="25" height="25" rx="12.5" stroke="url(#paint4_linear_1451_1554)" style="mix-blend-mode:overlay"/>
</g>
<rect opacity="0.3" x="-45.5" y="119.182" width="131" height="63" rx="15.5" stroke="#F8F8F8"/>
<g opacity="0.2" filter="url(#filter2_dii_1451_1554)">
<rect x="34" y="130" width="40" height="40" rx="20" fill="#010101"/>
<rect x="34" y="130" width="40" height="40" rx="20" fill="url(#paint5_radial_1451_1554)" fill-opacity="0.5"/>
<rect x="34.5" y="130.5" width="39" height="39" rx="19.5" stroke="url(#paint6_linear_1451_1554)" style="mix-blend-mode:overlay"/>
</g>
<g opacity="0.5" filter="url(#filter3_dii_1451_1554)">
<rect x="41" y="137" width="26" height="26" rx="13" fill="#010101"/>
<rect x="41" y="137" width="26" height="26" rx="13" fill="url(#paint7_radial_1451_1554)" fill-opacity="0.5"/>
<rect x="41.5" y="137.5" width="25" height="25" rx="12.5" stroke="url(#paint8_linear_1451_1554)" style="mix-blend-mode:overlay"/>
</g>
<rect opacity="0.3" x="-45.5" y="187.182" width="131" height="63" rx="15.5" stroke="#F8F8F8"/>
<g opacity="0.5" filter="url(#filter4_dii_1451_1554)">
<rect x="34" y="198" width="40" height="40" rx="20" fill="#010101"/>
<rect x="34" y="198" width="40" height="40" rx="20" fill="url(#paint9_radial_1451_1554)" fill-opacity="0.5"/>
<rect x="34.5" y="198.5" width="39" height="39" rx="19.5" stroke="url(#paint10_linear_1451_1554)" style="mix-blend-mode:overlay"/>
</g>
<g opacity="0.5" filter="url(#filter5_dii_1451_1554)">
<rect x="41" y="205" width="26" height="26" rx="13" fill="#010101"/>
<rect x="41" y="205" width="26" height="26" rx="13" fill="url(#paint11_radial_1451_1554)" fill-opacity="0.5"/>
<rect x="41.5" y="205.5" width="25" height="25" rx="12.5" stroke="url(#paint12_linear_1451_1554)" style="mix-blend-mode:overlay"/>
</g>
<g clip-path="url(#clip1_1451_1554)">
<mask id="mask1_1451_1554" style="mask-type:alpha" maskUnits="userSpaceOnUse" x="139" y="47" width="207" height="208">
<path d="M242.5 254.682C299.661 254.682 346 208.344 346 151.182C346 94.0207 299.661 47.6821 242.5 47.6821C185.339 47.6821 139 94.0207 139 151.182C139 208.344 185.339 254.682 242.5 254.682Z" fill="#D9D9D9"/>
</mask>
<g mask="url(#mask1_1451_1554)">
<path opacity="0.3" d="M310 51.9321H342C350.146 51.9321 356.75 58.5359 356.75 66.6821V98.6821C356.75 106.828 350.146 113.432 342 113.432H310C301.854 113.432 295.25 106.828 295.25 98.6821V66.6821C295.25 58.5359 301.854 51.9321 310 51.9321Z" stroke="#F8F8F8"/>
<g opacity="0.5" filter="url(#filter6_dii_1451_1554)">
<rect x="306" y="63" width="40" height="40" rx="20" fill="#010101"/>
<rect x="306" y="63" width="40" height="40" rx="20" fill="url(#paint13_radial_1451_1554)" fill-opacity="0.5"/>
<rect x="306.5" y="63.5" width="39" height="39" rx="19.5" stroke="url(#paint14_linear_1451_1554)" style="mix-blend-mode:overlay"/>
</g>
<g opacity="0.5" filter="url(#filter7_dii_1451_1554)">
<rect x="313" y="70" width="26" height="26" rx="13" fill="#010101"/>
<rect x="313" y="70" width="26" height="26" rx="13" fill="url(#paint15_radial_1451_1554)" fill-opacity="0.5"/>
<rect x="313.5" y="70.5" width="25" height="25" rx="12.5" stroke="url(#paint16_linear_1451_1554)" style="mix-blend-mode:overlay"/>
</g>
<path opacity="0.3" d="M310 187.932H342C350.146 187.932 356.75 194.536 356.75 202.682V234.682C356.75 242.828 350.146 249.432 342 249.432H310C301.854 249.432 295.25 242.828 295.25 234.682V202.682C295.25 194.536 301.854 187.932 310 187.932Z" stroke="#F8F8F8"/>
<g opacity="0.5" filter="url(#filter8_dii_1451_1554)">
<rect x="306" y="199" width="40" height="40" rx="20" fill="#010101"/>
<rect x="306" y="199" width="40" height="40" rx="20" fill="url(#paint17_radial_1451_1554)" fill-opacity="0.5"/>
<rect x="306.5" y="199.5" width="39" height="39" rx="19.5" stroke="url(#paint18_linear_1451_1554)" style="mix-blend-mode:overlay"/>
</g>
<g opacity="0.5" filter="url(#filter9_dii_1451_1554)">
<rect x="313" y="206" width="26" height="26" rx="13" fill="#010101"/>
<rect x="313" y="206" width="26" height="26" rx="13" fill="url(#paint19_radial_1451_1554)" fill-opacity="0.5"/>
<rect x="313.5" y="206.5" width="25" height="25" rx="12.5" stroke="url(#paint20_linear_1451_1554)" style="mix-blend-mode:overlay"/>
</g>
<path opacity="0.3" d="M310 119.932H342C350.146 119.932 356.75 126.536 356.75 134.682V166.682C356.75 174.828 350.146 181.432 342 181.432H310C301.854 181.432 295.25 174.828 295.25 166.682V134.682C295.25 126.536 301.854 119.932 310 119.932Z" stroke="#F8F8F8"/>
<g opacity="0.2" filter="url(#filter10_dii_1451_1554)">
<rect x="306" y="131" width="40" height="40" rx="20" fill="#010101"/>
<rect x="306" y="131" width="40" height="40" rx="20" fill="url(#paint21_radial_1451_1554)" fill-opacity="0.5"/>
<rect x="306.5" y="131.5" width="39" height="39" rx="19.5" stroke="url(#paint22_linear_1451_1554)" style="mix-blend-mode:overlay"/>
</g>
<g opacity="0.5" filter="url(#filter11_dii_1451_1554)">
<rect x="313" y="138" width="26" height="26" rx="13" fill="#010101"/>
<rect x="313" y="138" width="26" height="26" rx="13" fill="url(#paint23_radial_1451_1554)" fill-opacity="0.5"/>
<rect x="313.5" y="138.5" width="25" height="25" rx="12.5" stroke="url(#paint24_linear_1451_1554)" style="mix-blend-mode:overlay"/>
</g>
</g>
</g>
<rect opacity="0.1" x="22.5" y="255.182" width="63" height="63" rx="15.5" stroke="#F8F8F8"/>
<rect opacity="0.3" x="90.5" y="255.182" width="199" height="63" rx="15.5" stroke="#F8F8F8"/>
<rect opacity="0.1" x="294.5" y="255.182" width="63" height="63" rx="15.5" stroke="#F8F8F8"/>
<g opacity="0.44">
<path d="M119.392 93.5163L119.859 93.3375L137.67 139.848L137.203 140.027L119.392 93.5163ZM153.058 150.432H156.5V150.932H153.058V150.432ZM152.058 150.924C145.694 150.73 140.026 146.831 137.568 140.958L138.035 140.779C140.419 146.459 145.901 150.23 152.058 150.424V150.924ZM105.005 82.4398C111.368 82.6345 117.036 86.5334 119.494 92.4064L119.027 92.5853C116.643 86.9056 111.161 83.1344 105.005 82.94V82.4398ZM104.005 82.9321H93.5V82.4321H104.005V82.9321Z" fill="#9667ED" stroke="#9667ED"/>
<path d="M104.891 220.424C111.102 220.228 116.622 216.392 118.971 210.639L119.44 210.814C117.018 216.762 111.311 220.728 104.891 220.924V220.424ZM119.796 209.879L119.327 209.705L137.266 161.485L137.735 161.659L119.796 209.879ZM138.091 160.725L137.622 160.55C140.045 154.602 145.751 150.636 152.171 150.44V150.94C145.96 151.136 140.44 154.972 138.091 160.725ZM153.171 150.432H156.5V150.932H153.171V150.432ZM103.891 220.432V220.932H93.5V220.432H103.891Z" fill="#9667ED" stroke="#9667ED"/>
<path d="M93 151H157H93Z" fill="#9667ED"/>
<path d="M93 151H157" stroke="#9667ED" stroke-width="1.5" stroke-linecap="round"/>
</g>
<g opacity="0.44">
<path d="M290 221.432C290.414 221.432 290.75 221.096 290.75 220.682C290.75 220.268 290.414 219.932 290 219.932V221.432ZM290 219.932H278.609V221.432H290V219.932ZM264.316 209.999L246.028 160.842L244.622 161.365L262.91 210.522L264.316 209.999ZM230.329 149.932H226V151.432H230.329V149.932ZM246.028 160.842C243.588 154.283 237.327 149.932 230.329 149.932V151.432C236.701 151.432 242.401 155.393 244.622 161.365L246.028 160.842ZM278.609 219.932C272.237 219.932 266.537 215.971 264.316 209.999L262.91 210.522C265.35 217.081 271.611 221.432 278.609 221.432V219.932Z" fill="#9667ED"/>
<path d="M290 81.9321C290.414 81.9321 290.75 82.2679 290.75 82.6821C290.75 83.0963 290.414 83.4321 290 83.4321V81.9321ZM290 83.4321H278.495V81.9321H290V83.4321ZM264.254 93.2282L246.085 140.673L244.684 140.136L262.853 92.6917L264.254 93.2282ZM230.443 151.432H226V149.932H230.443V151.432ZM246.085 140.673C243.603 147.153 237.382 151.432 230.443 151.432V149.932C236.761 149.932 242.424 146.036 244.684 140.136L246.085 140.673ZM278.495 83.4321C272.177 83.4321 266.514 87.328 264.254 93.2282L262.853 92.6917C265.335 86.2112 271.556 81.9321 278.495 81.9321V83.4321Z" fill="#9667ED"/>
<path d="M287 151L226 151" stroke="#9667ED" stroke-width="1.5" stroke-linecap="round"/>
</g>
</g>
</g>
<g opacity="0.5">
<rect x="22" y="-21.3179" width="340" height="340" rx="170" fill="url(#paint25_radial_1451_1554)"/>
</g>
<g filter="url(#filter12_d_1451_1554)">
<g clip-path="url(#clip2_1451_1554)">
<rect x="156.806" y="114.488" width="70.3875" height="70.3875" rx="35.1937" fill="white" fill-opacity="0.01" shape-rendering="crispEdges"/>
<g clip-path="url(#clip3_1451_1554)">
<mask id="mask2_1451_1554" style="mask-type:luminance" maskUnits="userSpaceOnUse" x="156" y="114" width="72" height="71">
<path d="M227.194 149.683C227.194 130.246 211.437 114.489 192 114.489C172.563 114.489 156.806 130.246 156.806 149.683C156.806 169.12 172.563 184.876 192 184.876C211.437 184.876 227.194 169.12 227.194 149.683Z" fill="white"/>
</mask>
<g mask="url(#mask2_1451_1554)">
<g filter="url(#filter13_b_1451_1554)">
<path d="M222.501 149.683C222.501 132.837 208.845 119.182 192 119.182C175.154 119.182 161.499 132.837 161.499 149.683C161.499 166.528 175.154 180.184 192 180.184C208.845 180.184 222.501 166.528 222.501 149.683Z" fill="#F8F8F8" fill-opacity="0.01"/>
</g>
<path d="M222.501 149.683C222.501 132.837 208.845 119.182 192 119.182C175.154 119.182 161.499 132.837 161.499 149.683C161.499 166.528 175.154 180.184 192 180.184C208.845 180.184 222.501 166.528 222.501 149.683Z" fill="white" fill-opacity="0.1"/>
<path fill-rule="evenodd" clip-rule="evenodd" d="M200.963 149.684C200.963 154.635 196.95 158.648 192 158.648C190.113 158.648 188.362 158.065 186.918 157.069L184.293 159.694C189.247 163.517 196.388 163.157 200.93 158.615C204.338 155.207 205.391 150.337 204.09 146.025C203.881 145.33 204.133 144.56 204.762 144.197C205.504 143.768 206.46 144.076 206.726 144.892C207.216 146.401 207.481 148.011 207.481 149.684C207.481 153.958 205.749 157.828 202.949 160.63C202.927 160.652 202.905 160.674 202.883 160.695C200.086 163.46 196.242 165.167 191.999 165.167C190.143 165.167 188.363 164.84 186.714 164.241C186.458 164.137 186.2 164.036 185.942 163.937C185.897 163.92 185.852 163.903 185.808 163.886C184.38 163.348 182.926 162.896 181.455 162.532C180.728 162.352 179.996 162.193 179.261 162.056C178.577 161.928 178.297 161.08 178.789 160.589L184.613 154.764C183.618 153.32 183.036 151.57 183.036 149.684C183.036 144.733 187.049 140.72 192 140.72C193.886 140.72 195.636 141.303 197.08 142.298L199.704 139.674C194.75 135.851 187.609 136.21 183.067 140.753C179.659 144.161 178.606 149.032 179.907 153.344C180.117 154.038 179.864 154.808 179.237 155.17C178.495 155.598 177.539 155.291 177.274 154.476C176.783 152.966 176.518 151.355 176.518 149.682C176.518 145.403 178.254 141.529 181.06 138.727C183.861 135.929 187.729 134.199 192.001 134.199C193.857 134.199 195.636 134.525 197.285 135.124C197.542 135.229 197.799 135.33 198.058 135.429C198.102 135.446 198.147 135.462 198.191 135.479C199.62 136.018 201.073 136.47 202.544 136.834C203.272 137.014 204.003 137.172 204.739 137.31C205.422 137.437 205.702 138.285 205.21 138.777L199.385 144.603C200.38 146.047 200.963 147.797 200.963 149.684ZM191.839 155.795C195.214 155.795 197.95 153.059 197.95 149.684C197.95 148.63 197.684 147.639 197.214 146.773L188.928 155.059C189.794 155.529 190.785 155.795 191.839 155.795ZM191.839 143.572C188.463 143.572 185.727 146.308 185.727 149.684C185.727 150.821 186.038 151.886 186.579 152.798L194.953 144.424C194.041 143.883 192.976 143.572 191.839 143.572Z" fill="url(#paint26_linear_1451_1554)"/>
</g>
<path d="M226.314 149.683C226.314 130.732 210.951 115.369 192 115.369C173.049 115.369 157.686 130.732 157.686 149.683C157.686 168.634 173.049 183.997 192 183.997C210.951 183.997 226.314 168.634 226.314 149.683Z" stroke="url(#paint27_linear_1451_1554)" stroke-width="1.75969"/>
</g>
</g>
</g>
<defs>
<filter id="filter0_dii_1451_1554" x="24" y="61" width="60" height="61" filterUnits="userSpaceOnUse" color-interpolation-filters="sRGB">
<feFlood flood-opacity="0" result="BackgroundImageFix"/>
<feColorMatrix in="SourceAlpha" type="matrix" values="0 0 0 0 0 0 0 0 0 0 0 0 0 0 0 0 0 0 127 0" result="hardAlpha"/>
<feOffset dy="10"/>
<feGaussianBlur stdDeviation="5"/>
<feComposite in2="hardAlpha" operator="out"/>
<feColorMatrix type="matrix" values="0 0 0 0 0 0 0 0 0 0 0 0 0 0 0 0 0 0 0.1 0"/>
<feBlend mode="normal" in2="BackgroundImageFix" result="effect1_dropShadow_1451_1554"/>
<feBlend mode="normal" in="SourceGraphic" in2="effect1_dropShadow_1451_1554" result="shape"/>
<feColorMatrix in="SourceAlpha" type="matrix" values="0 0 0 0 0 0 0 0 0 0 0 0 0 0 0 0 0 0 127 0" result="hardAlpha"/>
<feOffset/>
<feGaussianBlur stdDeviation="5"/>
<feComposite in2="hardAlpha" operator="arithmetic" k2="-1" k3="1"/>
<feColorMatrix type="matrix" values="0 0 0 0 0.943597 0 0 0 0 0.923779 0 0 0 0 1 0 0 0 1 0"/>
<feBlend mode="overlay" in2="shape" result="effect2_innerShadow_1451_1554"/>
<feColorMatrix in="SourceAlpha" type="matrix" values="0 0 0 0 0 0 0 0 0 0 0 0 0 0 0 0 0 0 127 0" result="hardAlpha"/>
<feOffset dy="-1"/>
<feGaussianBlur stdDeviation="10"/>
<feComposite in2="hardAlpha" operator="arithmetic" k2="-1" k3="1"/>
<feColorMatrix type="matrix" values="0 0 0 0 0.92995 0 0 0 0 0.905339 0 0 0 0 1 0 0 0 1 0"/>
<feBlend mode="overlay" in2="effect2_innerShadow_1451_1554" result="effect3_innerShadow_1451_1554"/>
</filter>
<filter id="filter1_dii_1451_1554" x="31" y="68" width="46" height="47" filterUnits="userSpaceOnUse" color-interpolation-filters="sRGB">
<feFlood flood-opacity="0" result="BackgroundImageFix"/>
<feColorMatrix in="SourceAlpha" type="matrix" values="0 0 0 0 0 0 0 0 0 0 0 0 0 0 0 0 0 0 127 0" result="hardAlpha"/>
<feOffset dy="10"/>
<feGaussianBlur stdDeviation="5"/>
<feComposite in2="hardAlpha" operator="out"/>
<feColorMatrix type="matrix" values="0 0 0 0 0 0 0 0 0 0 0 0 0 0 0 0 0 0 0.1 0"/>
<feBlend mode="normal" in2="BackgroundImageFix" result="effect1_dropShadow_1451_1554"/>
<feBlend mode="normal" in="SourceGraphic" in2="effect1_dropShadow_1451_1554" result="shape"/>
<feColorMatrix in="SourceAlpha" type="matrix" values="0 0 0 0 0 0 0 0 0 0 0 0 0 0 0 0 0 0 127 0" result="hardAlpha"/>
<feOffset/>
<feGaussianBlur stdDeviation="5"/>
<feComposite in2="hardAlpha" operator="arithmetic" k2="-1" k3="1"/>
<feColorMatrix type="matrix" values="0 0 0 0 0.943597 0 0 0 0 0.923779 0 0 0 0 1 0 0 0 1 0"/>
<feBlend mode="overlay" in2="shape" result="effect2_innerShadow_1451_1554"/>
<feColorMatrix in="SourceAlpha" type="matrix" values="0 0 0 0 0 0 0 0 0 0 0 0 0 0 0 0 0 0 127 0" result="hardAlpha"/>
<feOffset dy="-1"/>
<feGaussianBlur stdDeviation="10"/>
<feComposite in2="hardAlpha" operator="arithmetic" k2="-1" k3="1"/>
<feColorMatrix type="matrix" values="0 0 0 0 0.92995 0 0 0 0 0.905339 0 0 0 0 1 0 0 0 1 0"/>
<feBlend mode="overlay" in2="effect2_innerShadow_1451_1554" result="effect3_innerShadow_1451_1554"/>
</filter>
<filter id="filter2_dii_1451_1554" x="24" y="129" width="60" height="61" filterUnits="userSpaceOnUse" color-interpolation-filters="sRGB">
<feFlood flood-opacity="0" result="BackgroundImageFix"/>
<feColorMatrix in="SourceAlpha" type="matrix" values="0 0 0 0 0 0 0 0 0 0 0 0 0 0 0 0 0 0 127 0" result="hardAlpha"/>
<feOffset dy="10"/>
<feGaussianBlur stdDeviation="5"/>
<feComposite in2="hardAlpha" operator="out"/>
<feColorMatrix type="matrix" values="0 0 0 0 0 0 0 0 0 0 0 0 0 0 0 0 0 0 0.1 0"/>
<feBlend mode="normal" in2="BackgroundImageFix" result="effect1_dropShadow_1451_1554"/>
<feBlend mode="normal" in="SourceGraphic" in2="effect1_dropShadow_1451_1554" result="shape"/>
<feColorMatrix in="SourceAlpha" type="matrix" values="0 0 0 0 0 0 0 0 0 0 0 0 0 0 0 0 0 0 127 0" result="hardAlpha"/>
<feOffset/>
<feGaussianBlur stdDeviation="5"/>
<feComposite in2="hardAlpha" operator="arithmetic" k2="-1" k3="1"/>
<feColorMatrix type="matrix" values="0 0 0 0 0.943597 0 0 0 0 0.923779 0 0 0 0 1 0 0 0 1 0"/>
<feBlend mode="overlay" in2="shape" result="effect2_innerShadow_1451_1554"/>
<feColorMatrix in="SourceAlpha" type="matrix" values="0 0 0 0 0 0 0 0 0 0 0 0 0 0 0 0 0 0 127 0" result="hardAlpha"/>
<feOffset dy="-1"/>
<feGaussianBlur stdDeviation="10"/>
<feComposite in2="hardAlpha" operator="arithmetic" k2="-1" k3="1"/>
<feColorMatrix type="matrix" values="0 0 0 0 0.92995 0 0 0 0 0.905339 0 0 0 0 1 0 0 0 1 0"/>
<feBlend mode="overlay" in2="effect2_innerShadow_1451_1554" result="effect3_innerShadow_1451_1554"/>
</filter>
<filter id="filter3_dii_1451_1554" x="31" y="136" width="46" height="47" filterUnits="userSpaceOnUse" color-interpolation-filters="sRGB">
<feFlood flood-opacity="0" result="BackgroundImageFix"/>
<feColorMatrix in="SourceAlpha" type="matrix" values="0 0 0 0 0 0 0 0 0 0 0 0 0 0 0 0 0 0 127 0" result="hardAlpha"/>
<feOffset dy="10"/>
<feGaussianBlur stdDeviation="5"/>
<feComposite in2="hardAlpha" operator="out"/>
<feColorMatrix type="matrix" values="0 0 0 0 0 0 0 0 0 0 0 0 0 0 0 0 0 0 0.1 0"/>
<feBlend mode="normal" in2="BackgroundImageFix" result="effect1_dropShadow_1451_1554"/>
<feBlend mode="normal" in="SourceGraphic" in2="effect1_dropShadow_1451_1554" result="shape"/>
<feColorMatrix in="SourceAlpha" type="matrix" values="0 0 0 0 0 0 0 0 0 0 0 0 0 0 0 0 0 0 127 0" result="hardAlpha"/>
<feOffset/>
<feGaussianBlur stdDeviation="5"/>
<feComposite in2="hardAlpha" operator="arithmetic" k2="-1" k3="1"/>
<feColorMatrix type="matrix" values="0 0 0 0 0.943597 0 0 0 0 0.923779 0 0 0 0 1 0 0 0 1 0"/>
<feBlend mode="overlay" in2="shape" result="effect2_innerShadow_1451_1554"/>
<feColorMatrix in="SourceAlpha" type="matrix" values="0 0 0 0 0 0 0 0 0 0 0 0 0 0 0 0 0 0 127 0" result="hardAlpha"/>
<feOffset dy="-1"/>
<feGaussianBlur stdDeviation="10"/>
<feComposite in2="hardAlpha" operator="arithmetic" k2="-1" k3="1"/>
<feColorMatrix type="matrix" values="0 0 0 0 0.92995 0 0 0 0 0.905339 0 0 0 0 1 0 0 0 1 0"/>
<feBlend mode="overlay" in2="effect2_innerShadow_1451_1554" result="effect3_innerShadow_1451_1554"/>
</filter>
<filter id="filter4_dii_1451_1554" x="24" y="197" width="60" height="61" filterUnits="userSpaceOnUse" color-interpolation-filters="sRGB">
<feFlood flood-opacity="0" result="BackgroundImageFix"/>
<feColorMatrix in="SourceAlpha" type="matrix" values="0 0 0 0 0 0 0 0 0 0 0 0 0 0 0 0 0 0 127 0" result="hardAlpha"/>
<feOffset dy="10"/>
<feGaussianBlur stdDeviation="5"/>
<feComposite in2="hardAlpha" operator="out"/>
<feColorMatrix type="matrix" values="0 0 0 0 0 0 0 0 0 0 0 0 0 0 0 0 0 0 0.1 0"/>
<feBlend mode="normal" in2="BackgroundImageFix" result="effect1_dropShadow_1451_1554"/>
<feBlend mode="normal" in="SourceGraphic" in2="effect1_dropShadow_1451_1554" result="shape"/>
<feColorMatrix in="SourceAlpha" type="matrix" values="0 0 0 0 0 0 0 0 0 0 0 0 0 0 0 0 0 0 127 0" result="hardAlpha"/>
<feOffset/>
<feGaussianBlur stdDeviation="5"/>
<feComposite in2="hardAlpha" operator="arithmetic" k2="-1" k3="1"/>
<feColorMatrix type="matrix" values="0 0 0 0 0.943597 0 0 0 0 0.923779 0 0 0 0 1 0 0 0 1 0"/>
<feBlend mode="overlay" in2="shape" result="effect2_innerShadow_1451_1554"/>
<feColorMatrix in="SourceAlpha" type="matrix" values="0 0 0 0 0 0 0 0 0 0 0 0 0 0 0 0 0 0 127 0" result="hardAlpha"/>
<feOffset dy="-1"/>
<feGaussianBlur stdDeviation="10"/>
<feComposite in2="hardAlpha" operator="arithmetic" k2="-1" k3="1"/>
<feColorMatrix type="matrix" values="0 0 0 0 0.92995 0 0 0 0 0.905339 0 0 0 0 1 0 0 0 1 0"/>
<feBlend mode="overlay" in2="effect2_innerShadow_1451_1554" result="effect3_innerShadow_1451_1554"/>
</filter>
<filter id="filter5_dii_1451_1554" x="31" y="204" width="46" height="47" filterUnits="userSpaceOnUse" color-interpolation-filters="sRGB">
<feFlood flood-opacity="0" result="BackgroundImageFix"/>
<feColorMatrix in="SourceAlpha" type="matrix" values="0 0 0 0 0 0 0 0 0 0 0 0 0 0 0 0 0 0 127 0" result="hardAlpha"/>
<feOffset dy="10"/>
<feGaussianBlur stdDeviation="5"/>
<feComposite in2="hardAlpha" operator="out"/>
<feColorMatrix type="matrix" values="0 0 0 0 0 0 0 0 0 0 0 0 0 0 0 0 0 0 0.1 0"/>
<feBlend mode="normal" in2="BackgroundImageFix" result="effect1_dropShadow_1451_1554"/>
<feBlend mode="normal" in="SourceGraphic" in2="effect1_dropShadow_1451_1554" result="shape"/>
<feColorMatrix in="SourceAlpha" type="matrix" values="0 0 0 0 0 0 0 0 0 0 0 0 0 0 0 0 0 0 127 0" result="hardAlpha"/>
<feOffset/>
<feGaussianBlur stdDeviation="5"/>
<feComposite in2="hardAlpha" operator="arithmetic" k2="-1" k3="1"/>
<feColorMatrix type="matrix" values="0 0 0 0 0.943597 0 0 0 0 0.923779 0 0 0 0 1 0 0 0 1 0"/>
<feBlend mode="overlay" in2="shape" result="effect2_innerShadow_1451_1554"/>
<feColorMatrix in="SourceAlpha" type="matrix" values="0 0 0 0 0 0 0 0 0 0 0 0 0 0 0 0 0 0 127 0" result="hardAlpha"/>
<feOffset dy="-1"/>
<feGaussianBlur stdDeviation="10"/>
<feComposite in2="hardAlpha" operator="arithmetic" k2="-1" k3="1"/>
<feColorMatrix type="matrix" values="0 0 0 0 0.92995 0 0 0 0 0.905339 0 0 0 0 1 0 0 0 1 0"/>
<feBlend mode="overlay" in2="effect2_innerShadow_1451_1554" result="effect3_innerShadow_1451_1554"/>
</filter>
<filter id="filter6_dii_1451_1554" x="296" y="62" width="60" height="61" filterUnits="userSpaceOnUse" color-interpolation-filters="sRGB">
<feFlood flood-opacity="0" result="BackgroundImageFix"/>
<feColorMatrix in="SourceAlpha" type="matrix" values="0 0 0 0 0 0 0 0 0 0 0 0 0 0 0 0 0 0 127 0" result="hardAlpha"/>
<feOffset dy="10"/>
<feGaussianBlur stdDeviation="5"/>
<feComposite in2="hardAlpha" operator="out"/>
<feColorMatrix type="matrix" values="0 0 0 0 0 0 0 0 0 0 0 0 0 0 0 0 0 0 0.1 0"/>
<feBlend mode="normal" in2="BackgroundImageFix" result="effect1_dropShadow_1451_1554"/>
<feBlend mode="normal" in="SourceGraphic" in2="effect1_dropShadow_1451_1554" result="shape"/>
<feColorMatrix in="SourceAlpha" type="matrix" values="0 0 0 0 0 0 0 0 0 0 0 0 0 0 0 0 0 0 127 0" result="hardAlpha"/>
<feOffset/>
<feGaussianBlur stdDeviation="5"/>
<feComposite in2="hardAlpha" operator="arithmetic" k2="-1" k3="1"/>
<feColorMatrix type="matrix" values="0 0 0 0 0.943597 0 0 0 0 0.923779 0 0 0 0 1 0 0 0 1 0"/>
<feBlend mode="overlay" in2="shape" result="effect2_innerShadow_1451_1554"/>
<feColorMatrix in="SourceAlpha" type="matrix" values="0 0 0 0 0 0 0 0 0 0 0 0 0 0 0 0 0 0 127 0" result="hardAlpha"/>
<feOffset dy="-1"/>
<feGaussianBlur stdDeviation="10"/>
<feComposite in2="hardAlpha" operator="arithmetic" k2="-1" k3="1"/>
<feColorMatrix type="matrix" values="0 0 0 0 0.92995 0 0 0 0 0.905339 0 0 0 0 1 0 0 0 1 0"/>
<feBlend mode="overlay" in2="effect2_innerShadow_1451_1554" result="effect3_innerShadow_1451_1554"/>
</filter>
<filter id="filter7_dii_1451_1554" x="303" y="69" width="46" height="47" filterUnits="userSpaceOnUse" color-interpolation-filters="sRGB">
<feFlood flood-opacity="0" result="BackgroundImageFix"/>
<feColorMatrix in="SourceAlpha" type="matrix" values="0 0 0 0 0 0 0 0 0 0 0 0 0 0 0 0 0 0 127 0" result="hardAlpha"/>
<feOffset dy="10"/>
<feGaussianBlur stdDeviation="5"/>
<feComposite in2="hardAlpha" operator="out"/>
<feColorMatrix type="matrix" values="0 0 0 0 0 0 0 0 0 0 0 0 0 0 0 0 0 0 0.1 0"/>
<feBlend mode="normal" in2="BackgroundImageFix" result="effect1_dropShadow_1451_1554"/>
<feBlend mode="normal" in="SourceGraphic" in2="effect1_dropShadow_1451_1554" result="shape"/>
<feColorMatrix in="SourceAlpha" type="matrix" values="0 0 0 0 0 0 0 0 0 0 0 0 0 0 0 0 0 0 127 0" result="hardAlpha"/>
<feOffset/>
<feGaussianBlur stdDeviation="5"/>
<feComposite in2="hardAlpha" operator="arithmetic" k2="-1" k3="1"/>
<feColorMatrix type="matrix" values="0 0 0 0 0.943597 0 0 0 0 0.923779 0 0 0 0 1 0 0 0 1 0"/>
<feBlend mode="overlay" in2="shape" result="effect2_innerShadow_1451_1554"/>
<feColorMatrix in="SourceAlpha" type="matrix" values="0 0 0 0 0 0 0 0 0 0 0 0 0 0 0 0 0 0 127 0" result="hardAlpha"/>
<feOffset dy="-1"/>
<feGaussianBlur stdDeviation="10"/>
<feComposite in2="hardAlpha" operator="arithmetic" k2="-1" k3="1"/>
<feColorMatrix type="matrix" values="0 0 0 0 0.92995 0 0 0 0 0.905339 0 0 0 0 1 0 0 0 1 0"/>
<feBlend mode="overlay" in2="effect2_innerShadow_1451_1554" result="effect3_innerShadow_1451_1554"/>
</filter>
<filter id="filter8_dii_1451_1554" x="296" y="198" width="60" height="61" filterUnits="userSpaceOnUse" color-interpolation-filters="sRGB">
<feFlood flood-opacity="0" result="BackgroundImageFix"/>
<feColorMatrix in="SourceAlpha" type="matrix" values="0 0 0 0 0 0 0 0 0 0 0 0 0 0 0 0 0 0 127 0" result="hardAlpha"/>
<feOffset dy="10"/>
<feGaussianBlur stdDeviation="5"/>
<feComposite in2="hardAlpha" operator="out"/>
<feColorMatrix type="matrix" values="0 0 0 0 0 0 0 0 0 0 0 0 0 0 0 0 0 0 0.1 0"/>
<feBlend mode="normal" in2="BackgroundImageFix" result="effect1_dropShadow_1451_1554"/>
<feBlend mode="normal" in="SourceGraphic" in2="effect1_dropShadow_1451_1554" result="shape"/>
<feColorMatrix in="SourceAlpha" type="matrix" values="0 0 0 0 0 0 0 0 0 0 0 0 0 0 0 0 0 0 127 0" result="hardAlpha"/>
<feOffset/>
<feGaussianBlur stdDeviation="5"/>
<feComposite in2="hardAlpha" operator="arithmetic" k2="-1" k3="1"/>
<feColorMatrix type="matrix" values="0 0 0 0 0.943597 0 0 0 0 0.923779 0 0 0 0 1 0 0 0 1 0"/>
<feBlend mode="overlay" in2="shape" result="effect2_innerShadow_1451_1554"/>
<feColorMatrix in="SourceAlpha" type="matrix" values="0 0 0 0 0 0 0 0 0 0 0 0 0 0 0 0 0 0 127 0" result="hardAlpha"/>
<feOffset dy="-1"/>
<feGaussianBlur stdDeviation="10"/>
<feComposite in2="hardAlpha" operator="arithmetic" k2="-1" k3="1"/>
<feColorMatrix type="matrix" values="0 0 0 0 0.92995 0 0 0 0 0.905339 0 0 0 0 1 0 0 0 1 0"/>
<feBlend mode="overlay" in2="effect2_innerShadow_1451_1554" result="effect3_innerShadow_1451_1554"/>
</filter>
<filter id="filter9_dii_1451_1554" x="303" y="205" width="46" height="47" filterUnits="userSpaceOnUse" color-interpolation-filters="sRGB">
<feFlood flood-opacity="0" result="BackgroundImageFix"/>
<feColorMatrix in="SourceAlpha" type="matrix" values="0 0 0 0 0 0 0 0 0 0 0 0 0 0 0 0 0 0 127 0" result="hardAlpha"/>
<feOffset dy="10"/>
<feGaussianBlur stdDeviation="5"/>
<feComposite in2="hardAlpha" operator="out"/>
<feColorMatrix type="matrix" values="0 0 0 0 0 0 0 0 0 0 0 0 0 0 0 0 0 0 0.1 0"/>
<feBlend mode="normal" in2="BackgroundImageFix" result="effect1_dropShadow_1451_1554"/>
<feBlend mode="normal" in="SourceGraphic" in2="effect1_dropShadow_1451_1554" result="shape"/>
<feColorMatrix in="SourceAlpha" type="matrix" values="0 0 0 0 0 0 0 0 0 0 0 0 0 0 0 0 0 0 127 0" result="hardAlpha"/>
<feOffset/>
<feGaussianBlur stdDeviation="5"/>
<feComposite in2="hardAlpha" operator="arithmetic" k2="-1" k3="1"/>
<feColorMatrix type="matrix" values="0 0 0 0 0.943597 0 0 0 0 0.923779 0 0 0 0 1 0 0 0 1 0"/>
<feBlend mode="overlay" in2="shape" result="effect2_innerShadow_1451_1554"/>
<feColorMatrix in="SourceAlpha" type="matrix" values="0 0 0 0 0 0 0 0 0 0 0 0 0 0 0 0 0 0 127 0" result="hardAlpha"/>
<feOffset dy="-1"/>
<feGaussianBlur stdDeviation="10"/>
<feComposite in2="hardAlpha" operator="arithmetic" k2="-1" k3="1"/>
<feColorMatrix type="matrix" values="0 0 0 0 0.92995 0 0 0 0 0.905339 0 0 0 0 1 0 0 0 1 0"/>
<feBlend mode="overlay" in2="effect2_innerShadow_1451_1554" result="effect3_innerShadow_1451_1554"/>
</filter>
<filter id="filter10_dii_1451_1554" x="296" y="130" width="60" height="61" filterUnits="userSpaceOnUse" color-interpolation-filters="sRGB">
<feFlood flood-opacity="0" result="BackgroundImageFix"/>
<feColorMatrix in="SourceAlpha" type="matrix" values="0 0 0 0 0 0 0 0 0 0 0 0 0 0 0 0 0 0 127 0" result="hardAlpha"/>
<feOffset dy="10"/>
<feGaussianBlur stdDeviation="5"/>
<feComposite in2="hardAlpha" operator="out"/>
<feColorMatrix type="matrix" values="0 0 0 0 0 0 0 0 0 0 0 0 0 0 0 0 0 0 0.1 0"/>
<feBlend mode="normal" in2="BackgroundImageFix" result="effect1_dropShadow_1451_1554"/>
<feBlend mode="normal" in="SourceGraphic" in2="effect1_dropShadow_1451_1554" result="shape"/>
<feColorMatrix in="SourceAlpha" type="matrix" values="0 0 0 0 0 0 0 0 0 0 0 0 0 0 0 0 0 0 127 0" result="hardAlpha"/>
<feOffset/>
<feGaussianBlur stdDeviation="5"/>
<feComposite in2="hardAlpha" operator="arithmetic" k2="-1" k3="1"/>
<feColorMatrix type="matrix" values="0 0 0 0 0.943597 0 0 0 0 0.923779 0 0 0 0 1 0 0 0 1 0"/>
<feBlend mode="overlay" in2="shape" result="effect2_innerShadow_1451_1554"/>
<feColorMatrix in="SourceAlpha" type="matrix" values="0 0 0 0 0 0 0 0 0 0 0 0 0 0 0 0 0 0 127 0" result="hardAlpha"/>
<feOffset dy="-1"/>
<feGaussianBlur stdDeviation="10"/>
<feComposite in2="hardAlpha" operator="arithmetic" k2="-1" k3="1"/>
<feColorMatrix type="matrix" values="0 0 0 0 0.92995 0 0 0 0 0.905339 0 0 0 0 1 0 0 0 1 0"/>
<feBlend mode="overlay" in2="effect2_innerShadow_1451_1554" result="effect3_innerShadow_1451_1554"/>
</filter>
<filter id="filter11_dii_1451_1554" x="303" y="137" width="46" height="47" filterUnits="userSpaceOnUse" color-interpolation-filters="sRGB">
<feFlood flood-opacity="0" result="BackgroundImageFix"/>
<feColorMatrix in="SourceAlpha" type="matrix" values="0 0 0 0 0 0 0 0 0 0 0 0 0 0 0 0 0 0 127 0" result="hardAlpha"/>
<feOffset dy="10"/>
<feGaussianBlur stdDeviation="5"/>
<feComposite in2="hardAlpha" operator="out"/>
<feColorMatrix type="matrix" values="0 0 0 0 0 0 0 0 0 0 0 0 0 0 0 0 0 0 0.1 0"/>
<feBlend mode="normal" in2="BackgroundImageFix" result="effect1_dropShadow_1451_1554"/>
<feBlend mode="normal" in="SourceGraphic" in2="effect1_dropShadow_1451_1554" result="shape"/>
<feColorMatrix in="SourceAlpha" type="matrix" values="0 0 0 0 0 0 0 0 0 0 0 0 0 0 0 0 0 0 127 0" result="hardAlpha"/>
<feOffset/>
<feGaussianBlur stdDeviation="5"/>
<feComposite in2="hardAlpha" operator="arithmetic" k2="-1" k3="1"/>
<feColorMatrix type="matrix" values="0 0 0 0 0.943597 0 0 0 0 0.923779 0 0 0 0 1 0 0 0 1 0"/>
<feBlend mode="overlay" in2="shape" result="effect2_innerShadow_1451_1554"/>
<feColorMatrix in="SourceAlpha" type="matrix" values="0 0 0 0 0 0 0 0 0 0 0 0 0 0 0 0 0 0 127 0" result="hardAlpha"/>
<feOffset dy="-1"/>
<feGaussianBlur stdDeviation="10"/>
<feComposite in2="hardAlpha" operator="arithmetic" k2="-1" k3="1"/>
<feColorMatrix type="matrix" values="0 0 0 0 0.92995 0 0 0 0 0.905339 0 0 0 0 1 0 0 0 1 0"/>
<feBlend mode="overlay" in2="effect2_innerShadow_1451_1554" result="effect3_innerShadow_1451_1554"/>
</filter>
<filter id="filter12_d_1451_1554" x="138.036" y="112.142" width="107.927" height="107.927" filterUnits="userSpaceOnUse" color-interpolation-filters="sRGB">
<feFlood flood-opacity="0" result="BackgroundImageFix"/>
<feColorMatrix in="SourceAlpha" type="matrix" values="0 0 0 0 0 0 0 0 0 0 0 0 0 0 0 0 0 0 127 0" result="hardAlpha"/>
<feMorphology radius="9.38499" operator="erode" in="SourceAlpha" result="effect1_dropShadow_1451_1554"/>
<feOffset dy="16.4237"/>
<feGaussianBlur stdDeviation="14.0775"/>
<feComposite in2="hardAlpha" operator="out"/>
<feColorMatrix type="matrix" values="0 0 0 0 1 0 0 0 0 1 0 0 0 0 1 0 0 0 0.2 0"/>
<feBlend mode="normal" in2="BackgroundImageFix" result="effect1_dropShadow_1451_1554"/>
<feBlend mode="normal" in="SourceGraphic" in2="effect1_dropShadow_1451_1554" result="shape"/>
</filter>
<filter id="filter13_b_1451_1554" x="157.499" y="115.182" width="69.0024" height="69.0024" filterUnits="userSpaceOnUse" color-interpolation-filters="sRGB">
<feFlood flood-opacity="0" result="BackgroundImageFix"/>
<feGaussianBlur in="BackgroundImageFix" stdDeviation="2"/>
<feComposite in2="SourceAlpha" operator="in" result="effect1_backgroundBlur_1451_1554"/>
<feBlend mode="normal" in="SourceGraphic" in2="effect1_backgroundBlur_1451_1554" result="shape"/>
</filter>
<radialGradient id="paint0_radial_1451_1554" cx="0" cy="0" r="1" gradientUnits="userSpaceOnUse" gradientTransform="translate(192 148.682) scale(166)">
<stop/>
<stop offset="1" stop-opacity="0"/>
</radialGradient>
<radialGradient id="paint1_radial_1451_1554" cx="0" cy="0" r="1" gradientUnits="userSpaceOnUse" gradientTransform="translate(74 115.529) rotate(-131.312) scale(71.2661 26.3175)">
<stop stop-color="#F9A96E" stop-opacity="0"/>
<stop offset="1" stop-color="#F9A96E"/>
</radialGradient>
<linearGradient id="paint2_linear_1451_1554" x1="47.2748" y1="89.7446" x2="64.6838" y2="63.253" gradientUnits="userSpaceOnUse">
<stop stop-color="white" stop-opacity="0.5"/>
<stop offset="1" stop-color="white" stop-opacity="0.5"/>
</linearGradient>
<radialGradient id="paint3_radial_1451_1554" cx="0" cy="0" r="1" gradientUnits="userSpaceOnUse" gradientTransform="translate(67 103.794) rotate(-131.312) scale(46.323 17.1064)">
<stop stop-color="#F9A96E" stop-opacity="0"/>
<stop offset="1" stop-color="#F9A96E"/>
</radialGradient>
<linearGradient id="paint4_linear_1451_1554" x1="49.6286" y1="87.034" x2="60.9445" y2="69.8144" gradientUnits="userSpaceOnUse">
<stop stop-color="white" stop-opacity="0.5"/>
<stop offset="1" stop-color="white" stop-opacity="0.5"/>
</linearGradient>
<radialGradient id="paint5_radial_1451_1554" cx="0" cy="0" r="1" gradientUnits="userSpaceOnUse" gradientTransform="translate(74 183.529) rotate(-131.312) scale(71.2661 26.3175)">
<stop stop-color="#5DE4C7" stop-opacity="0"/>
<stop offset="1" stop-color="#5DE4C7"/>
</radialGradient>
<linearGradient id="paint6_linear_1451_1554" x1="47.2748" y1="157.745" x2="64.6838" y2="131.253" gradientUnits="userSpaceOnUse">
<stop stop-color="white" stop-opacity="0.5"/>
<stop offset="1" stop-color="white" stop-opacity="0.5"/>
</linearGradient>
<radialGradient id="paint7_radial_1451_1554" cx="0" cy="0" r="1" gradientUnits="userSpaceOnUse" gradientTransform="translate(67 171.794) rotate(-131.312) scale(46.323 17.1064)">
<stop stop-color="#5DE4C7" stop-opacity="0"/>
<stop offset="1" stop-color="#5DE4C7"/>
</radialGradient>
<linearGradient id="paint8_linear_1451_1554" x1="49.6286" y1="155.034" x2="60.9445" y2="137.814" gradientUnits="userSpaceOnUse">
<stop stop-color="white" stop-opacity="0.5"/>
<stop offset="1" stop-color="white" stop-opacity="0.5"/>
</linearGradient>
<radialGradient id="paint9_radial_1451_1554" cx="0" cy="0" r="1" gradientUnits="userSpaceOnUse" gradientTransform="translate(74 251.529) rotate(-131.312) scale(71.2661 26.3175)">
<stop stop-color="#AE88F6" stop-opacity="0"/>
<stop offset="1" stop-color="#AE88F6"/>
</radialGradient>
<linearGradient id="paint10_linear_1451_1554" x1="47.2748" y1="225.745" x2="64.6838" y2="199.253" gradientUnits="userSpaceOnUse">
<stop stop-color="white" stop-opacity="0.5"/>
<stop offset="1" stop-color="white" stop-opacity="0.5"/>
</linearGradient>
<radialGradient id="paint11_radial_1451_1554" cx="0" cy="0" r="1" gradientUnits="userSpaceOnUse" gradientTransform="translate(67 239.794) rotate(-131.312) scale(46.323 17.1064)">
<stop stop-color="#AE88F6" stop-opacity="0"/>
<stop offset="1" stop-color="#AE88F6"/>
</radialGradient>
<linearGradient id="paint12_linear_1451_1554" x1="49.6286" y1="223.034" x2="60.9445" y2="205.814" gradientUnits="userSpaceOnUse">
<stop stop-color="white" stop-opacity="0.5"/>
<stop offset="1" stop-color="white" stop-opacity="0.5"/>
</linearGradient>
<radialGradient id="paint13_radial_1451_1554" cx="0" cy="0" r="1" gradientUnits="userSpaceOnUse" gradientTransform="translate(346 116.529) rotate(-131.312) scale(71.2661 26.3175)">
<stop stop-color="#F9A96E" stop-opacity="0"/>
<stop offset="1" stop-color="#F9A96E"/>
</radialGradient>
<linearGradient id="paint14_linear_1451_1554" x1="319.275" y1="90.7446" x2="336.684" y2="64.253" gradientUnits="userSpaceOnUse">
<stop stop-color="white" stop-opacity="0.5"/>
<stop offset="1" stop-color="white" stop-opacity="0.5"/>
</linearGradient>
<radialGradient id="paint15_radial_1451_1554" cx="0" cy="0" r="1" gradientUnits="userSpaceOnUse" gradientTransform="translate(339 104.794) rotate(-131.312) scale(46.323 17.1064)">
<stop stop-color="#F9A96E" stop-opacity="0"/>
<stop offset="1" stop-color="#F9A96E"/>
</radialGradient>
<linearGradient id="paint16_linear_1451_1554" x1="321.629" y1="88.034" x2="332.944" y2="70.8144" gradientUnits="userSpaceOnUse">
<stop stop-color="white" stop-opacity="0.5"/>
<stop offset="1" stop-color="white" stop-opacity="0.5"/>
</linearGradient>
<radialGradient id="paint17_radial_1451_1554" cx="0" cy="0" r="1" gradientUnits="userSpaceOnUse" gradientTransform="translate(346 252.529) rotate(-131.312) scale(71.2661 26.3175)">
<stop stop-color="#AE88F6" stop-opacity="0"/>
<stop offset="1" stop-color="#AE88F6"/>
</radialGradient>
<linearGradient id="paint18_linear_1451_1554" x1="319.275" y1="226.745" x2="336.684" y2="200.253" gradientUnits="userSpaceOnUse">
<stop stop-color="white" stop-opacity="0.5"/>
<stop offset="1" stop-color="white" stop-opacity="0.5"/>
</linearGradient>
<radialGradient id="paint19_radial_1451_1554" cx="0" cy="0" r="1" gradientUnits="userSpaceOnUse" gradientTransform="translate(339 240.794) rotate(-131.312) scale(46.323 17.1064)">
<stop stop-color="#AE88F6" stop-opacity="0"/>
<stop offset="1" stop-color="#AE88F6"/>
</radialGradient>
<linearGradient id="paint20_linear_1451_1554" x1="321.629" y1="224.034" x2="332.944" y2="206.814" gradientUnits="userSpaceOnUse">
<stop stop-color="white" stop-opacity="0.5"/>
<stop offset="1" stop-color="white" stop-opacity="0.5"/>
</linearGradient>
<radialGradient id="paint21_radial_1451_1554" cx="0" cy="0" r="1" gradientUnits="userSpaceOnUse" gradientTransform="translate(346 184.529) rotate(-131.312) scale(71.2661 26.3175)">
<stop stop-color="#5DE4C7" stop-opacity="0"/>
<stop offset="1" stop-color="#5DE4C7"/>
</radialGradient>
<linearGradient id="paint22_linear_1451_1554" x1="319.275" y1="158.745" x2="336.684" y2="132.253" gradientUnits="userSpaceOnUse">
<stop stop-color="white" stop-opacity="0.5"/>
<stop offset="1" stop-color="white" stop-opacity="0.5"/>
</linearGradient>
<radialGradient id="paint23_radial_1451_1554" cx="0" cy="0" r="1" gradientUnits="userSpaceOnUse" gradientTransform="translate(339 172.794) rotate(-131.312) scale(46.323 17.1064)">
<stop stop-color="#5DE4C7" stop-opacity="0"/>
<stop offset="1" stop-color="#5DE4C7"/>
</radialGradient>
<linearGradient id="paint24_linear_1451_1554" x1="321.629" y1="156.034" x2="332.944" y2="138.814" gradientUnits="userSpaceOnUse">
<stop stop-color="white" stop-opacity="0.5"/>
<stop offset="1" stop-color="white" stop-opacity="0.5"/>
</linearGradient>
<radialGradient id="paint25_radial_1451_1554" cx="0" cy="0" r="1" gradientUnits="userSpaceOnUse" gradientTransform="translate(196.554 148.682) rotate(90) scale(134.481)">
<stop stop-color="white" stop-opacity="0.25"/>
<stop offset="1" stop-color="#ABABAB" stop-opacity="0"/>
</radialGradient>
<linearGradient id="paint26_linear_1451_1554" x1="180.984" y1="134.199" x2="198.277" y2="186.945" gradientUnits="userSpaceOnUse">
<stop stop-color="white"/>
<stop offset="1" stop-color="#505050"/>
</linearGradient>
<linearGradient id="paint27_linear_1451_1554" x1="192" y1="115.369" x2="192" y2="183.997" gradientUnits="userSpaceOnUse">
<stop stop-color="#AE88F6"/>
<stop offset="1" stop-color="#9667ED"/>
</linearGradient>
<clipPath id="clip0_1451_1554">
<rect width="332" height="332" fill="white" transform="translate(22 -17.3179)"/>
</clipPath>
<clipPath id="clip1_1451_1554">
<rect width="132" height="200" fill="white" transform="translate(294 50.6821)"/>
</clipPath>
<clipPath id="clip2_1451_1554">
<rect x="156.806" y="114.488" width="70.3875" height="70.3875" rx="35.1937" fill="white"/>
</clipPath>
<clipPath id="clip3_1451_1554">
<rect width="70.3875" height="70.3875" fill="white" transform="translate(156.806 114.489)"/>
</clipPath>
</defs>
</svg>
