<svg width="384" height="318" viewBox="0 0 384 318" fill="none" xmlns="http://www.w3.org/2000/svg">
<mask id="mask0_1451_2112" style="mask-type:alpha" maskUnits="userSpaceOnUse" x="22" y="-18" width="340" height="336">
<rect x="22" y="-18" width="340" height="336" fill="url(#paint0_radial_1451_2112)"/>
</mask>
<g mask="url(#mask0_1451_2112)">
<g opacity="0.5">
<rect x="22" y="-190" width="340" height="340" rx="170" fill="url(#paint1_radial_1451_2112)"/>
<rect x="22.5" y="-189.5" width="339" height="339" rx="169.5" stroke="white" stroke-opacity="0.2"/>
</g>
<g opacity="0.5">
<rect x="22" y="150" width="340" height="340" rx="170" fill="url(#paint2_radial_1451_2112)"/>
<rect x="22.5" y="150.5" width="339" height="339" rx="169.5" stroke="white" stroke-opacity="0.2"/>
</g>
</g>
<g filter="url(#filter0_b_1451_2112)">
<g clip-path="url(#clip0_1451_2112)">
<rect x="207" y="198" width="60" height="60" rx="30" fill="#F8F8F8" fill-opacity="0.01"/>
<g opacity="0.15" filter="url(#filter1_dii_1451_2112)">
<rect x="207" y="198" width="60" height="60" rx="30" fill="#010101"/>
<rect x="207" y="198" width="60" height="60" rx="30" fill="url(#paint3_radial_1451_2112)" fill-opacity="0.5"/>
<rect x="207.5" y="198.5" width="59" height="59" rx="29.5" stroke="url(#paint4_linear_1451_2112)" style="mix-blend-mode:overlay"/>
</g>
<g opacity="0.6">
<g clip-path="url(#clip1_1451_2112)">
<g clip-path="url(#clip2_1451_2112)">
<path d="M231.25 213.818L222.394 219.6L228.517 224.503L237.446 218.99L231.25 213.818ZM222.394 229.407L231.25 235.189L237.446 230.016L228.517 224.503L222.394 229.407ZM237.446 230.016L243.643 235.189L252.498 229.407L246.375 224.503L237.446 230.016Z" fill="url(#paint5_linear_1451_2112)"/>
<path d="M252.499 219.6L243.643 213.818L237.447 218.99L246.376 224.503L252.499 219.6ZM237.465 231.129L231.25 236.286L228.591 234.55V236.496L237.465 241.818L246.339 236.496V234.55L243.68 236.286L237.465 231.129Z" fill="url(#paint6_linear_1451_2112)"/>
</g>
</g>
</g>
</g>
</g>
<g filter="url(#filter2_b_1451_2112)">
<g clip-path="url(#clip3_1451_2112)">
<rect x="207" y="42" width="60" height="60" rx="30" fill="#F8F8F8" fill-opacity="0.01"/>
<g opacity="0.2" filter="url(#filter3_dii_1451_2112)">
<rect x="207" y="42" width="60" height="60" rx="30" fill="#010101"/>
<rect x="207" y="42" width="60" height="60" rx="30" fill="url(#paint7_radial_1451_2112)" fill-opacity="0.5"/>
<rect x="207.5" y="42.5" width="59" height="59" rx="29.5" stroke="url(#paint8_linear_1451_2112)" style="mix-blend-mode:overlay"/>
</g>
<g clip-path="url(#clip4_1451_2112)">
<path d="M237.827 78.0694C235.932 78.079 234.387 76.5551 234.377 74.661C234.363 72.7664 235.889 71.2231 237.785 71.2115C239.679 71.197 241.224 72.7229 241.237 74.617C241.25 76.5111 239.724 78.0583 237.828 78.0694M227.727 78.1337C225.831 78.1467 224.285 76.6209 224.275 74.7282C224.262 72.8326 225.788 71.2869 227.684 71.2758C228.593 71.2705 229.467 71.6262 230.114 72.2646C230.761 72.9031 231.128 73.7723 231.135 74.6813C231.141 75.591 230.785 76.4657 230.146 77.113C229.506 77.7604 228.636 78.1275 227.727 78.1337ZM237.77 68.9215C235.579 68.937 233.687 70.1806 232.739 71.9921C231.766 70.1907 229.858 68.9713 227.67 68.9868C226.432 68.9916 225.23 69.4005 224.246 70.1506L224.215 65.3358C224.206 65.0364 224.081 64.7521 223.866 64.544C223.65 64.3358 223.362 64.2203 223.063 64.2222C222.763 64.2239 222.477 64.3431 222.265 64.554C222.053 64.7649 221.932 65.0507 221.929 65.3498L221.984 74.8311H221.987C222.021 76.3307 222.643 77.7568 223.719 78.8019C224.795 79.8471 226.238 80.4276 227.738 80.4183C229.927 80.4038 231.819 79.1602 232.771 77.3473C233.742 79.1477 235.653 80.3671 237.841 80.3535C240.999 80.3342 243.542 77.7567 243.523 74.5986C243.503 71.4406 240.921 68.8959 237.767 68.9162M252.62 78.4604L249.409 74.5648L252.568 70.6286C252.955 70.1236 252.841 69.4194 252.298 69.0482C251.75 68.6784 250.984 68.7775 250.571 69.269V69.2671L247.842 72.6649L245.071 69.3058C244.65 68.8186 243.882 68.7277 243.343 69.1057C242.801 69.4841 242.692 70.1883 243.091 70.6919L246.299 74.5851L243.139 78.5193C242.748 79.0268 242.867 79.7291 243.414 80.0998C243.957 80.472 244.725 80.3719 245.137 79.8799L247.865 76.4841L250.639 79.8451C251.058 80.3333 251.826 80.4217 252.369 80.0442C252.909 79.6624 253.017 78.9616 252.621 78.4589" fill="url(#paint9_linear_1451_2112)"/>
</g>
</g>
</g>
<g filter="url(#filter4_b_1451_2112)">
<g clip-path="url(#clip5_1451_2112)">
<rect x="117" y="42" width="60" height="60" rx="30" fill="#F8F8F8" fill-opacity="0.01"/>
<g opacity="0.15" filter="url(#filter5_dii_1451_2112)">
<rect x="117" y="42" width="60" height="60" rx="30" fill="#010101"/>
<rect x="117" y="42" width="60" height="60" rx="30" fill="url(#paint10_radial_1451_2112)" fill-opacity="0.5"/>
<rect x="117.5" y="42.5" width="59" height="59" rx="29.5" stroke="url(#paint11_linear_1451_2112)" style="mix-blend-mode:overlay"/>
</g>
<g opacity="0.6">
<g clip-path="url(#clip6_1451_2112)">
<path fill-rule="evenodd" clip-rule="evenodd" d="M146.697 87.3468L140.078 84.9718V75.2724L146.697 77.5268V87.3468ZM147.903 87.3468L154.523 84.9718V75.2724L147.903 77.5286V87.3468ZM140.76 74.5441L147.44 72.6581L153.652 74.662L147.44 76.7707L140.76 74.5441ZM138.819 73.802L132.197 71.4196V61.7063L138.816 63.9606L138.819 73.802ZM140.032 73.802L146.651 71.427V61.7063L140.03 63.9718L140.032 73.802ZM132.888 60.9993L139.568 59.104L145.78 61.1079L139.568 63.2166L132.888 60.9993ZM154.274 73.802L147.655 71.427V61.7063L154.274 63.9606V73.802ZM155.48 73.802L162.099 71.427V61.7063L155.48 63.9606V73.802ZM148.337 60.9993L155.016 59.1133L161.228 61.1172L155.016 63.2259L148.337 60.9993Z" fill="url(#paint12_linear_1451_2112)"/>
</g>
</g>
</g>
</g>
<g filter="url(#filter6_b_1451_2112)">
<g clip-path="url(#clip7_1451_2112)">
<rect x="252" y="120" width="60" height="60" rx="30" fill="#F8F8F8" fill-opacity="0.01"/>
<g opacity="0.2" filter="url(#filter7_dii_1451_2112)">
<rect x="252" y="120" width="60" height="60" rx="30" fill="#010101"/>
<rect x="252" y="120" width="60" height="60" rx="30" fill="url(#paint13_radial_1451_2112)" fill-opacity="0.5"/>
<rect x="252.5" y="120.5" width="59" height="59" rx="29.5" stroke="url(#paint14_linear_1451_2112)" style="mix-blend-mode:overlay"/>
</g>
<g opacity="0.6" clip-path="url(#clip8_1451_2112)">
<path d="M277.504 139.351H287.238L296.393 155.134H286.637L277.504 139.351Z" fill="url(#paint15_linear_1451_2112)"/>
<path d="M296.393 155.134L291.514 163.566H273.249L278.138 155.134H296.393Z" fill="url(#paint16_linear_1451_2112)"/>
<path d="M273.249 163.566L268.393 155.134L277.504 139.351L282.393 147.806L273.249 163.566Z" fill="url(#paint17_linear_1451_2112)"/>
<path opacity="0.1" d="M273.249 163.566L282.338 155.134H278.138L273.249 163.566ZM296.393 155.134H286.647L284.503 151.437L296.393 155.134ZM277.503 139.351L280.314 151.382L282.393 147.806L277.503 139.351Z" fill="black"/>
</g>
</g>
</g>
<g filter="url(#filter8_b_1451_2112)">
<g clip-path="url(#clip9_1451_2112)">
<rect x="72" y="120" width="60" height="60" rx="30" fill="#F8F8F8" fill-opacity="0.01"/>
<g opacity="0.2" filter="url(#filter9_dii_1451_2112)">
<rect x="72" y="120" width="60" height="60" rx="30" fill="#010101"/>
<rect x="72" y="120" width="60" height="60" rx="30" fill="url(#paint18_radial_1451_2112)" fill-opacity="0.5"/>
<rect x="72.5" y="120.5" width="59" height="59" rx="29.5" stroke="url(#paint19_linear_1451_2112)" style="mix-blend-mode:overlay"/>
</g>
<g opacity="0.6">
<path d="M93.1866 147.981C94.4059 148 95.6209 148.13 96.8165 148.37C97.9436 148.584 99.0901 148.976 100.248 148.972C101.134 148.972 101.85 148.35 101.842 147.6C101.834 146.85 101.123 146.213 100.221 146.217C99.7061 146.225 99.1953 146.31 98.7054 146.469C98.8336 146.38 98.9619 146.287 99.094 146.205C100.86 145.144 102.907 144.646 104.963 144.775C107.139 144.876 109.416 145.552 111.103 146.998C112.076 147.846 112.821 148.924 113.27 150.134C113.719 151.343 113.859 152.646 113.676 153.924C113.457 155.224 112.907 156.446 112.078 157.472C111.25 158.498 110.171 159.293 108.946 159.781C107.14 160.424 105.179 160.494 103.33 159.983C100.921 159.369 98.8064 158.039 96.5367 157.052C95.2126 156.546 93.8339 156.197 92.4287 156.011H92.4482C92.9933 156.046 93.539 155.952 94.0416 155.739C94.7179 155.416 94.714 154.639 94.3642 154.067C93.9483 153.395 93.1089 153.119 92.3821 152.902C91.1135 152.571 89.7901 152.507 88.4956 152.715C87.544 152.819 86.6326 153.156 85.8412 153.694C85.5392 153.915 85.2984 154.21 85.1416 154.549C86.3386 151.234 88.7171 151.607 90.194 150.702C90.3581 150.597 90.4804 150.437 90.54 150.252C90.5996 150.066 90.5927 149.866 90.5206 149.684C90.4484 149.503 90.3154 149.353 90.1445 149.259C89.9736 149.165 89.7754 149.134 89.5838 149.171C89.1673 149.271 88.7791 149.465 88.449 149.738L88.1186 149.991C88.1186 149.991 89.3001 147.981 93.1866 147.981Z" fill="url(#paint20_linear_1451_2112)"/>
<path d="M106.945 149.827C105.359 149.827 104.706 150.826 102.988 151.77C100.015 153.395 98.2467 152.703 98.2467 152.789C98.2467 152.874 99.4515 153.383 102.405 154.817C103.812 155.566 105.371 155.985 106.964 156.042C107.789 156.042 108.579 155.714 109.163 155.131C109.746 154.548 110.073 153.757 110.073 152.932C110.073 152.108 109.746 151.317 109.163 150.734C108.579 150.151 107.789 149.823 106.964 149.823L106.945 149.827Z" fill="white"/>
</g>
</g>
</g>
<g filter="url(#filter10_b_1451_2112)">
<g clip-path="url(#clip10_1451_2112)">
<rect x="117" y="198" width="60" height="60" rx="30" fill="#F8F8F8" fill-opacity="0.01"/>
<g opacity="0.2" filter="url(#filter11_dii_1451_2112)">
<rect x="117" y="198" width="60" height="60" rx="30" fill="#010101"/>
<rect x="117" y="198" width="60" height="60" rx="30" fill="url(#paint21_radial_1451_2112)" fill-opacity="0.5"/>
<rect x="117.5" y="198.5" width="59" height="59" rx="29.5" stroke="url(#paint22_linear_1451_2112)" style="mix-blend-mode:overlay"/>
</g>
<g opacity="0.6" clip-path="url(#clip11_1451_2112)">
<path d="M147 242C154.732 242 161 235.732 161 228C161 220.268 154.732 214 147 214C139.268 214 133 220.268 133 228C133 235.732 139.268 242 147 242Z" fill="url(#paint23_linear_1451_2112)"/>
<path d="M138.729 222.33H142.029L147 227.379L152.01 222.33H155.195V233.709H151.855V227.116L147.79 231.184H146.211L142.146 227.116V233.709H138.729V222.33Z" fill="white"/>
</g>
</g>
</g>
<g filter="url(#filter12_d_1451_2112)">
<g clip-path="url(#clip12_1451_2112)">
<rect x="162" y="119" width="60" height="60" rx="30" fill="white" fill-opacity="0.01" shape-rendering="crispEdges"/>
<g clip-path="url(#clip13_1451_2112)">
<mask id="mask1_1451_2112" style="mask-type:luminance" maskUnits="userSpaceOnUse" x="162" y="119" width="60" height="60">
<path d="M222 149C222 132.431 208.569 119 192 119C175.431 119 162 132.431 162 149C162 165.569 175.431 179 192 179C208.569 179 222 165.569 222 149Z" fill="white"/>
</mask>
<g mask="url(#mask1_1451_2112)">
<g filter="url(#filter13_b_1451_2112)">
<path d="M218 149C218 134.641 206.359 123 192 123C177.641 123 166 134.641 166 149C166 163.359 177.641 175 192 175C206.359 175 218 163.359 218 149Z" fill="#F8F8F8" fill-opacity="0.01"/>
</g>
<path d="M218 149C218 134.641 206.359 123 192 123C177.641 123 166 134.641 166 149C166 163.359 177.641 175 192 175C206.359 175 218 163.359 218 149Z" fill="white" fill-opacity="0.2"/>
<path fill-rule="evenodd" clip-rule="evenodd" d="M193.25 140.25C193.25 139.56 192.69 139 192 139C191.31 139 190.75 139.56 190.75 140.25V143.375C190.75 145.791 188.791 147.75 186.375 147.75H183.25C182.56 147.75 182 148.31 182 149C182 149.69 182.56 150.25 183.25 150.25H186.375C188.791 150.25 190.75 152.209 190.75 154.625V157.75C190.75 158.44 191.31 159 192 159C192.69 159 193.25 158.44 193.25 157.75V154.625C193.25 152.209 195.209 150.25 197.625 150.25H200.75C201.44 150.25 202 149.69 202 149C202 148.31 201.44 147.75 200.75 147.75H197.625C195.209 147.75 193.25 145.791 193.25 143.375V140.25Z" fill="url(#paint24_linear_1451_2112)"/>
</g>
<path d="M221.25 149C221.25 132.846 208.154 119.75 192 119.75C175.846 119.75 162.75 132.846 162.75 149C162.75 165.154 175.846 178.25 192 178.25C208.154 178.25 221.25 165.154 221.25 149Z" stroke="url(#paint25_linear_1451_2112)" stroke-width="1.75969"/>
</g>
</g>
</g>
<defs>
<filter id="filter0_b_1451_2112" x="199" y="190" width="76" height="76" filterUnits="userSpaceOnUse" color-interpolation-filters="sRGB">
<feFlood flood-opacity="0" result="BackgroundImageFix"/>
<feGaussianBlur in="BackgroundImageFix" stdDeviation="4"/>
<feComposite in2="SourceAlpha" operator="in" result="effect1_backgroundBlur_1451_2112"/>
<feBlend mode="normal" in="SourceGraphic" in2="effect1_backgroundBlur_1451_2112" result="shape"/>
</filter>
<filter id="filter1_dii_1451_2112" x="197" y="197" width="80" height="81" filterUnits="userSpaceOnUse" color-interpolation-filters="sRGB">
<feFlood flood-opacity="0" result="BackgroundImageFix"/>
<feColorMatrix in="SourceAlpha" type="matrix" values="0 0 0 0 0 0 0 0 0 0 0 0 0 0 0 0 0 0 127 0" result="hardAlpha"/>
<feOffset dy="10"/>
<feGaussianBlur stdDeviation="5"/>
<feComposite in2="hardAlpha" operator="out"/>
<feColorMatrix type="matrix" values="0 0 0 0 0 0 0 0 0 0 0 0 0 0 0 0 0 0 0.1 0"/>
<feBlend mode="normal" in2="BackgroundImageFix" result="effect1_dropShadow_1451_2112"/>
<feBlend mode="normal" in="SourceGraphic" in2="effect1_dropShadow_1451_2112" result="shape"/>
<feColorMatrix in="SourceAlpha" type="matrix" values="0 0 0 0 0 0 0 0 0 0 0 0 0 0 0 0 0 0 127 0" result="hardAlpha"/>
<feOffset/>
<feGaussianBlur stdDeviation="5"/>
<feComposite in2="hardAlpha" operator="arithmetic" k2="-1" k3="1"/>
<feColorMatrix type="matrix" values="0 0 0 0 0.943597 0 0 0 0 0.923779 0 0 0 0 1 0 0 0 1 0"/>
<feBlend mode="overlay" in2="shape" result="effect2_innerShadow_1451_2112"/>
<feColorMatrix in="SourceAlpha" type="matrix" values="0 0 0 0 0 0 0 0 0 0 0 0 0 0 0 0 0 0 127 0" result="hardAlpha"/>
<feOffset dy="-1"/>
<feGaussianBlur stdDeviation="10"/>
<feComposite in2="hardAlpha" operator="arithmetic" k2="-1" k3="1"/>
<feColorMatrix type="matrix" values="0 0 0 0 0.92995 0 0 0 0 0.905339 0 0 0 0 1 0 0 0 1 0"/>
<feBlend mode="overlay" in2="effect2_innerShadow_1451_2112" result="effect3_innerShadow_1451_2112"/>
</filter>
<filter id="filter2_b_1451_2112" x="199" y="34" width="76" height="76" filterUnits="userSpaceOnUse" color-interpolation-filters="sRGB">
<feFlood flood-opacity="0" result="BackgroundImageFix"/>
<feGaussianBlur in="BackgroundImageFix" stdDeviation="4"/>
<feComposite in2="SourceAlpha" operator="in" result="effect1_backgroundBlur_1451_2112"/>
<feBlend mode="normal" in="SourceGraphic" in2="effect1_backgroundBlur_1451_2112" result="shape"/>
</filter>
<filter id="filter3_dii_1451_2112" x="197" y="41" width="80" height="81" filterUnits="userSpaceOnUse" color-interpolation-filters="sRGB">
<feFlood flood-opacity="0" result="BackgroundImageFix"/>
<feColorMatrix in="SourceAlpha" type="matrix" values="0 0 0 0 0 0 0 0 0 0 0 0 0 0 0 0 0 0 127 0" result="hardAlpha"/>
<feOffset dy="10"/>
<feGaussianBlur stdDeviation="5"/>
<feComposite in2="hardAlpha" operator="out"/>
<feColorMatrix type="matrix" values="0 0 0 0 0 0 0 0 0 0 0 0 0 0 0 0 0 0 0.1 0"/>
<feBlend mode="normal" in2="BackgroundImageFix" result="effect1_dropShadow_1451_2112"/>
<feBlend mode="normal" in="SourceGraphic" in2="effect1_dropShadow_1451_2112" result="shape"/>
<feColorMatrix in="SourceAlpha" type="matrix" values="0 0 0 0 0 0 0 0 0 0 0 0 0 0 0 0 0 0 127 0" result="hardAlpha"/>
<feOffset/>
<feGaussianBlur stdDeviation="5"/>
<feComposite in2="hardAlpha" operator="arithmetic" k2="-1" k3="1"/>
<feColorMatrix type="matrix" values="0 0 0 0 0.943597 0 0 0 0 0.923779 0 0 0 0 1 0 0 0 1 0"/>
<feBlend mode="overlay" in2="shape" result="effect2_innerShadow_1451_2112"/>
<feColorMatrix in="SourceAlpha" type="matrix" values="0 0 0 0 0 0 0 0 0 0 0 0 0 0 0 0 0 0 127 0" result="hardAlpha"/>
<feOffset dy="-1"/>
<feGaussianBlur stdDeviation="10"/>
<feComposite in2="hardAlpha" operator="arithmetic" k2="-1" k3="1"/>
<feColorMatrix type="matrix" values="0 0 0 0 0.92995 0 0 0 0 0.905339 0 0 0 0 1 0 0 0 1 0"/>
<feBlend mode="overlay" in2="effect2_innerShadow_1451_2112" result="effect3_innerShadow_1451_2112"/>
</filter>
<filter id="filter4_b_1451_2112" x="109" y="34" width="76" height="76" filterUnits="userSpaceOnUse" color-interpolation-filters="sRGB">
<feFlood flood-opacity="0" result="BackgroundImageFix"/>
<feGaussianBlur in="BackgroundImageFix" stdDeviation="4"/>
<feComposite in2="SourceAlpha" operator="in" result="effect1_backgroundBlur_1451_2112"/>
<feBlend mode="normal" in="SourceGraphic" in2="effect1_backgroundBlur_1451_2112" result="shape"/>
</filter>
<filter id="filter5_dii_1451_2112" x="107" y="41" width="80" height="81" filterUnits="userSpaceOnUse" color-interpolation-filters="sRGB">
<feFlood flood-opacity="0" result="BackgroundImageFix"/>
<feColorMatrix in="SourceAlpha" type="matrix" values="0 0 0 0 0 0 0 0 0 0 0 0 0 0 0 0 0 0 127 0" result="hardAlpha"/>
<feOffset dy="10"/>
<feGaussianBlur stdDeviation="5"/>
<feComposite in2="hardAlpha" operator="out"/>
<feColorMatrix type="matrix" values="0 0 0 0 0 0 0 0 0 0 0 0 0 0 0 0 0 0 0.1 0"/>
<feBlend mode="normal" in2="BackgroundImageFix" result="effect1_dropShadow_1451_2112"/>
<feBlend mode="normal" in="SourceGraphic" in2="effect1_dropShadow_1451_2112" result="shape"/>
<feColorMatrix in="SourceAlpha" type="matrix" values="0 0 0 0 0 0 0 0 0 0 0 0 0 0 0 0 0 0 127 0" result="hardAlpha"/>
<feOffset/>
<feGaussianBlur stdDeviation="5"/>
<feComposite in2="hardAlpha" operator="arithmetic" k2="-1" k3="1"/>
<feColorMatrix type="matrix" values="0 0 0 0 0.943597 0 0 0 0 0.923779 0 0 0 0 1 0 0 0 1 0"/>
<feBlend mode="overlay" in2="shape" result="effect2_innerShadow_1451_2112"/>
<feColorMatrix in="SourceAlpha" type="matrix" values="0 0 0 0 0 0 0 0 0 0 0 0 0 0 0 0 0 0 127 0" result="hardAlpha"/>
<feOffset dy="-1"/>
<feGaussianBlur stdDeviation="10"/>
<feComposite in2="hardAlpha" operator="arithmetic" k2="-1" k3="1"/>
<feColorMatrix type="matrix" values="0 0 0 0 0.92995 0 0 0 0 0.905339 0 0 0 0 1 0 0 0 1 0"/>
<feBlend mode="overlay" in2="effect2_innerShadow_1451_2112" result="effect3_innerShadow_1451_2112"/>
</filter>
<filter id="filter6_b_1451_2112" x="244" y="112" width="76" height="76" filterUnits="userSpaceOnUse" color-interpolation-filters="sRGB">
<feFlood flood-opacity="0" result="BackgroundImageFix"/>
<feGaussianBlur in="BackgroundImageFix" stdDeviation="4"/>
<feComposite in2="SourceAlpha" operator="in" result="effect1_backgroundBlur_1451_2112"/>
<feBlend mode="normal" in="SourceGraphic" in2="effect1_backgroundBlur_1451_2112" result="shape"/>
</filter>
<filter id="filter7_dii_1451_2112" x="242" y="119" width="80" height="81" filterUnits="userSpaceOnUse" color-interpolation-filters="sRGB">
<feFlood flood-opacity="0" result="BackgroundImageFix"/>
<feColorMatrix in="SourceAlpha" type="matrix" values="0 0 0 0 0 0 0 0 0 0 0 0 0 0 0 0 0 0 127 0" result="hardAlpha"/>
<feOffset dy="10"/>
<feGaussianBlur stdDeviation="5"/>
<feComposite in2="hardAlpha" operator="out"/>
<feColorMatrix type="matrix" values="0 0 0 0 0 0 0 0 0 0 0 0 0 0 0 0 0 0 0.1 0"/>
<feBlend mode="normal" in2="BackgroundImageFix" result="effect1_dropShadow_1451_2112"/>
<feBlend mode="normal" in="SourceGraphic" in2="effect1_dropShadow_1451_2112" result="shape"/>
<feColorMatrix in="SourceAlpha" type="matrix" values="0 0 0 0 0 0 0 0 0 0 0 0 0 0 0 0 0 0 127 0" result="hardAlpha"/>
<feOffset/>
<feGaussianBlur stdDeviation="5"/>
<feComposite in2="hardAlpha" operator="arithmetic" k2="-1" k3="1"/>
<feColorMatrix type="matrix" values="0 0 0 0 0.943597 0 0 0 0 0.923779 0 0 0 0 1 0 0 0 1 0"/>
<feBlend mode="overlay" in2="shape" result="effect2_innerShadow_1451_2112"/>
<feColorMatrix in="SourceAlpha" type="matrix" values="0 0 0 0 0 0 0 0 0 0 0 0 0 0 0 0 0 0 127 0" result="hardAlpha"/>
<feOffset dy="-1"/>
<feGaussianBlur stdDeviation="10"/>
<feComposite in2="hardAlpha" operator="arithmetic" k2="-1" k3="1"/>
<feColorMatrix type="matrix" values="0 0 0 0 0.92995 0 0 0 0 0.905339 0 0 0 0 1 0 0 0 1 0"/>
<feBlend mode="overlay" in2="effect2_innerShadow_1451_2112" result="effect3_innerShadow_1451_2112"/>
</filter>
<filter id="filter8_b_1451_2112" x="64" y="112" width="76" height="76" filterUnits="userSpaceOnUse" color-interpolation-filters="sRGB">
<feFlood flood-opacity="0" result="BackgroundImageFix"/>
<feGaussianBlur in="BackgroundImageFix" stdDeviation="4"/>
<feComposite in2="SourceAlpha" operator="in" result="effect1_backgroundBlur_1451_2112"/>
<feBlend mode="normal" in="SourceGraphic" in2="effect1_backgroundBlur_1451_2112" result="shape"/>
</filter>
<filter id="filter9_dii_1451_2112" x="62" y="119" width="80" height="81" filterUnits="userSpaceOnUse" color-interpolation-filters="sRGB">
<feFlood flood-opacity="0" result="BackgroundImageFix"/>
<feColorMatrix in="SourceAlpha" type="matrix" values="0 0 0 0 0 0 0 0 0 0 0 0 0 0 0 0 0 0 127 0" result="hardAlpha"/>
<feOffset dy="10"/>
<feGaussianBlur stdDeviation="5"/>
<feComposite in2="hardAlpha" operator="out"/>
<feColorMatrix type="matrix" values="0 0 0 0 0 0 0 0 0 0 0 0 0 0 0 0 0 0 0.1 0"/>
<feBlend mode="normal" in2="BackgroundImageFix" result="effect1_dropShadow_1451_2112"/>
<feBlend mode="normal" in="SourceGraphic" in2="effect1_dropShadow_1451_2112" result="shape"/>
<feColorMatrix in="SourceAlpha" type="matrix" values="0 0 0 0 0 0 0 0 0 0 0 0 0 0 0 0 0 0 127 0" result="hardAlpha"/>
<feOffset/>
<feGaussianBlur stdDeviation="5"/>
<feComposite in2="hardAlpha" operator="arithmetic" k2="-1" k3="1"/>
<feColorMatrix type="matrix" values="0 0 0 0 0.943597 0 0 0 0 0.923779 0 0 0 0 1 0 0 0 1 0"/>
<feBlend mode="overlay" in2="shape" result="effect2_innerShadow_1451_2112"/>
<feColorMatrix in="SourceAlpha" type="matrix" values="0 0 0 0 0 0 0 0 0 0 0 0 0 0 0 0 0 0 127 0" result="hardAlpha"/>
<feOffset dy="-1"/>
<feGaussianBlur stdDeviation="10"/>
<feComposite in2="hardAlpha" operator="arithmetic" k2="-1" k3="1"/>
<feColorMatrix type="matrix" values="0 0 0 0 0.92995 0 0 0 0 0.905339 0 0 0 0 1 0 0 0 1 0"/>
<feBlend mode="overlay" in2="effect2_innerShadow_1451_2112" result="effect3_innerShadow_1451_2112"/>
</filter>
<filter id="filter10_b_1451_2112" x="109" y="190" width="76" height="76" filterUnits="userSpaceOnUse" color-interpolation-filters="sRGB">
<feFlood flood-opacity="0" result="BackgroundImageFix"/>
<feGaussianBlur in="BackgroundImageFix" stdDeviation="4"/>
<feComposite in2="SourceAlpha" operator="in" result="effect1_backgroundBlur_1451_2112"/>
<feBlend mode="normal" in="SourceGraphic" in2="effect1_backgroundBlur_1451_2112" result="shape"/>
</filter>
<filter id="filter11_dii_1451_2112" x="107" y="197" width="80" height="81" filterUnits="userSpaceOnUse" color-interpolation-filters="sRGB">
<feFlood flood-opacity="0" result="BackgroundImageFix"/>
<feColorMatrix in="SourceAlpha" type="matrix" values="0 0 0 0 0 0 0 0 0 0 0 0 0 0 0 0 0 0 127 0" result="hardAlpha"/>
<feOffset dy="10"/>
<feGaussianBlur stdDeviation="5"/>
<feComposite in2="hardAlpha" operator="out"/>
<feColorMatrix type="matrix" values="0 0 0 0 0 0 0 0 0 0 0 0 0 0 0 0 0 0 0.1 0"/>
<feBlend mode="normal" in2="BackgroundImageFix" result="effect1_dropShadow_1451_2112"/>
<feBlend mode="normal" in="SourceGraphic" in2="effect1_dropShadow_1451_2112" result="shape"/>
<feColorMatrix in="SourceAlpha" type="matrix" values="0 0 0 0 0 0 0 0 0 0 0 0 0 0 0 0 0 0 127 0" result="hardAlpha"/>
<feOffset/>
<feGaussianBlur stdDeviation="5"/>
<feComposite in2="hardAlpha" operator="arithmetic" k2="-1" k3="1"/>
<feColorMatrix type="matrix" values="0 0 0 0 0.943597 0 0 0 0 0.923779 0 0 0 0 1 0 0 0 1 0"/>
<feBlend mode="overlay" in2="shape" result="effect2_innerShadow_1451_2112"/>
<feColorMatrix in="SourceAlpha" type="matrix" values="0 0 0 0 0 0 0 0 0 0 0 0 0 0 0 0 0 0 127 0" result="hardAlpha"/>
<feOffset dy="-1"/>
<feGaussianBlur stdDeviation="10"/>
<feComposite in2="hardAlpha" operator="arithmetic" k2="-1" k3="1"/>
<feColorMatrix type="matrix" values="0 0 0 0 0.92995 0 0 0 0 0.905339 0 0 0 0 1 0 0 0 1 0"/>
<feBlend mode="overlay" in2="effect2_innerShadow_1451_2112" result="effect3_innerShadow_1451_2112"/>
</filter>
<filter id="filter12_d_1451_2112" x="146" y="119" width="92" height="96" filterUnits="userSpaceOnUse" color-interpolation-filters="sRGB">
<feFlood flood-opacity="0" result="BackgroundImageFix"/>
<feColorMatrix in="SourceAlpha" type="matrix" values="0 0 0 0 0 0 0 0 0 0 0 0 0 0 0 0 0 0 127 0" result="hardAlpha"/>
<feMorphology radius="8" operator="erode" in="SourceAlpha" result="effect1_dropShadow_1451_2112"/>
<feOffset dy="20"/>
<feGaussianBlur stdDeviation="12"/>
<feComposite in2="hardAlpha" operator="out"/>
<feColorMatrix type="matrix" values="0 0 0 0 1 0 0 0 0 1 0 0 0 0 1 0 0 0 0.1 0"/>
<feBlend mode="normal" in2="BackgroundImageFix" result="effect1_dropShadow_1451_2112"/>
<feBlend mode="normal" in="SourceGraphic" in2="effect1_dropShadow_1451_2112" result="shape"/>
</filter>
<filter id="filter13_b_1451_2112" x="162" y="119" width="60" height="60" filterUnits="userSpaceOnUse" color-interpolation-filters="sRGB">
<feFlood flood-opacity="0" result="BackgroundImageFix"/>
<feGaussianBlur in="BackgroundImageFix" stdDeviation="2"/>
<feComposite in2="SourceAlpha" operator="in" result="effect1_backgroundBlur_1451_2112"/>
<feBlend mode="normal" in="SourceGraphic" in2="effect1_backgroundBlur_1451_2112" result="shape"/>
</filter>
<radialGradient id="paint0_radial_1451_2112" cx="0" cy="0" r="1" gradientUnits="userSpaceOnUse" gradientTransform="translate(192 150) scale(170 168)">
<stop/>
<stop offset="1" stop-opacity="0"/>
</radialGradient>
<radialGradient id="paint1_radial_1451_2112" cx="0" cy="0" r="1" gradientUnits="userSpaceOnUse" gradientTransform="translate(192 150) scale(170)">
<stop stop-color="white" stop-opacity="0.25"/>
<stop offset="1" stop-color="#ABABAB" stop-opacity="0"/>
</radialGradient>
<radialGradient id="paint2_radial_1451_2112" cx="0" cy="0" r="1" gradientUnits="userSpaceOnUse" gradientTransform="translate(192 150) scale(170)">
<stop stop-color="white" stop-opacity="0.25"/>
<stop offset="1" stop-color="white" stop-opacity="0"/>
</radialGradient>
<radialGradient id="paint3_radial_1451_2112" cx="0" cy="0" r="1" gradientUnits="userSpaceOnUse" gradientTransform="translate(267 278.294) rotate(-131.312) scale(106.899 39.4762)">
<stop stop-color="#5DE4C7" stop-opacity="0"/>
<stop offset="1" stop-color="#5DE4C7"/>
</radialGradient>
<linearGradient id="paint4_linear_1451_2112" x1="226.912" y1="239.617" x2="253.026" y2="199.879" gradientUnits="userSpaceOnUse">
<stop stop-color="white" stop-opacity="0.5"/>
<stop offset="1" stop-color="white" stop-opacity="0.5"/>
</linearGradient>
<linearGradient id="paint5_linear_1451_2112" x1="237.371" y1="213.818" x2="237.447" y2="235.189" gradientUnits="userSpaceOnUse">
<stop stop-color="#F8F8F8" stop-opacity="0.81"/>
<stop offset="1" stop-color="#F8F8F8" stop-opacity="0.09"/>
</linearGradient>
<linearGradient id="paint6_linear_1451_2112" x1="240.485" y1="213.818" x2="240.648" y2="241.818" gradientUnits="userSpaceOnUse">
<stop stop-color="#F8F8F8" stop-opacity="0.81"/>
<stop offset="1" stop-color="#F8F8F8" stop-opacity="0.09"/>
</linearGradient>
<radialGradient id="paint7_radial_1451_2112" cx="0" cy="0" r="1" gradientUnits="userSpaceOnUse" gradientTransform="translate(267 122.294) rotate(-131.312) scale(106.899 39.4762)">
<stop stop-color="#F9A96E" stop-opacity="0"/>
<stop offset="1" stop-color="#F9A96E"/>
</radialGradient>
<linearGradient id="paint8_linear_1451_2112" x1="226.912" y1="83.617" x2="253.026" y2="43.8795" gradientUnits="userSpaceOnUse">
<stop stop-color="white" stop-opacity="0.5"/>
<stop offset="1" stop-color="white" stop-opacity="0.5"/>
</linearGradient>
<linearGradient id="paint9_linear_1451_2112" x1="237.317" y1="64.2222" x2="237.359" y2="80.4187" gradientUnits="userSpaceOnUse">
<stop stop-color="#F8F8F8" stop-opacity="0.81"/>
<stop offset="1" stop-color="#F8F8F8" stop-opacity="0.09"/>
</linearGradient>
<radialGradient id="paint10_radial_1451_2112" cx="0" cy="0" r="1" gradientUnits="userSpaceOnUse" gradientTransform="translate(177 122.294) rotate(-131.312) scale(106.899 39.4762)">
<stop stop-color="#5DE4C7" stop-opacity="0"/>
<stop offset="1" stop-color="#5DE4C7"/>
</radialGradient>
<linearGradient id="paint11_linear_1451_2112" x1="136.912" y1="83.617" x2="163.026" y2="43.8795" gradientUnits="userSpaceOnUse">
<stop stop-color="white" stop-opacity="0.5"/>
<stop offset="1" stop-color="white" stop-opacity="0.5"/>
</linearGradient>
<linearGradient id="paint12_linear_1451_2112" x1="147.074" y1="59.104" x2="147.207" y2="87.3468" gradientUnits="userSpaceOnUse">
<stop stop-color="#F8F8F8" stop-opacity="0.81"/>
<stop offset="1" stop-color="#F8F8F8" stop-opacity="0.09"/>
</linearGradient>
<radialGradient id="paint13_radial_1451_2112" cx="0" cy="0" r="1" gradientUnits="userSpaceOnUse" gradientTransform="translate(312 200.294) rotate(-131.312) scale(106.899 39.4762)">
<stop stop-color="#5A4286" stop-opacity="0"/>
<stop offset="1" stop-color="#5A4286"/>
</radialGradient>
<linearGradient id="paint14_linear_1451_2112" x1="271.912" y1="161.617" x2="298.026" y2="121.879" gradientUnits="userSpaceOnUse">
<stop stop-color="white" stop-opacity="0.5"/>
<stop offset="1" stop-color="white" stop-opacity="0.5"/>
</linearGradient>
<linearGradient id="paint15_linear_1451_2112" x1="286.901" y1="139.351" x2="286.967" y2="155.134" gradientUnits="userSpaceOnUse">
<stop stop-color="#F8F8F8" stop-opacity="0.81"/>
<stop offset="1" stop-color="#F8F8F8" stop-opacity="0.09"/>
</linearGradient>
<linearGradient id="paint16_linear_1451_2112" x1="284.763" y1="155.134" x2="284.778" y2="163.567" gradientUnits="userSpaceOnUse">
<stop stop-color="#F8F8F8" stop-opacity="0.81"/>
<stop offset="1" stop-color="#F8F8F8" stop-opacity="0.09"/>
</linearGradient>
<linearGradient id="paint17_linear_1451_2112" x1="275.358" y1="139.351" x2="275.566" y2="163.565" gradientUnits="userSpaceOnUse">
<stop stop-color="#F8F8F8" stop-opacity="0.81"/>
<stop offset="1" stop-color="#F8F8F8" stop-opacity="0.09"/>
</linearGradient>
<radialGradient id="paint18_radial_1451_2112" cx="0" cy="0" r="1" gradientUnits="userSpaceOnUse" gradientTransform="translate(132 200.294) rotate(-131.312) scale(106.899 39.4762)">
<stop stop-color="#5A4286" stop-opacity="0"/>
<stop offset="1" stop-color="#5A4286"/>
</radialGradient>
<linearGradient id="paint19_linear_1451_2112" x1="91.9122" y1="161.617" x2="118.026" y2="121.879" gradientUnits="userSpaceOnUse">
<stop stop-color="white" stop-opacity="0.5"/>
<stop offset="1" stop-color="white" stop-opacity="0.5"/>
</linearGradient>
<linearGradient id="paint20_linear_1451_2112" x1="99.3767" y1="144.755" x2="99.4188" y2="160.321" gradientUnits="userSpaceOnUse">
<stop stop-color="#F8F8F8" stop-opacity="0.81"/>
<stop offset="1" stop-color="#F8F8F8" stop-opacity="0.09"/>
</linearGradient>
<radialGradient id="paint21_radial_1451_2112" cx="0" cy="0" r="1" gradientUnits="userSpaceOnUse" gradientTransform="translate(177 278.294) rotate(-131.312) scale(106.899 39.4762)">
<stop stop-color="#F9A96E" stop-opacity="0"/>
<stop offset="1" stop-color="#F9A96E"/>
</radialGradient>
<linearGradient id="paint22_linear_1451_2112" x1="136.912" y1="239.617" x2="163.026" y2="199.879" gradientUnits="userSpaceOnUse">
<stop stop-color="white" stop-opacity="0.5"/>
<stop offset="1" stop-color="white" stop-opacity="0.5"/>
</linearGradient>
<linearGradient id="paint23_linear_1451_2112" x1="146.93" y1="214" x2="147.07" y2="242" gradientUnits="userSpaceOnUse">
<stop stop-color="#F8F8F8" stop-opacity="0.81"/>
<stop offset="1" stop-color="#F8F8F8" stop-opacity="0.09"/>
</linearGradient>
<linearGradient id="paint24_linear_1451_2112" x1="184.885" y1="139" x2="196.052" y2="173.066" gradientUnits="userSpaceOnUse">
<stop stop-color="white"/>
<stop offset="1" stop-color="#505050"/>
</linearGradient>
<linearGradient id="paint25_linear_1451_2112" x1="192" y1="119.75" x2="192" y2="178.25" gradientUnits="userSpaceOnUse">
<stop stop-color="#AE88F6"/>
<stop offset="1" stop-color="#9667ED"/>
</linearGradient>
<clipPath id="clip0_1451_2112">
<rect x="207" y="198" width="60" height="60" rx="30" fill="white"/>
</clipPath>
<clipPath id="clip1_1451_2112">
<rect width="82" height="83" fill="white" transform="translate(196 186)"/>
</clipPath>
<clipPath id="clip2_1451_2112">
<rect width="30.1075" height="28" fill="white" transform="translate(222.393 213.818)"/>
</clipPath>
<clipPath id="clip3_1451_2112">
<rect x="207" y="42" width="60" height="60" rx="30" fill="white"/>
</clipPath>
<clipPath id="clip4_1451_2112">
<rect width="30.9326" height="30.9326" fill="white" transform="translate(221.927 56.8516)"/>
</clipPath>
<clipPath id="clip5_1451_2112">
<rect x="117" y="42" width="60" height="60" rx="30" fill="white"/>
</clipPath>
<clipPath id="clip6_1451_2112">
<rect width="82" height="82" fill="white" transform="translate(106 31)"/>
</clipPath>
<clipPath id="clip7_1451_2112">
<rect x="252" y="120" width="60" height="60" rx="30" fill="white"/>
</clipPath>
<clipPath id="clip8_1451_2112">
<rect width="28" height="24.2816" fill="white" transform="translate(268.393 139.318)"/>
</clipPath>
<clipPath id="clip9_1451_2112">
<rect x="72" y="120" width="60" height="60" rx="30" fill="white"/>
</clipPath>
<clipPath id="clip10_1451_2112">
<rect x="117" y="198" width="60" height="60" rx="30" fill="white"/>
</clipPath>
<clipPath id="clip11_1451_2112">
<rect width="28" height="28" fill="white" transform="translate(133 214)"/>
</clipPath>
<clipPath id="clip12_1451_2112">
<rect x="162" y="119" width="60" height="60" rx="30" fill="white"/>
</clipPath>
<clipPath id="clip13_1451_2112">
<rect width="60" height="60" fill="white" transform="translate(162 119)"/>
</clipPath>
</defs>
</svg>
