<svg width="385" height="337" viewBox="0 0 385 337" fill="none" xmlns="http://www.w3.org/2000/svg">
<mask id="mask0_356_8933" style="mask-type:alpha" maskUnits="userSpaceOnUse" x="22" y="0" width="341" height="337">
<rect x="22.4785" y="0.591064" width="340" height="336" fill="url(#paint0_radial_356_8933)"/>
</mask>
<g mask="url(#mask0_356_8933)">
<g opacity="0.5">
<rect x="22.4785" y="-171.409" width="340" height="340" rx="170" fill="url(#paint1_radial_356_8933)"/>
<rect x="22.9785" y="-170.909" width="339" height="339" rx="169.5" stroke="white" stroke-opacity="0.2"/>
</g>
<g opacity="0.5">
<rect x="22.4785" y="168.591" width="340" height="340" rx="170" fill="url(#paint2_radial_356_8933)"/>
<rect x="22.9785" y="169.091" width="339" height="339" rx="169.5" stroke="white" stroke-opacity="0.2"/>
</g>
</g>
<g clip-path="url(#clip0_356_8933)">
<g filter="url(#filter0_b_356_8933)">
<g clip-path="url(#clip1_356_8933)">
<rect x="207.479" y="216.591" width="60" height="60" rx="30" fill="#F8F8F8" fill-opacity="0.01"/>
<rect x="207.979" y="217.091" width="59" height="59" rx="29.5" stroke="white" stroke-opacity="0.05"/>
</g>
</g>
<g filter="url(#filter1_b_356_8933)">
<g clip-path="url(#clip2_356_8933)">
<rect x="252.479" y="138.591" width="60" height="60" rx="30" fill="#F8F8F8" fill-opacity="0.01"/>
<rect x="252.979" y="139.091" width="59" height="59" rx="29.5" stroke="white" stroke-opacity="0.05"/>
</g>
</g>
<g filter="url(#filter2_b_356_8933)">
<g clip-path="url(#clip3_356_8933)">
<rect x="207.479" y="60.5911" width="60" height="60" rx="30" fill="#F8F8F8" fill-opacity="0.01"/>
<rect x="207.979" y="61.0911" width="59" height="59" rx="29.5" stroke="white" stroke-opacity="0.05"/>
<g clip-path="url(#clip4_356_8933)">
<path d="M238.306 96.6604C236.411 96.6701 234.865 95.1462 234.856 93.252C234.841 91.3574 236.367 89.8142 238.263 89.8026C240.158 89.7881 241.702 91.3139 241.715 93.2081C241.729 95.1022 240.203 96.6493 238.307 96.6604M228.205 96.7247C226.31 96.7378 224.764 95.2119 224.753 93.3192C224.74 91.4236 226.266 89.878 228.162 89.8669C229.071 89.8616 229.945 90.2172 230.592 90.8557C231.239 91.4942 231.607 92.3633 231.614 93.2723C231.619 94.182 231.263 95.0567 230.624 95.7041C229.985 96.3515 229.115 96.7186 228.205 96.7247ZM238.249 87.5126C236.058 87.5281 234.166 88.7717 233.217 90.5831C232.244 88.7818 230.337 87.5624 228.148 87.5778C226.911 87.5827 225.709 87.9916 224.724 88.7417L224.693 83.9268C224.685 83.6274 224.56 83.3432 224.344 83.135C224.129 82.9269 223.841 82.8114 223.541 82.8133C223.242 82.815 222.956 82.9342 222.743 83.1451C222.531 83.356 222.411 83.6418 222.407 83.9408L222.462 93.4222H222.465C222.499 94.9217 223.122 96.3478 224.197 97.393C225.273 98.4381 226.717 99.0186 228.217 99.0094C230.405 98.9949 232.297 97.7513 233.25 95.9384C234.22 97.7387 236.131 98.9581 238.32 98.9446C241.477 98.9253 244.02 96.3477 244.001 93.1897C243.982 90.0317 241.4 87.487 238.246 87.5073M253.098 97.0514L249.888 93.1559L253.047 89.2197C253.434 88.7146 253.319 88.0104 252.776 87.6392C252.228 87.2695 251.463 87.3686 251.05 87.8601V87.8582L248.32 91.2559L245.549 87.8968C245.129 87.4096 244.36 87.3188 243.821 87.6967C243.28 88.0752 243.171 88.7794 243.57 89.283L246.777 93.1762L243.618 97.1104C243.226 97.6179 243.345 98.3202 243.892 98.6909C244.435 99.063 245.203 98.963 245.616 98.471L248.343 95.0751L251.118 98.4362C251.537 98.9243 252.305 99.0128 252.848 98.6353C253.388 98.2535 253.495 97.5526 253.099 97.05" fill="url(#paint3_linear_356_8933)"/>
</g>
</g>
</g>
<g filter="url(#filter3_b_356_8933)">
<g clip-path="url(#clip5_356_8933)">
<rect x="117.479" y="60.5911" width="60" height="60" rx="30" fill="#F8F8F8" fill-opacity="0.01"/>
<rect x="117.979" y="61.0911" width="59" height="59" rx="29.5" stroke="white" stroke-opacity="0.05"/>
</g>
</g>
<g filter="url(#filter4_b_356_8933)">
<g clip-path="url(#clip6_356_8933)">
<rect x="72.4785" y="138.591" width="60" height="60" rx="30" fill="#F8F8F8" fill-opacity="0.01"/>
<rect x="72.9785" y="139.091" width="59" height="59" rx="29.5" stroke="white" stroke-opacity="0.05"/>
</g>
</g>
<g filter="url(#filter5_b_356_8933)">
<g clip-path="url(#clip7_356_8933)">
<rect x="117.479" y="216.591" width="60" height="60" rx="30" fill="#F8F8F8" fill-opacity="0.01"/>
<rect x="117.979" y="217.091" width="59" height="59" rx="29.5" stroke="white" stroke-opacity="0.05"/>
</g>
</g>
<g opacity="0.6">
<g clip-path="url(#clip8_356_8933)">
<g clip-path="url(#clip9_356_8933)">
<path d="M231.728 231.909L222.873 237.691L228.996 242.594L237.925 237.081L231.728 231.909ZM222.873 247.498L231.728 253.28L237.925 248.108L228.996 242.594L222.873 247.498ZM237.925 248.108L244.122 253.28L252.977 247.498L246.854 242.594L237.925 248.108Z" fill="url(#paint4_linear_356_8933)"/>
<path d="M252.977 237.691L244.122 231.909L237.925 237.081L246.854 242.594L252.977 237.691ZM237.944 249.22L231.729 254.377L229.069 252.641V254.588L237.944 259.909L246.818 254.588V252.641L244.158 254.377L237.944 249.22Z" fill="url(#paint5_linear_356_8933)"/>
</g>
</g>
</g>
<g opacity="0.6">
<g clip-path="url(#clip10_356_8933)">
<g clip-path="url(#clip11_356_8933)">
<path d="M93.6651 164.572C94.8844 164.591 96.0995 164.721 97.2951 164.961C98.4221 165.175 99.5686 165.567 100.727 165.563C101.613 165.563 102.328 164.942 102.32 164.191C102.312 163.441 101.601 162.804 100.7 162.808C100.185 162.816 99.6738 162.902 99.1839 163.06C99.3121 162.971 99.4404 162.878 99.5725 162.796C101.338 161.735 103.385 161.237 105.441 161.366C107.618 161.467 109.895 162.143 111.582 163.589C112.554 164.437 113.299 165.515 113.749 166.725C114.198 167.934 114.338 169.237 114.155 170.515C113.936 171.815 113.385 173.037 112.557 174.063C111.729 175.089 110.65 175.884 109.425 176.372C107.618 177.015 105.657 177.085 103.809 176.574C101.399 175.96 99.2849 174.63 97.0152 173.643C95.6911 173.137 94.3124 172.788 92.9072 172.602H92.9267C93.4718 172.637 94.0175 172.544 94.5201 172.33C95.1964 172.007 95.1925 171.23 94.8427 170.659C94.4268 169.986 93.5874 169.71 92.8606 169.493C91.592 169.162 90.2686 169.098 88.9741 169.306C88.0225 169.41 87.1111 169.747 86.3197 170.285C86.0177 170.506 85.7769 170.801 85.6201 171.14C86.8171 167.825 89.1957 168.198 90.6725 167.293C90.8366 167.188 90.959 167.028 91.0185 166.843C91.0781 166.657 91.0713 166.457 90.9991 166.276C90.9269 166.094 90.794 165.944 90.623 165.85C90.4521 165.756 90.2539 165.725 90.0623 165.762C89.6458 165.862 89.2576 166.056 88.9275 166.329L88.5971 166.582C88.5971 166.582 89.7786 164.572 93.6651 164.572Z" fill="url(#paint6_linear_356_8933)"/>
<path d="M107.423 166.418C105.837 166.418 105.184 167.417 103.467 168.361C100.494 169.986 98.7252 169.294 98.7252 169.38C98.7252 169.465 99.93 169.974 102.884 171.408C104.291 172.157 105.85 172.576 107.443 172.633C108.267 172.633 109.058 172.305 109.641 171.722C110.224 171.139 110.552 170.348 110.552 169.523C110.552 168.699 110.224 167.908 109.641 167.325C109.058 166.742 108.267 166.414 107.443 166.414L107.423 166.418Z" fill="white"/>
</g>
</g>
</g>
<g opacity="0.6">
<g clip-path="url(#clip12_356_8933)">
<path fill-rule="evenodd" clip-rule="evenodd" d="M147.176 105.938L140.557 103.563V93.8635L147.176 96.1179V105.938ZM148.382 105.938L155.002 103.563V93.8635L148.382 96.1197V105.938ZM141.239 93.1352L147.918 91.2491L154.13 93.253L147.918 95.3618L141.239 93.1352ZM139.298 92.393L132.676 90.0106V80.2973L139.295 82.5517L139.298 92.393ZM140.51 92.393L147.13 90.0181V80.2973L140.509 82.5628L140.51 92.393ZM133.367 79.5904L140.047 77.6951L146.259 79.699L140.047 81.8077L133.367 79.5904ZM154.753 92.393L148.134 90.0181V80.2973L154.753 82.5517V92.393ZM155.959 92.393L162.578 90.0181V80.2973L155.959 82.5517V92.393ZM148.815 79.5904L155.495 77.7043L161.707 79.7082L155.495 81.817L148.815 79.5904Z" fill="url(#paint7_linear_356_8933)"/>
</g>
</g>
<g opacity="0.6">
<g clip-path="url(#clip13_356_8933)">
<path d="M282.479 197.994C299.047 197.994 312.479 184.562 312.479 167.994C312.479 151.425 299.047 137.994 282.479 137.994C265.91 137.994 252.479 151.425 252.479 167.994C252.479 184.562 265.91 197.994 282.479 197.994Z" fill="#F8F8F8" fill-opacity="0.01"/>
<path d="M282.479 197.244C298.633 197.244 311.729 184.148 311.729 167.994C311.729 151.84 298.633 138.744 282.479 138.744C266.324 138.744 253.229 151.84 253.229 167.994C253.229 184.148 266.324 197.244 282.479 197.244Z" stroke="#F8F8F8" stroke-opacity="0.1" stroke-width="1.5"/>
<g clip-path="url(#clip14_356_8933)">
<path d="M277.982 155.942H287.717L296.871 171.725H287.115L277.982 155.942Z" fill="url(#paint8_linear_356_8933)"/>
<path d="M296.871 171.725L291.993 180.158H273.728L278.617 171.725H296.871Z" fill="url(#paint9_linear_356_8933)"/>
<path d="M273.727 180.158L268.871 171.725L277.982 155.942L282.871 164.397L273.727 180.158Z" fill="url(#paint10_linear_356_8933)"/>
<path opacity="0.1" d="M273.728 180.158L282.817 171.725H278.617L273.728 180.158ZM296.871 171.725H287.126L284.982 168.028L296.871 171.725ZM277.982 155.942L280.793 167.973L282.871 164.397L277.982 155.942Z" fill="black"/>
</g>
</g>
</g>
<g opacity="0.6">
<g clip-path="url(#clip15_356_8933)">
<g clip-path="url(#clip16_356_8933)">
<path d="M147.871 260.909C155.603 260.909 161.871 254.641 161.871 246.909C161.871 239.177 155.603 232.909 147.871 232.909C140.139 232.909 133.871 239.177 133.871 246.909C133.871 254.641 140.139 260.909 147.871 260.909Z" fill="url(#paint11_linear_356_8933)"/>
<path d="M139.6 241.239H142.901L147.871 246.288L152.881 241.239H156.066V252.618H152.726V246.025L148.661 250.093H147.082L143.017 246.025V252.618H139.6V241.239Z" fill="white"/>
</g>
</g>
</g>
</g>
<rect x="166.479" y="141.591" width="52" height="52" rx="26" fill="#4F4F4F"/>
<g filter="url(#filter6_d_356_8933)">
<g clip-path="url(#clip17_356_8933)">
<rect x="162.479" y="137.591" width="60" height="60" rx="30" fill="white" fill-opacity="0.01" shape-rendering="crispEdges"/>
<g clip-path="url(#clip18_356_8933)">
<mask id="mask1_356_8933" style="mask-type:luminance" maskUnits="userSpaceOnUse" x="162" y="137" width="61" height="61">
<path d="M222.479 167.591C222.479 151.023 209.047 137.591 192.479 137.591C175.91 137.591 162.479 151.023 162.479 167.591C162.479 184.16 175.91 197.591 192.479 197.591C209.047 197.591 222.479 184.16 222.479 167.591Z" fill="white"/>
</mask>
<g mask="url(#mask1_356_8933)">
<path d="M218.479 167.591C218.479 153.232 206.838 141.591 192.479 141.591C178.119 141.591 166.479 153.232 166.479 167.591C166.479 181.95 178.119 193.591 192.479 193.591C206.838 193.591 218.479 181.95 218.479 167.591Z" fill="#F8F8F8" fill-opacity="0.01"/>
<path d="M218.479 167.591C218.479 153.232 206.838 141.591 192.479 141.591C178.119 141.591 166.479 153.232 166.479 167.591C166.479 181.95 178.119 193.591 192.479 193.591C206.838 193.591 218.479 181.95 218.479 167.591Z" fill="white" fill-opacity="0.2"/>
<path fill-rule="evenodd" clip-rule="evenodd" d="M193.229 162.341C193.229 161.927 192.893 161.591 192.479 161.591C192.064 161.591 191.729 161.927 191.729 162.341V164.216C191.729 165.666 190.553 166.841 189.104 166.841H187.229C186.814 166.841 186.479 167.177 186.479 167.591C186.479 168.005 186.814 168.341 187.229 168.341H189.104C190.553 168.341 191.729 169.516 191.729 170.966V172.841C191.729 173.255 192.064 173.591 192.479 173.591C192.893 173.591 193.229 173.255 193.229 172.841V170.966C193.229 169.516 194.404 168.341 195.854 168.341H197.729C198.143 168.341 198.479 168.005 198.479 167.591C198.479 167.177 198.143 166.841 197.729 166.841H195.854C194.404 166.841 193.229 165.666 193.229 164.216V162.341Z" fill="#F8F8F8"/>
</g>
<path d="M221.729 167.591C221.729 151.437 208.633 138.341 192.479 138.341C176.324 138.341 163.229 151.437 163.229 167.591C163.229 183.745 176.324 196.841 192.479 196.841C208.633 196.841 221.729 183.745 221.729 167.591Z" stroke="#F8F8F8" stroke-opacity="0.4" stroke-width="1.5"/>
</g>
</g>
</g>
<defs>
<filter id="filter0_b_356_8933" x="199.479" y="208.591" width="76" height="76" filterUnits="userSpaceOnUse" color-interpolation-filters="sRGB">
<feFlood flood-opacity="0" result="BackgroundImageFix"/>
<feGaussianBlur in="BackgroundImageFix" stdDeviation="4"/>
<feComposite in2="SourceAlpha" operator="in" result="effect1_backgroundBlur_356_8933"/>
<feBlend mode="normal" in="SourceGraphic" in2="effect1_backgroundBlur_356_8933" result="shape"/>
</filter>
<filter id="filter1_b_356_8933" x="244.479" y="130.591" width="76" height="76" filterUnits="userSpaceOnUse" color-interpolation-filters="sRGB">
<feFlood flood-opacity="0" result="BackgroundImageFix"/>
<feGaussianBlur in="BackgroundImageFix" stdDeviation="4"/>
<feComposite in2="SourceAlpha" operator="in" result="effect1_backgroundBlur_356_8933"/>
<feBlend mode="normal" in="SourceGraphic" in2="effect1_backgroundBlur_356_8933" result="shape"/>
</filter>
<filter id="filter2_b_356_8933" x="199.479" y="52.5911" width="76" height="76" filterUnits="userSpaceOnUse" color-interpolation-filters="sRGB">
<feFlood flood-opacity="0" result="BackgroundImageFix"/>
<feGaussianBlur in="BackgroundImageFix" stdDeviation="4"/>
<feComposite in2="SourceAlpha" operator="in" result="effect1_backgroundBlur_356_8933"/>
<feBlend mode="normal" in="SourceGraphic" in2="effect1_backgroundBlur_356_8933" result="shape"/>
</filter>
<filter id="filter3_b_356_8933" x="109.479" y="52.5911" width="76" height="76" filterUnits="userSpaceOnUse" color-interpolation-filters="sRGB">
<feFlood flood-opacity="0" result="BackgroundImageFix"/>
<feGaussianBlur in="BackgroundImageFix" stdDeviation="4"/>
<feComposite in2="SourceAlpha" operator="in" result="effect1_backgroundBlur_356_8933"/>
<feBlend mode="normal" in="SourceGraphic" in2="effect1_backgroundBlur_356_8933" result="shape"/>
</filter>
<filter id="filter4_b_356_8933" x="64.4785" y="130.591" width="76" height="76" filterUnits="userSpaceOnUse" color-interpolation-filters="sRGB">
<feFlood flood-opacity="0" result="BackgroundImageFix"/>
<feGaussianBlur in="BackgroundImageFix" stdDeviation="4"/>
<feComposite in2="SourceAlpha" operator="in" result="effect1_backgroundBlur_356_8933"/>
<feBlend mode="normal" in="SourceGraphic" in2="effect1_backgroundBlur_356_8933" result="shape"/>
</filter>
<filter id="filter5_b_356_8933" x="109.479" y="208.591" width="76" height="76" filterUnits="userSpaceOnUse" color-interpolation-filters="sRGB">
<feFlood flood-opacity="0" result="BackgroundImageFix"/>
<feGaussianBlur in="BackgroundImageFix" stdDeviation="4"/>
<feComposite in2="SourceAlpha" operator="in" result="effect1_backgroundBlur_356_8933"/>
<feBlend mode="normal" in="SourceGraphic" in2="effect1_backgroundBlur_356_8933" result="shape"/>
</filter>
<filter id="filter6_d_356_8933" x="146.479" y="137.591" width="92" height="96" filterUnits="userSpaceOnUse" color-interpolation-filters="sRGB">
<feFlood flood-opacity="0" result="BackgroundImageFix"/>
<feColorMatrix in="SourceAlpha" type="matrix" values="0 0 0 0 0 0 0 0 0 0 0 0 0 0 0 0 0 0 127 0" result="hardAlpha"/>
<feMorphology radius="8" operator="erode" in="SourceAlpha" result="effect1_dropShadow_356_8933"/>
<feOffset dy="20"/>
<feGaussianBlur stdDeviation="12"/>
<feComposite in2="hardAlpha" operator="out"/>
<feColorMatrix type="matrix" values="0 0 0 0 1 0 0 0 0 1 0 0 0 0 1 0 0 0 0.2 0"/>
<feBlend mode="normal" in2="BackgroundImageFix" result="effect1_dropShadow_356_8933"/>
<feBlend mode="normal" in="SourceGraphic" in2="effect1_dropShadow_356_8933" result="shape"/>
</filter>
<radialGradient id="paint0_radial_356_8933" cx="0" cy="0" r="1" gradientUnits="userSpaceOnUse" gradientTransform="translate(192.479 168.591) scale(170 168)">
<stop/>
<stop offset="1" stop-opacity="0"/>
</radialGradient>
<radialGradient id="paint1_radial_356_8933" cx="0" cy="0" r="1" gradientUnits="userSpaceOnUse" gradientTransform="translate(192.479 168.591) scale(170)">
<stop stop-color="white" stop-opacity="0.25"/>
<stop offset="1" stop-color="#ABABAB" stop-opacity="0"/>
</radialGradient>
<radialGradient id="paint2_radial_356_8933" cx="0" cy="0" r="1" gradientUnits="userSpaceOnUse" gradientTransform="translate(192.479 168.591) scale(170)">
<stop stop-color="white" stop-opacity="0.25"/>
<stop offset="1" stop-color="white" stop-opacity="0"/>
</radialGradient>
<linearGradient id="paint3_linear_356_8933" x1="237.795" y1="82.8132" x2="237.838" y2="99.0098" gradientUnits="userSpaceOnUse">
<stop stop-color="#F8F8F8" stop-opacity="0.81"/>
<stop offset="1" stop-color="#F8F8F8" stop-opacity="0.09"/>
</linearGradient>
<linearGradient id="paint4_linear_356_8933" x1="237.85" y1="231.909" x2="237.926" y2="253.28" gradientUnits="userSpaceOnUse">
<stop stop-color="#F8F8F8" stop-opacity="0.81"/>
<stop offset="1" stop-color="#F8F8F8" stop-opacity="0.09"/>
</linearGradient>
<linearGradient id="paint5_linear_356_8933" x1="240.964" y1="231.909" x2="241.127" y2="259.909" gradientUnits="userSpaceOnUse">
<stop stop-color="#F8F8F8" stop-opacity="0.81"/>
<stop offset="1" stop-color="#F8F8F8" stop-opacity="0.09"/>
</linearGradient>
<linearGradient id="paint6_linear_356_8933" x1="99.8552" y1="161.346" x2="99.8974" y2="176.912" gradientUnits="userSpaceOnUse">
<stop stop-color="#F8F8F8" stop-opacity="0.81"/>
<stop offset="1" stop-color="#F8F8F8" stop-opacity="0.09"/>
</linearGradient>
<linearGradient id="paint7_linear_356_8933" x1="147.553" y1="77.6951" x2="147.685" y2="105.938" gradientUnits="userSpaceOnUse">
<stop stop-color="#F8F8F8" stop-opacity="0.81"/>
<stop offset="1" stop-color="#F8F8F8" stop-opacity="0.09"/>
</linearGradient>
<linearGradient id="paint8_linear_356_8933" x1="287.38" y1="155.942" x2="287.446" y2="171.725" gradientUnits="userSpaceOnUse">
<stop stop-color="#F8F8F8" stop-opacity="0.81"/>
<stop offset="1" stop-color="#F8F8F8" stop-opacity="0.09"/>
</linearGradient>
<linearGradient id="paint9_linear_356_8933" x1="285.242" y1="171.725" x2="285.257" y2="180.158" gradientUnits="userSpaceOnUse">
<stop stop-color="#F8F8F8" stop-opacity="0.81"/>
<stop offset="1" stop-color="#F8F8F8" stop-opacity="0.09"/>
</linearGradient>
<linearGradient id="paint10_linear_356_8933" x1="275.836" y1="155.942" x2="276.045" y2="180.156" gradientUnits="userSpaceOnUse">
<stop stop-color="#F8F8F8" stop-opacity="0.81"/>
<stop offset="1" stop-color="#F8F8F8" stop-opacity="0.09"/>
</linearGradient>
<linearGradient id="paint11_linear_356_8933" x1="147.801" y1="232.909" x2="147.941" y2="260.909" gradientUnits="userSpaceOnUse">
<stop stop-color="#F8F8F8" stop-opacity="0.81"/>
<stop offset="1" stop-color="#F8F8F8" stop-opacity="0.09"/>
</linearGradient>
<clipPath id="clip0_356_8933">
<rect width="240" height="238" fill="white" transform="translate(72.4785 49.5911)"/>
</clipPath>
<clipPath id="clip1_356_8933">
<rect x="207.479" y="216.591" width="60" height="60" rx="30" fill="white"/>
</clipPath>
<clipPath id="clip2_356_8933">
<rect x="252.479" y="138.591" width="60" height="60" rx="30" fill="white"/>
</clipPath>
<clipPath id="clip3_356_8933">
<rect x="207.479" y="60.5911" width="60" height="60" rx="30" fill="white"/>
</clipPath>
<clipPath id="clip4_356_8933">
<rect width="30.9326" height="30.9326" fill="white" transform="translate(222.405 75.4426)"/>
</clipPath>
<clipPath id="clip5_356_8933">
<rect x="117.479" y="60.5911" width="60" height="60" rx="30" fill="white"/>
</clipPath>
<clipPath id="clip6_356_8933">
<rect x="72.4785" y="138.591" width="60" height="60" rx="30" fill="white"/>
</clipPath>
<clipPath id="clip7_356_8933">
<rect x="117.479" y="216.591" width="60" height="60" rx="30" fill="white"/>
</clipPath>
<clipPath id="clip8_356_8933">
<rect width="82" height="83" fill="white" transform="translate(196.479 204.091)"/>
</clipPath>
<clipPath id="clip9_356_8933">
<rect width="30.1075" height="28" fill="white" transform="translate(222.871 231.909)"/>
</clipPath>
<clipPath id="clip10_356_8933">
<rect width="60" height="61" fill="white" transform="translate(72.4785 137.071)"/>
</clipPath>
<clipPath id="clip11_356_8933">
<rect width="32" height="18.1888" fill="white" transform="translate(82.8711 159.909)"/>
</clipPath>
<clipPath id="clip12_356_8933">
<rect width="82" height="82" fill="white" transform="translate(106.479 49.5911)"/>
</clipPath>
<clipPath id="clip13_356_8933">
<rect width="60" height="61" fill="white" transform="translate(252.479 137.071)"/>
</clipPath>
<clipPath id="clip14_356_8933">
<rect width="28" height="24.2816" fill="white" transform="translate(268.871 155.909)"/>
</clipPath>
<clipPath id="clip15_356_8933">
<rect width="82" height="83" fill="white" transform="translate(106.479 204.091)"/>
</clipPath>
<clipPath id="clip16_356_8933">
<rect width="28" height="28" fill="white" transform="translate(133.871 232.909)"/>
</clipPath>
<clipPath id="clip17_356_8933">
<rect x="162.479" y="137.591" width="60" height="60" rx="30" fill="white"/>
</clipPath>
<clipPath id="clip18_356_8933">
<rect width="60" height="60" fill="white" transform="translate(162.479 137.591)"/>
</clipPath>
</defs>
</svg>
