<svg width="33" height="33" viewBox="0 0 33 33" fill="none" xmlns="http://www.w3.org/2000/svg">
<g clip-path="url(#clip0_1287_12709)">
<path fill-rule="evenodd" clip-rule="evenodd" d="M30.0964 13.3075C28.654 14.8506 26.29 16.0248 23.8874 16.5C26.29 16.9752 28.654 18.1494 30.0962 19.6925L31.7337 21.4443L29.3793 21.899C27.3053 22.2995 24.7026 21.86 22.4796 20.8322C24.1439 22.629 25.3663 24.9683 25.6263 27.0645L25.9213 29.4442L23.7493 28.4283C21.8361 27.5334 19.9889 25.6478 18.7945 23.5096C19.0849 25.9414 18.6988 28.5526 17.6769 30.4013L16.5169 32.5L15.3568 30.4013C14.335 28.5526 13.9488 25.9414 14.2394 23.5096C13.0449 25.6478 11.1977 27.5333 9.28442 28.4283L7.11237 29.4442L7.40744 27.0645C7.66738 24.9683 8.88978 22.629 10.5542 20.8322C8.33112 21.86 5.7284 22.2997 3.6545 21.899L1.30005 21.4443L2.93755 19.6925C4.37994 18.1493 6.744 16.9752 9.14659 16.5C6.74392 16.0248 4.37994 14.8506 2.93755 13.3075L1.30005 11.5557L3.6545 11.1009C5.7284 10.7004 8.3312 11.14 10.5542 12.1678C8.88978 10.3711 7.66738 8.03162 7.40744 5.93546L7.11237 3.5557L9.2845 4.57174C11.1978 5.46662 13.045 7.35216 14.2394 9.49037C13.9489 7.05851 14.3351 4.44731 15.3569 2.59867L16.517 0.5L17.677 2.59867C18.6989 4.44731 19.085 7.05851 18.7945 9.49037C19.989 7.35216 21.8362 5.4667 23.7495 4.57174L25.9217 3.5557L25.6265 5.93546C25.3666 8.03162 24.1442 10.3711 22.4797 12.1678C24.7028 11.14 27.3055 10.7003 29.3794 11.1009L31.734 11.5557L30.0964 13.3075ZM13.5007 19.4914C15.1453 21.1358 17.8116 21.1358 19.4561 19.4914C21.1005 17.8469 21.1005 15.1805 19.4561 13.536C17.8116 11.8915 15.1453 11.8915 13.5007 13.536C11.8562 15.1805 11.8562 17.8469 13.5007 19.4914Z" fill="#080809"/>
</g>
<defs>
<clipPath id="clip0_1287_12709">
<rect width="32" height="32" fill="white" transform="translate(0.5 0.5)"/>
</clipPath>
</defs>
</svg>
