<svg width="33" height="33" viewBox="0 0 33 33" fill="none" xmlns="http://www.w3.org/2000/svg">
<g clip-path="url(#clip0_1287_12741)">
<path fill-rule="evenodd" clip-rule="evenodd" d="M18.1 0.5C18.9837 0.5 19.7 1.21634 19.7 2.1V4.91178C19.7 6.33722 21.4234 7.05109 22.4314 6.04314L24.4195 4.05491C25.0445 3.43008 26.0574 3.43008 26.6824 4.05491L28.9451 6.31766C29.5699 6.9425 29.5699 7.95557 28.9451 8.5804L26.9568 10.5686C25.949 11.5766 26.6627 13.3 28.0882 13.3H30.9C31.7837 13.3 32.5 14.0163 32.5 14.9V18.1C32.5 18.9837 31.7837 19.7 30.9 19.7H28.0882C26.6627 19.7 25.949 21.4234 26.9568 22.4314L28.9451 24.4195C29.5699 25.0445 29.5699 26.0574 28.9451 26.6824L26.6824 28.9451C26.0574 29.5699 25.0445 29.5699 24.4195 28.9451L22.4314 26.9568C21.4234 25.949 19.7 26.6627 19.7 28.0882V30.9C19.7 31.7837 18.9837 32.5 18.1 32.5H14.9C14.0163 32.5 13.3 31.7837 13.3 30.9V28.0882C13.3 26.6627 11.5766 25.949 10.5686 26.9568L8.5804 28.9451C7.95557 29.5699 6.9425 29.5699 6.31766 28.9451L4.05493 26.6824C3.43008 26.0574 3.43008 25.0445 4.05493 24.4195L6.04315 22.4314C7.05109 21.4234 6.33723 19.7 4.91178 19.7H2.1C1.21635 19.7 0.5 18.9837 0.5 18.1V14.9C0.5 14.0163 1.21634 13.3 2.1 13.3H4.91178C6.33722 13.3 7.05109 11.5766 6.04315 10.5686L4.05493 8.5804C3.43008 7.95555 3.43008 6.9425 4.05493 6.31766L6.31766 4.05491C6.9425 3.43008 7.95557 3.43008 8.5804 4.05491L10.5686 6.04314C11.5766 7.05109 13.3 6.33722 13.3 4.91178V2.1C13.3 1.21634 14.0163 0.5 14.9 0.5H18.1ZM16.5 24.5C20.9182 24.5 24.5 20.9182 24.5 16.5C24.5 12.0817 20.9182 8.5 16.5 8.5C12.0817 8.5 8.5 12.0817 8.5 16.5C8.5 20.9182 12.0817 24.5 16.5 24.5Z" fill="#080809"/>
</g>
<defs>
<clipPath id="clip0_1287_12741">
<rect width="32" height="32" fill="white" transform="translate(0.5 0.5)"/>
</clipPath>
</defs>
</svg>
