<svg width="288" height="257" viewBox="0 0 288 257" fill="none" xmlns="http://www.w3.org/2000/svg">
<g style="mix-blend-mode:plus-lighter" clip-path="url(#clip0_527_1216)">
<path d="M140 146.229H132C130.067 146.229 128.5 147.796 128.5 149.729V157.729C128.5 159.662 130.067 161.229 132 161.229H140C141.933 161.229 143.5 159.662 143.5 157.729V149.729C143.5 147.796 141.933 146.229 140 146.229Z" stroke="url(#paint0_linear_527_1216)" stroke-opacity="0.15"/>
<path d="M156 129.729H148C145.791 129.729 144 131.519 144 133.729V141.729C144 143.938 145.791 145.729 148 145.729H156C158.209 145.729 160 143.938 160 141.729V133.729C160 131.519 158.209 129.729 156 129.729Z" fill="url(#paint1_linear_527_1216)" fill-opacity="0.1"/>
<path d="M156 130.229H148C146.067 130.229 144.5 131.796 144.5 133.729V141.729C144.5 143.662 146.067 145.229 148 145.229H156C157.933 145.229 159.5 143.662 159.5 141.729V133.729C159.5 131.796 157.933 130.229 156 130.229Z" stroke="url(#paint2_linear_527_1216)" stroke-opacity="0.15"/>
<path d="M188 161.229H180C178.067 161.229 176.5 162.796 176.5 164.729V172.729C176.5 174.662 178.067 176.229 180 176.229H188C189.933 176.229 191.5 174.662 191.5 172.729V164.729C191.5 162.796 189.933 161.229 188 161.229Z" stroke="white" stroke-opacity="0.07"/>
<path d="M204 145.229H196C194.067 145.229 192.5 146.796 192.5 148.729V156.729C192.5 158.662 194.067 160.229 196 160.229H204C205.933 160.229 207.5 158.662 207.5 156.729V148.729C207.5 146.796 205.933 145.229 204 145.229Z" stroke="white" stroke-opacity="0.07"/>
<path d="M236 144.729H228C225.791 144.729 224 146.519 224 148.729V156.729C224 158.938 225.791 160.729 228 160.729H236C238.209 160.729 240 158.938 240 156.729V148.729C240 146.519 238.209 144.729 236 144.729Z" fill="#CCCCCC" fill-opacity="0.1"/>
<path d="M236 145.229H228C226.067 145.229 224.5 146.796 224.5 148.729V156.729C224.5 158.662 226.067 160.229 228 160.229H236C237.933 160.229 239.5 158.662 239.5 156.729V148.729C239.5 146.796 237.933 145.229 236 145.229Z" stroke="url(#paint3_linear_527_1216)" stroke-opacity="0.15"/>
<path d="M220 129.229H212C210.067 129.229 208.5 130.796 208.5 132.729V140.729C208.5 142.662 210.067 144.229 212 144.229H220C221.933 144.229 223.5 142.662 223.5 140.729V132.729C223.5 130.796 221.933 129.229 220 129.229Z" stroke="white" stroke-opacity="0.07"/>
<path d="M204 112.729H196C193.791 112.729 192 114.519 192 116.729V124.729C192 126.938 193.791 128.729 196 128.729H204C206.209 128.729 208 126.938 208 124.729V116.729C208 114.519 206.209 112.729 204 112.729Z" fill="url(#paint4_linear_527_1216)" fill-opacity="0.1"/>
<path d="M204 113.229H196C194.067 113.229 192.5 114.796 192.5 116.729V124.729C192.5 126.662 194.067 128.229 196 128.229H204C205.933 128.229 207.5 126.662 207.5 124.729V116.729C207.5 114.796 205.933 113.229 204 113.229Z" stroke="url(#paint5_linear_527_1216)" stroke-opacity="0.15"/>
<path d="M188 97.2285H180C178.067 97.2285 176.5 98.7955 176.5 100.729V108.729C176.5 110.662 178.067 112.229 180 112.229H188C189.933 112.229 191.5 110.662 191.5 108.729V100.729C191.5 98.7955 189.933 97.2285 188 97.2285Z" stroke="white" stroke-opacity="0.07"/>
<path d="M172 81.2285H164C162.067 81.2285 160.5 82.7955 160.5 84.7285V92.7285C160.5 94.6615 162.067 96.2285 164 96.2285H172C173.933 96.2285 175.5 94.6615 175.5 92.7285V84.7285C175.5 82.7955 173.933 81.2285 172 81.2285Z" stroke="url(#paint6_linear_527_1216)" stroke-opacity="0.15"/>
<path d="M108 81.2285H100C98.067 81.2285 96.5 82.7955 96.5 84.7285V92.7285C96.5 94.6615 98.067 96.2285 100 96.2285H108C109.933 96.2285 111.5 94.6615 111.5 92.7285V84.7285C111.5 82.7955 109.933 81.2285 108 81.2285Z" stroke="white" stroke-opacity="0.07"/>
<path d="M124 65.2285H116C114.067 65.2285 112.5 66.7955 112.5 68.7285V76.7285C112.5 78.6615 114.067 80.2285 116 80.2285H124C125.933 80.2285 127.5 78.6615 127.5 76.7285V68.7285C127.5 66.7955 125.933 65.2285 124 65.2285Z" stroke="white" stroke-opacity="0.07"/>
<path d="M60 97.2285H52C50.067 97.2285 48.5 98.7955 48.5 100.729V108.729C48.5 110.662 50.067 112.229 52 112.229H60C61.933 112.229 63.5 110.662 63.5 108.729V100.729C63.5 98.7955 61.933 97.2285 60 97.2285Z" stroke="url(#paint7_linear_527_1216)" stroke-opacity="0.15"/>
<path d="M76 48.7285H68C65.7909 48.7285 64 50.5194 64 52.7285V60.7285C64 62.9377 65.7909 64.7285 68 64.7285H76C78.2091 64.7285 80 62.9377 80 60.7285V52.7285C80 50.5194 78.2091 48.7285 76 48.7285Z" fill="url(#paint8_linear_527_1216)" fill-opacity="0.1"/>
<path d="M76 49.2285H68C66.067 49.2285 64.5 50.7955 64.5 52.7285V60.7285C64.5 62.6615 66.067 64.2285 68 64.2285H76C77.933 64.2285 79.5 62.6615 79.5 60.7285V52.7285C79.5 50.7955 77.933 49.2285 76 49.2285Z" stroke="url(#paint9_linear_527_1216)" stroke-opacity="0.15"/>
<path d="M60 33.2285H52C50.067 33.2285 48.5 34.7955 48.5 36.7285V44.7285C48.5 46.6615 50.067 48.2285 52 48.2285H60C61.933 48.2285 63.5 46.6615 63.5 44.7285V36.7285C63.5 34.7955 61.933 33.2285 60 33.2285Z" stroke="white" stroke-opacity="0.07"/>
<path d="M12 49.2285H4C2.067 49.2285 0.5 50.7955 0.5 52.7285V60.7285C0.5 62.6615 2.067 64.2285 4 64.2285H12C13.933 64.2285 15.5 62.6615 15.5 60.7285V52.7285C15.5 50.7955 13.933 49.2285 12 49.2285Z" stroke="white" stroke-opacity="0.07"/>
<path d="M28 1.22852H20C18.067 1.22852 16.5 2.79552 16.5 4.72852V12.7285C16.5 14.6615 18.067 16.2285 20 16.2285H28C29.933 16.2285 31.5 14.6615 31.5 12.7285V4.72852C31.5 2.79552 29.933 1.22852 28 1.22852Z" stroke="white" stroke-opacity="0.07"/>
<path d="M236 113.229H228C226.067 113.229 224.5 114.796 224.5 116.729V124.729C224.5 126.662 226.067 128.229 228 128.229H236C237.933 128.229 239.5 126.662 239.5 124.729V116.729C239.5 114.796 237.933 113.229 236 113.229Z" stroke="white" stroke-opacity="0.07"/>
<path d="M252 97.2285H244C242.067 97.2285 240.5 98.7955 240.5 100.729V108.729C240.5 110.662 242.067 112.229 244 112.229H252C253.933 112.229 255.5 110.662 255.5 108.729V100.729C255.5 98.7955 253.933 97.2285 252 97.2285Z" stroke="white" stroke-opacity="0.07"/>
<path d="M204 177.229H196C194.067 177.229 192.5 178.796 192.5 180.729V188.729C192.5 190.662 194.067 192.229 196 192.229H204C205.933 192.229 207.5 190.662 207.5 188.729V180.729C207.5 178.796 205.933 177.229 204 177.229Z" stroke="white" stroke-opacity="0.07"/>
<path d="M140 193.229H132C130.067 193.229 128.5 194.796 128.5 196.729V204.729C128.5 206.662 130.067 208.229 132 208.229H140C141.933 208.229 143.5 206.662 143.5 204.729V196.729C143.5 194.796 141.933 193.229 140 193.229Z" stroke="url(#paint10_linear_527_1216)" stroke-opacity="0.15"/>
<path d="M108 177.229H100C98.067 177.229 96.5 178.796 96.5 180.729V188.729C96.5 190.662 98.067 192.229 100 192.229H108C109.933 192.229 111.5 190.662 111.5 188.729V180.729C111.5 178.796 109.933 177.229 108 177.229Z" stroke="white" stroke-opacity="0.07"/>
<path d="M28 161.229H20C18.067 161.229 16.5 162.796 16.5 164.729V172.729C16.5 174.662 18.067 176.229 20 176.229H28C29.933 176.229 31.5 174.662 31.5 172.729V164.729C31.5 162.796 29.933 161.229 28 161.229Z" stroke="white" stroke-opacity="0.07"/>
<path d="M76 177.229H68C66.067 177.229 64.5 178.796 64.5 180.729V188.729C64.5 190.662 66.067 192.229 68 192.229H76C77.933 192.229 79.5 190.662 79.5 188.729V180.729C79.5 178.796 77.933 177.229 76 177.229Z" stroke="white" stroke-opacity="0.07"/>
<path d="M60 161.229H52C50.067 161.229 48.5 162.796 48.5 164.729V172.729C48.5 174.662 50.067 176.229 52 176.229H60C61.933 176.229 63.5 174.662 63.5 172.729V164.729C63.5 162.796 61.933 161.229 60 161.229Z" stroke="white" stroke-opacity="0.07"/>
<path d="M76 129.229H68C66.067 129.229 64.5 130.796 64.5 132.729V140.729C64.5 142.662 66.067 144.229 68 144.229H76C77.933 144.229 79.5 142.662 79.5 140.729V132.729C79.5 130.796 77.933 129.229 76 129.229Z" stroke="white" stroke-opacity="0.07"/>
<path d="M92 144.729H84C81.7909 144.729 80 146.519 80 148.729V156.729C80 158.938 81.7909 160.729 84 160.729H92C94.2091 160.729 96 158.938 96 156.729V148.729C96 146.519 94.2091 144.729 92 144.729Z" fill="url(#paint11_linear_527_1216)" fill-opacity="0.1"/>
<path d="M92 145.229H84C82.067 145.229 80.5 146.796 80.5 148.729V156.729C80.5 158.662 82.067 160.229 84 160.229H92C93.933 160.229 95.5 158.662 95.5 156.729V148.729C95.5 146.796 93.933 145.229 92 145.229Z" stroke="url(#paint12_linear_527_1216)" stroke-opacity="0.15"/>
<path d="M108 129.229H100C98.067 129.229 96.5 130.796 96.5 132.729V140.729C96.5 142.662 98.067 144.229 100 144.229H108C109.933 144.229 111.5 142.662 111.5 140.729V132.729C111.5 130.796 109.933 129.229 108 129.229Z" stroke="white" stroke-opacity="0.07"/>
<path d="M44 113.229H36C34.067 113.229 32.5 114.796 32.5 116.729V124.729C32.5 126.662 34.067 128.229 36 128.229H44C45.933 128.229 47.5 126.662 47.5 124.729V116.729C47.5 114.796 45.933 113.229 44 113.229Z" stroke="white" stroke-opacity="0.07"/>
<path d="M220 193.229H212C210.067 193.229 208.5 194.796 208.5 196.729V204.729C208.5 206.662 210.067 208.229 212 208.229H220C221.933 208.229 223.5 206.662 223.5 204.729V196.729C223.5 194.796 221.933 193.229 220 193.229Z" stroke="white" stroke-opacity="0.07"/>
<path d="M252 192.729H244C241.791 192.729 240 194.519 240 196.729V204.729C240 206.938 241.791 208.729 244 208.729H252C254.209 208.729 256 206.938 256 204.729V196.729C256 194.519 254.209 192.729 252 192.729Z" fill="#CCCCCC" fill-opacity="0.1"/>
<path d="M252 193.229H244C242.067 193.229 240.5 194.796 240.5 196.729V204.729C240.5 206.662 242.067 208.229 244 208.229H252C253.933 208.229 255.5 206.662 255.5 204.729V196.729C255.5 194.796 253.933 193.229 252 193.229Z" stroke="white" stroke-opacity="0.07"/>
<path d="M236 209.229H228C226.067 209.229 224.5 210.796 224.5 212.729V220.729C224.5 222.662 226.067 224.229 228 224.229H236C237.933 224.229 239.5 222.662 239.5 220.729V212.729C239.5 210.796 237.933 209.229 236 209.229Z" stroke="white" stroke-opacity="0.07"/>
<path d="M220 224.729H212C209.791 224.729 208 226.519 208 228.729V236.729C208 238.938 209.791 240.729 212 240.729H220C222.209 240.729 224 238.938 224 236.729V228.729C224 226.519 222.209 224.729 220 224.729Z" fill="url(#paint13_linear_527_1216)" fill-opacity="0.1"/>
<path d="M220 225.229H212C210.067 225.229 208.5 226.796 208.5 228.729V236.729C208.5 238.662 210.067 240.229 212 240.229H220C221.933 240.229 223.5 238.662 223.5 236.729V228.729C223.5 226.796 221.933 225.229 220 225.229Z" stroke="url(#paint14_linear_527_1216)" stroke-opacity="0.15"/>
<path d="M204 241.229H196C194.067 241.229 192.5 242.796 192.5 244.729V252.729C192.5 254.662 194.067 256.229 196 256.229H204C205.933 256.229 207.5 254.662 207.5 252.729V244.729C207.5 242.796 205.933 241.229 204 241.229Z" stroke="white" stroke-opacity="0.07"/>
<path d="M284 193.229H276C274.067 193.229 272.5 194.796 272.5 196.729V204.729C272.5 206.662 274.067 208.229 276 208.229H284C285.933 208.229 287.5 206.662 287.5 204.729V196.729C287.5 194.796 285.933 193.229 284 193.229Z" stroke="white" stroke-opacity="0.07"/>
<path d="M172 209.229H164C162.067 209.229 160.5 210.796 160.5 212.729V220.729C160.5 222.662 162.067 224.229 164 224.229H172C173.933 224.229 175.5 222.662 175.5 220.729V212.729C175.5 210.796 173.933 209.229 172 209.229Z" stroke="white" stroke-opacity="0.07"/>
<path d="M156 225.229H148C146.067 225.229 144.5 226.796 144.5 228.729V236.729C144.5 238.662 146.067 240.229 148 240.229H156C157.933 240.229 159.5 238.662 159.5 236.729V228.729C159.5 226.796 157.933 225.229 156 225.229Z" stroke="white" stroke-opacity="0.07"/>
<path d="M140 240.729H132C129.791 240.729 128 242.519 128 244.729V252.729C128 254.938 129.791 256.729 132 256.729H140C142.209 256.729 144 254.938 144 252.729V244.729C144 242.519 142.209 240.729 140 240.729Z" fill="#CCCCCC" fill-opacity="0.1"/>
<path d="M140 241.229H132C130.067 241.229 128.5 242.796 128.5 244.729V252.729C128.5 254.662 130.067 256.229 132 256.229H140C141.933 256.229 143.5 254.662 143.5 252.729V244.729C143.5 242.796 141.933 241.229 140 241.229Z" stroke="white" stroke-opacity="0.07"/>
</g>
<defs>
<linearGradient id="paint0_linear_527_1216" x1="128" y1="145.729" x2="144" y2="161.729" gradientUnits="userSpaceOnUse">
<stop offset="0.005" stop-color="#CCCCCC"/>
<stop offset="1" stop-color="#E6E6E6"/>
</linearGradient>
<linearGradient id="paint1_linear_527_1216" x1="144" y1="129.729" x2="160" y2="145.729" gradientUnits="userSpaceOnUse">
<stop offset="0.005" stop-color="#FAFAFA"/>
<stop offset="1" stop-color="#E6E6E6"/>
</linearGradient>
<linearGradient id="paint2_linear_527_1216" x1="144" y1="129.729" x2="160" y2="145.729" gradientUnits="userSpaceOnUse">
<stop offset="0.005" stop-color="#CCCCCC"/>
<stop offset="1" stop-color="#E6E6E6"/>
</linearGradient>
<linearGradient id="paint3_linear_527_1216" x1="224" y1="144.729" x2="240" y2="160.729" gradientUnits="userSpaceOnUse">
<stop offset="0.005" stop-color="#CCCCCC"/>
<stop offset="1" stop-color="#E6E6E6"/>
</linearGradient>
<linearGradient id="paint4_linear_527_1216" x1="192" y1="112.729" x2="208" y2="128.729" gradientUnits="userSpaceOnUse">
<stop offset="0.005" stop-color="#FAFAFA"/>
<stop offset="1" stop-color="#E6E6E6"/>
</linearGradient>
<linearGradient id="paint5_linear_527_1216" x1="192" y1="112.729" x2="208" y2="128.729" gradientUnits="userSpaceOnUse">
<stop offset="0.005" stop-color="#CCCCCC"/>
<stop offset="1" stop-color="#E6E6E6"/>
</linearGradient>
<linearGradient id="paint6_linear_527_1216" x1="160" y1="80.7285" x2="176" y2="96.7285" gradientUnits="userSpaceOnUse">
<stop offset="0.005" stop-color="#CCCCCC"/>
<stop offset="1" stop-color="#E6E6E6"/>
</linearGradient>
<linearGradient id="paint7_linear_527_1216" x1="48" y1="96.7285" x2="64" y2="112.729" gradientUnits="userSpaceOnUse">
<stop offset="0.005" stop-color="#CCCCCC"/>
<stop offset="1" stop-color="#E6E6E6"/>
</linearGradient>
<linearGradient id="paint8_linear_527_1216" x1="64" y1="48.7285" x2="80" y2="64.7285" gradientUnits="userSpaceOnUse">
<stop offset="0.005" stop-color="#FAFAFA"/>
<stop offset="1" stop-color="#E6E6E6"/>
</linearGradient>
<linearGradient id="paint9_linear_527_1216" x1="64" y1="48.7285" x2="80" y2="64.7285" gradientUnits="userSpaceOnUse">
<stop offset="0.005" stop-color="#CCCCCC"/>
<stop offset="1" stop-color="#E6E6E6"/>
</linearGradient>
<linearGradient id="paint10_linear_527_1216" x1="128" y1="192.729" x2="144" y2="208.729" gradientUnits="userSpaceOnUse">
<stop offset="0.005" stop-color="#CCCCCC"/>
<stop offset="1" stop-color="#E6E6E6"/>
</linearGradient>
<linearGradient id="paint11_linear_527_1216" x1="80" y1="144.729" x2="96" y2="160.729" gradientUnits="userSpaceOnUse">
<stop offset="0.005" stop-color="#FAFAFA"/>
<stop offset="1" stop-color="#E6E6E6"/>
</linearGradient>
<linearGradient id="paint12_linear_527_1216" x1="80" y1="144.729" x2="96" y2="160.729" gradientUnits="userSpaceOnUse">
<stop offset="0.005" stop-color="#CCCCCC"/>
<stop offset="1" stop-color="#E6E6E6"/>
</linearGradient>
<linearGradient id="paint13_linear_527_1216" x1="208" y1="224.729" x2="224" y2="240.729" gradientUnits="userSpaceOnUse">
<stop offset="0.005" stop-color="#FAFAFA"/>
<stop offset="1" stop-color="#E6E6E6"/>
</linearGradient>
<linearGradient id="paint14_linear_527_1216" x1="208" y1="224.729" x2="224" y2="240.729" gradientUnits="userSpaceOnUse">
<stop offset="0.005" stop-color="#CCCCCC"/>
<stop offset="1" stop-color="#E6E6E6"/>
</linearGradient>
<clipPath id="clip0_527_1216">
<rect width="288" height="256" fill="white" transform="translate(0 0.728516)"/>
</clipPath>
</defs>
</svg>
