<svg width="1680" height="393" viewBox="0 0 1680 393" fill="none" xmlns="http://www.w3.org/2000/svg">
<g clip-path="url(#clip0_27_5434)">
<mask id="mask0_27_5434" style="mask-type:luminance" maskUnits="userSpaceOnUse" x="-148" y="0" width="1975" height="393">
<path d="M-147.5 100C-147.5 45.0477 -102.952 0.5 -48 0.5H1727C1781.95 0.5 1826.5 45.0477 1826.5 100V293C1826.5 347.952 1781.95 392.5 1727 392.5H-48C-102.952 392.5 -147.5 347.952 -147.5 293V100Z" fill="white" shape-rendering="crispEdges"/>
<path d="M-147.5 100C-147.5 45.0477 -102.952 0.5 -48 0.5H1727C1781.95 0.5 1826.5 45.0477 1826.5 100V293C1826.5 347.952 1781.95 392.5 1727 392.5H-48C-102.952 392.5 -147.5 347.952 -147.5 293V100Z" stroke="white" shape-rendering="crispEdges"/>
<path d="M-128 0H1807V393H-128V0Z" fill="white"/>
</mask>
<g mask="url(#mask0_27_5434)">
<g opacity="0.44" filter="url(#filter0_f_27_5434)">
<path d="M-514.408 -511.24L-554.38 -483.6L146.883 1.30499L636.111 323.33L186.855 -26.3346L-514.408 -511.24Z" fill="url(#paint0_linear_27_5434)"/>
</g>
<g opacity="0.56" filter="url(#filter1_f_27_5434)">
<path d="M-181.185 -499.582L-221.157 -471.943L480.106 12.9629L969.334 334.987L520.078 -14.6768L-181.185 -499.582Z" fill="url(#paint1_linear_27_5434)"/>
</g>
<g opacity="0.56" filter="url(#filter2_f_27_5434)">
<path d="M-53.2507 -618.219L-93.2227 -590.58L608.04 -105.673L1097.27 216.351L648.012 -133.313L-53.2507 -618.219Z" fill="url(#paint2_linear_27_5434)"/>
</g>
</g>
</g>
<defs>
<filter id="filter0_f_27_5434" x="-674.38" y="-631.24" width="1430.49" height="1074.57" filterUnits="userSpaceOnUse" color-interpolation-filters="sRGB">
<feFlood flood-opacity="0" result="BackgroundImageFix"/>
<feBlend mode="normal" in="SourceGraphic" in2="BackgroundImageFix" result="shape"/>
<feGaussianBlur stdDeviation="60" result="effect1_foregroundBlur_27_5434"/>
</filter>
<filter id="filter1_f_27_5434" x="-341.157" y="-619.582" width="1430.49" height="1074.57" filterUnits="userSpaceOnUse" color-interpolation-filters="sRGB">
<feFlood flood-opacity="0" result="BackgroundImageFix"/>
<feBlend mode="normal" in="SourceGraphic" in2="BackgroundImageFix" result="shape"/>
<feGaussianBlur stdDeviation="60" result="effect1_foregroundBlur_27_5434"/>
</filter>
<filter id="filter2_f_27_5434" x="-213.223" y="-738.219" width="1430.49" height="1074.57" filterUnits="userSpaceOnUse" color-interpolation-filters="sRGB">
<feFlood flood-opacity="0" result="BackgroundImageFix"/>
<feBlend mode="normal" in="SourceGraphic" in2="BackgroundImageFix" result="shape"/>
<feGaussianBlur stdDeviation="60" result="effect1_foregroundBlur_27_5434"/>
</filter>
<linearGradient id="paint0_linear_27_5434" x1="-534.393" y1="-497.42" x2="-80.7149" y2="158.683" gradientUnits="userSpaceOnUse">
<stop stop-color="white"/>
<stop offset="1" stop-color="#D3D8DF"/>
</linearGradient>
<linearGradient id="paint1_linear_27_5434" x1="-201.171" y1="-485.763" x2="252.507" y2="170.341" gradientUnits="userSpaceOnUse">
<stop stop-color="white"/>
<stop offset="1" stop-color="#D3D8DF"/>
</linearGradient>
<linearGradient id="paint2_linear_27_5434" x1="-73.2367" y1="-604.399" x2="380.442" y2="51.7046" gradientUnits="userSpaceOnUse">
<stop stop-color="white"/>
<stop offset="1" stop-color="#D3D8DF"/>
</linearGradient>
<clipPath id="clip0_27_5434">
<rect width="1680" height="393" fill="white"/>
</clipPath>
</defs>
</svg>
