<svg width="289" height="186" viewBox="0 0 289 186" fill="none" xmlns="http://www.w3.org/2000/svg">
<g opacity="0.3" clip-path="url(#clip0_335_4824)">
<path d="M140.351 146.02H132.351C130.418 146.02 128.851 147.587 128.851 149.52V157.52C128.851 159.453 130.418 161.02 132.351 161.02H140.351C142.284 161.02 143.851 159.453 143.851 157.52V149.52C143.851 147.587 142.284 146.02 140.351 146.02Z" stroke="url(#paint0_linear_335_4824)" stroke-opacity="0.15"/>
<path d="M156.351 129.52H148.351C146.141 129.52 144.351 131.311 144.351 133.52V141.52C144.351 143.729 146.141 145.52 148.351 145.52H156.351C158.56 145.52 160.351 143.729 160.351 141.52V133.52C160.351 131.311 158.56 129.52 156.351 129.52Z" fill="url(#paint1_linear_335_4824)" fill-opacity="0.1"/>
<path d="M156.351 130.02H148.351C146.418 130.02 144.851 131.587 144.851 133.52V141.52C144.851 143.453 146.418 145.02 148.351 145.02H156.351C158.284 145.02 159.851 143.453 159.851 141.52V133.52C159.851 131.587 158.284 130.02 156.351 130.02Z" stroke="url(#paint2_linear_335_4824)" stroke-opacity="0.15"/>
<path d="M188.351 161.02H180.351C178.418 161.02 176.851 162.587 176.851 164.52V172.52C176.851 174.453 178.418 176.02 180.351 176.02H188.351C190.284 176.02 191.851 174.453 191.851 172.52V164.52C191.851 162.587 190.284 161.02 188.351 161.02Z" stroke="white" stroke-opacity="0.07"/>
<path d="M204.351 145.02H196.351C194.418 145.02 192.851 146.587 192.851 148.52V156.52C192.851 158.453 194.418 160.02 196.351 160.02H204.351C206.284 160.02 207.851 158.453 207.851 156.52V148.52C207.851 146.587 206.284 145.02 204.351 145.02Z" stroke="white" stroke-opacity="0.07"/>
<path d="M236.351 144.52H228.351C226.141 144.52 224.351 146.311 224.351 148.52V156.52C224.351 158.729 226.141 160.52 228.351 160.52H236.351C238.56 160.52 240.351 158.729 240.351 156.52V148.52C240.351 146.311 238.56 144.52 236.351 144.52Z" fill="white" fill-opacity="0.1"/>
<path d="M236.351 145.02H228.351C226.418 145.02 224.851 146.587 224.851 148.52V156.52C224.851 158.453 226.418 160.02 228.351 160.02H236.351C238.284 160.02 239.851 158.453 239.851 156.52V148.52C239.851 146.587 238.284 145.02 236.351 145.02Z" stroke="url(#paint3_linear_335_4824)" stroke-opacity="0.15"/>
<path d="M220.351 129.02H212.351C210.418 129.02 208.851 130.587 208.851 132.52V140.52C208.851 142.453 210.418 144.02 212.351 144.02H220.351C222.284 144.02 223.851 142.453 223.851 140.52V132.52C223.851 130.587 222.284 129.02 220.351 129.02Z" stroke="white" stroke-opacity="0.07"/>
<path d="M204.351 112.52H196.351C194.141 112.52 192.351 114.311 192.351 116.52V124.52C192.351 126.729 194.141 128.52 196.351 128.52H204.351C206.56 128.52 208.351 126.729 208.351 124.52V116.52C208.351 114.311 206.56 112.52 204.351 112.52Z" fill="url(#paint4_linear_335_4824)" fill-opacity="0.1"/>
<path d="M204.351 113.02H196.351C194.418 113.02 192.851 114.587 192.851 116.52V124.52C192.851 126.453 194.418 128.02 196.351 128.02H204.351C206.284 128.02 207.851 126.453 207.851 124.52V116.52C207.851 114.587 206.284 113.02 204.351 113.02Z" stroke="url(#paint5_linear_335_4824)" stroke-opacity="0.15"/>
<path d="M188.351 97.0198H180.351C178.418 97.0198 176.851 98.5868 176.851 100.52V108.52C176.851 110.453 178.418 112.02 180.351 112.02H188.351C190.284 112.02 191.851 110.453 191.851 108.52V100.52C191.851 98.5868 190.284 97.0198 188.351 97.0198Z" stroke="white" stroke-opacity="0.07"/>
<path d="M172.351 81.0198H164.351C162.418 81.0198 160.851 82.5868 160.851 84.5198V92.5198C160.851 94.4528 162.418 96.0198 164.351 96.0198H172.351C174.284 96.0198 175.851 94.4528 175.851 92.5198V84.5198C175.851 82.5868 174.284 81.0198 172.351 81.0198Z" stroke="url(#paint6_linear_335_4824)" stroke-opacity="0.15"/>
<path d="M108.351 81.0198H100.351C98.4176 81.0198 96.8506 82.5868 96.8506 84.5198V92.5198C96.8506 94.4528 98.4176 96.0198 100.351 96.0198H108.351C110.284 96.0198 111.851 94.4528 111.851 92.5198V84.5198C111.851 82.5868 110.284 81.0198 108.351 81.0198Z" stroke="white" stroke-opacity="0.07"/>
<path d="M124.351 65.0198H116.351C114.418 65.0198 112.851 66.5868 112.851 68.5198V76.5198C112.851 78.4528 114.418 80.0198 116.351 80.0198H124.351C126.284 80.0198 127.851 78.4528 127.851 76.5198V68.5198C127.851 66.5868 126.284 65.0198 124.351 65.0198Z" stroke="white" stroke-opacity="0.07"/>
<path d="M60.3506 97.0198H52.3506C50.4176 97.0198 48.8506 98.5868 48.8506 100.52V108.52C48.8506 110.453 50.4176 112.02 52.3506 112.02H60.3506C62.2836 112.02 63.8506 110.453 63.8506 108.52V100.52C63.8506 98.5868 62.2836 97.0198 60.3506 97.0198Z" stroke="url(#paint7_linear_335_4824)" stroke-opacity="0.15"/>
<path d="M76.3506 48.5198H68.3506C66.1414 48.5198 64.3506 50.3107 64.3506 52.5198V60.5198C64.3506 62.729 66.1414 64.5198 68.3506 64.5198H76.3506C78.5597 64.5198 80.3506 62.729 80.3506 60.5198V52.5198C80.3506 50.3107 78.5597 48.5198 76.3506 48.5198Z" fill="url(#paint8_linear_335_4824)" fill-opacity="0.1"/>
<path d="M76.3506 49.0198H68.3506C66.4176 49.0198 64.8506 50.5868 64.8506 52.5198V60.5198C64.8506 62.4528 66.4176 64.0198 68.3506 64.0198H76.3506C78.2836 64.0198 79.8506 62.4528 79.8506 60.5198V52.5198C79.8506 50.5868 78.2836 49.0198 76.3506 49.0198Z" stroke="url(#paint9_linear_335_4824)" stroke-opacity="0.15"/>
<path d="M60.3506 33.0198H52.3506C50.4176 33.0198 48.8506 34.5868 48.8506 36.5198V44.5198C48.8506 46.4528 50.4176 48.0198 52.3506 48.0198H60.3506C62.2836 48.0198 63.8506 46.4528 63.8506 44.5198V36.5198C63.8506 34.5868 62.2836 33.0198 60.3506 33.0198Z" stroke="white" stroke-opacity="0.07"/>
<path d="M12.3506 49.0198H4.35059C2.41759 49.0198 0.850586 50.5868 0.850586 52.5198V60.5198C0.850586 62.4528 2.41759 64.0198 4.35059 64.0198H12.3506C14.2836 64.0198 15.8506 62.4528 15.8506 60.5198V52.5198C15.8506 50.5868 14.2836 49.0198 12.3506 49.0198Z" stroke="white" stroke-opacity="0.07"/>
<path d="M28.3506 1.01984H20.3506C18.4176 1.01984 16.8506 2.58684 16.8506 4.51984V12.5198C16.8506 14.4528 18.4176 16.0198 20.3506 16.0198H28.3506C30.2836 16.0198 31.8506 14.4528 31.8506 12.5198V4.51984C31.8506 2.58684 30.2836 1.01984 28.3506 1.01984Z" stroke="white" stroke-opacity="0.07"/>
<path d="M236.351 113.02H228.351C226.418 113.02 224.851 114.587 224.851 116.52V124.52C224.851 126.453 226.418 128.02 228.351 128.02H236.351C238.284 128.02 239.851 126.453 239.851 124.52V116.52C239.851 114.587 238.284 113.02 236.351 113.02Z" stroke="white" stroke-opacity="0.07"/>
<path d="M252.351 97.0198H244.351C242.418 97.0198 240.851 98.5868 240.851 100.52V108.52C240.851 110.453 242.418 112.02 244.351 112.02H252.351C254.284 112.02 255.851 110.453 255.851 108.52V100.52C255.851 98.5868 254.284 97.0198 252.351 97.0198Z" stroke="white" stroke-opacity="0.07"/>
<path d="M204.351 177.02H196.351C194.418 177.02 192.851 178.587 192.851 180.52V188.52C192.851 190.453 194.418 192.02 196.351 192.02H204.351C206.284 192.02 207.851 190.453 207.851 188.52V180.52C207.851 178.587 206.284 177.02 204.351 177.02Z" stroke="white" stroke-opacity="0.07"/>
<path d="M108.351 177.02H100.351C98.4176 177.02 96.8506 178.587 96.8506 180.52V188.52C96.8506 190.453 98.4176 192.02 100.351 192.02H108.351C110.284 192.02 111.851 190.453 111.851 188.52V180.52C111.851 178.587 110.284 177.02 108.351 177.02Z" stroke="white" stroke-opacity="0.07"/>
<path d="M28.3506 161.02H20.3506C18.4176 161.02 16.8506 162.587 16.8506 164.52V172.52C16.8506 174.453 18.4176 176.02 20.3506 176.02H28.3506C30.2836 176.02 31.8506 174.453 31.8506 172.52V164.52C31.8506 162.587 30.2836 161.02 28.3506 161.02Z" stroke="white" stroke-opacity="0.07"/>
<path d="M76.3506 177.02H68.3506C66.4176 177.02 64.8506 178.587 64.8506 180.52V188.52C64.8506 190.453 66.4176 192.02 68.3506 192.02H76.3506C78.2836 192.02 79.8506 190.453 79.8506 188.52V180.52C79.8506 178.587 78.2836 177.02 76.3506 177.02Z" stroke="white" stroke-opacity="0.07"/>
<path d="M60.3506 161.02H52.3506C50.4176 161.02 48.8506 162.587 48.8506 164.52V172.52C48.8506 174.453 50.4176 176.02 52.3506 176.02H60.3506C62.2836 176.02 63.8506 174.453 63.8506 172.52V164.52C63.8506 162.587 62.2836 161.02 60.3506 161.02Z" stroke="white" stroke-opacity="0.07"/>
<path d="M76.3506 129.02H68.3506C66.4176 129.02 64.8506 130.587 64.8506 132.52V140.52C64.8506 142.453 66.4176 144.02 68.3506 144.02H76.3506C78.2836 144.02 79.8506 142.453 79.8506 140.52V132.52C79.8506 130.587 78.2836 129.02 76.3506 129.02Z" stroke="white" stroke-opacity="0.07"/>
<path d="M92.3506 144.52H84.3506C82.1414 144.52 80.3506 146.311 80.3506 148.52V156.52C80.3506 158.729 82.1414 160.52 84.3506 160.52H92.3506C94.5597 160.52 96.3506 158.729 96.3506 156.52V148.52C96.3506 146.311 94.5597 144.52 92.3506 144.52Z" fill="url(#paint10_linear_335_4824)" fill-opacity="0.1"/>
<path d="M92.3506 145.02H84.3506C82.4176 145.02 80.8506 146.587 80.8506 148.52V156.52C80.8506 158.453 82.4176 160.02 84.3506 160.02H92.3506C94.2836 160.02 95.8506 158.453 95.8506 156.52V148.52C95.8506 146.587 94.2836 145.02 92.3506 145.02Z" stroke="url(#paint11_linear_335_4824)" stroke-opacity="0.15"/>
<path d="M108.351 129.02H100.351C98.4176 129.02 96.8506 130.587 96.8506 132.52V140.52C96.8506 142.453 98.4176 144.02 100.351 144.02H108.351C110.284 144.02 111.851 142.453 111.851 140.52V132.52C111.851 130.587 110.284 129.02 108.351 129.02Z" stroke="white" stroke-opacity="0.07"/>
<path d="M44.3506 113.02H36.3506C34.4176 113.02 32.8506 114.587 32.8506 116.52V124.52C32.8506 126.453 34.4176 128.02 36.3506 128.02H44.3506C46.2836 128.02 47.8506 126.453 47.8506 124.52V116.52C47.8506 114.587 46.2836 113.02 44.3506 113.02Z" stroke="white" stroke-opacity="0.07"/>
</g>
<defs>
<linearGradient id="paint0_linear_335_4824" x1="128.351" y1="145.52" x2="144.351" y2="161.52" gradientUnits="userSpaceOnUse">
<stop offset="0.005" stop-color="white"/>
<stop offset="1" stop-color="white"/>
</linearGradient>
<linearGradient id="paint1_linear_335_4824" x1="144.351" y1="129.52" x2="160.351" y2="145.52" gradientUnits="userSpaceOnUse">
<stop offset="0.005" stop-color="white"/>
<stop offset="1" stop-color="white"/>
</linearGradient>
<linearGradient id="paint2_linear_335_4824" x1="144.351" y1="129.52" x2="160.351" y2="145.52" gradientUnits="userSpaceOnUse">
<stop offset="0.005" stop-color="white"/>
<stop offset="1" stop-color="white"/>
</linearGradient>
<linearGradient id="paint3_linear_335_4824" x1="224.351" y1="144.52" x2="240.351" y2="160.52" gradientUnits="userSpaceOnUse">
<stop offset="0.005" stop-color="white"/>
<stop offset="1" stop-color="white"/>
</linearGradient>
<linearGradient id="paint4_linear_335_4824" x1="192.351" y1="112.52" x2="208.351" y2="128.52" gradientUnits="userSpaceOnUse">
<stop offset="0.005" stop-color="white"/>
<stop offset="1" stop-color="white"/>
</linearGradient>
<linearGradient id="paint5_linear_335_4824" x1="192.351" y1="112.52" x2="208.351" y2="128.52" gradientUnits="userSpaceOnUse">
<stop offset="0.005" stop-color="white"/>
<stop offset="1" stop-color="white"/>
</linearGradient>
<linearGradient id="paint6_linear_335_4824" x1="160.351" y1="80.5198" x2="176.351" y2="96.5198" gradientUnits="userSpaceOnUse">
<stop offset="0.005" stop-color="white"/>
<stop offset="1" stop-color="white"/>
</linearGradient>
<linearGradient id="paint7_linear_335_4824" x1="48.3506" y1="96.5198" x2="64.3506" y2="112.52" gradientUnits="userSpaceOnUse">
<stop offset="0.005" stop-color="white"/>
<stop offset="1" stop-color="white"/>
</linearGradient>
<linearGradient id="paint8_linear_335_4824" x1="64.3506" y1="48.5198" x2="80.3506" y2="64.5198" gradientUnits="userSpaceOnUse">
<stop offset="0.005" stop-color="white"/>
<stop offset="1" stop-color="white"/>
</linearGradient>
<linearGradient id="paint9_linear_335_4824" x1="64.3506" y1="48.5198" x2="80.3506" y2="64.5198" gradientUnits="userSpaceOnUse">
<stop offset="0.005" stop-color="white"/>
<stop offset="1" stop-color="white"/>
</linearGradient>
<linearGradient id="paint10_linear_335_4824" x1="80.3506" y1="144.52" x2="96.3506" y2="160.52" gradientUnits="userSpaceOnUse">
<stop offset="0.005" stop-color="white"/>
<stop offset="1" stop-color="white"/>
</linearGradient>
<linearGradient id="paint11_linear_335_4824" x1="80.3506" y1="144.52" x2="96.3506" y2="160.52" gradientUnits="userSpaceOnUse">
<stop offset="0.005" stop-color="white"/>
<stop offset="1" stop-color="white"/>
</linearGradient>
<clipPath id="clip0_335_4824">
<rect width="288" height="185" fill="white" transform="translate(0.350586 0.930969)"/>
</clipPath>
</defs>
</svg>
