<svg width="1187" height="494" viewBox="0 0 1187 494" fill="none" xmlns="http://www.w3.org/2000/svg">
<path opacity="0.34" fill-rule="evenodd" clip-rule="evenodd" d="M26.9052 2.159L26.9052 -60.9016H97.8701V2.159H26.9052ZM26.4052 2.659L26.4052 65.7156H0.0146484V66.2156H26.4052L26.4052 129.274H0.0146484V129.774H26.4052L26.4053 192.835H0.0146484V193.335H26.4053L26.4053 256.391H0.0146484V256.891H26.4053L26.4053 319.95H0.0146484V320.45H26.4053L26.4053 383.509H0.0146484V384.009H26.4053L26.4053 447.067H0.0146484V447.567H26.4053L26.4053 510.626H0.0146484V511.126H26.4053L26.4053 574.184H0.0146484V574.684H26.4053L26.4053 637.743H0.0146484V638.243H26.4053L26.4053 684.591H26.9053L26.9053 638.243H97.8701V684.591H98.3701V638.243H169.339V684.591H169.839V638.243H240.808V684.591H241.308V638.243H312.276V684.591H312.776V638.243H383.745V684.591H384.245V638.243H455.21V684.591H455.71V638.243H526.679V684.591H527.179V638.243H598.144V684.591H598.644V638.243H669.612V684.591H670.112V638.243H741.081V684.591H741.581V638.243H812.55V684.591H813.05V638.243H884.019V684.591H884.519V638.243H955.487V684.591H955.987V638.243H1026.95V684.591H1027.45V638.243H1098.42V684.591H1098.92V638.243H1169.89V684.591H1170.39V638.243H1241.36V684.591H1241.86V638.243H1312.83V684.591H1313.33V638.243H1384.29V684.591H1384.79V638.243H1411.68V637.743H1384.79V574.684H1411.68V574.184H1384.79V511.126H1411.68V510.626H1384.79V447.567H1411.68V447.067H1384.79V384.009H1411.68V383.509H1384.79V320.45H1411.68V319.95H1384.79V256.891H1411.68V256.391H1384.79V193.335H1411.68V192.835H1384.79V129.774H1411.68V129.274H1384.79V66.2156H1411.68V65.7156H1384.79V2.659H1411.68V2.159H1384.79V-60.9016H1411.68V-61.4016H1384.79V-107.248H1384.29V-61.4016H1313.33V-107.248H1312.83V-61.4016H1241.86V-107.248H1241.36V-61.4016H1170.39V-107.248H1169.89V-61.4016H1098.92V-107.248H1098.42V-61.4016H1027.45V-107.248H1026.95V-61.4016H955.987V-107.248H955.487V-61.4016H884.518V-107.248H884.018V-61.4016H813.05V-107.248H812.55V-61.4016H741.581V-107.248H741.081V-61.4016H670.112V-107.248H669.612V-61.4016H598.643V-107.248H598.143V-61.4016H527.179V-107.248H526.679V-61.4016H455.71V-107.248H455.21V-61.4016H384.245V-107.248H383.745V-61.4016H312.776V-107.248H312.276V-61.4016H241.308V-107.248H240.808V-61.4016H169.839V-107.248H169.339V-61.4016H98.3701V-107.248H97.8701V-61.4016H26.9052L26.9052 -107.248H26.4052L26.4052 -61.4016H0.0146484V-60.9016H26.4052L26.4052 2.159H0.0146484V2.659H26.4052ZM1384.29 637.743V574.684H1313.33V637.743H1384.29ZM1312.83 637.743V574.684H1241.86V637.743H1312.83ZM1241.36 637.743V574.684H1170.39V637.743H1241.36ZM1169.89 637.743V574.684H1098.92V637.743H1169.89ZM1098.42 637.743V574.684H1027.45V637.743H1098.42ZM1026.95 637.743V574.684H955.987L955.987 637.743H1026.95ZM955.487 637.743L955.487 574.684H884.518L884.519 637.743H955.487ZM884.019 637.743L884.018 574.684H813.05L813.05 637.743H884.019ZM812.55 637.743L812.55 574.684H741.581L741.581 637.743H812.55ZM741.081 637.743L741.081 574.684H670.112L670.112 637.743H741.081ZM669.612 637.743L669.612 574.684H598.643L598.644 637.743H669.612ZM598.144 637.743L598.143 574.684H527.179L527.179 637.743H598.144ZM526.679 637.743L526.679 574.684H455.71L455.71 637.743H526.679ZM455.21 637.743L455.21 574.684H384.245L384.245 637.743H455.21ZM383.745 637.743L383.745 574.684H312.776L312.776 637.743H383.745ZM312.276 637.743L312.276 574.684H241.308L241.308 637.743H312.276ZM240.808 637.743L240.808 574.684H169.839L169.839 637.743H240.808ZM169.339 637.743L169.339 574.684H98.3701L98.3701 637.743H169.339ZM97.8701 637.743L97.8701 574.684H26.9053L26.9053 637.743H97.8701ZM97.8701 574.184H26.9053L26.9053 511.126H97.8701V574.184ZM169.339 574.184H98.3701V511.126H169.339V574.184ZM240.808 574.184H169.839V511.126H240.808V574.184ZM312.276 574.184H241.308V511.126H312.276V574.184ZM383.745 574.184H312.776V511.126H383.745V574.184ZM455.21 574.184H384.245V511.126H455.21V574.184ZM526.679 574.184H455.71V511.126H526.679V574.184ZM598.143 574.184H527.179V511.126H598.143V574.184ZM669.612 574.184H598.643V511.126H669.612V574.184ZM741.081 574.184H670.112V511.126H741.081V574.184ZM812.55 574.184H741.581V511.126H812.55V574.184ZM884.018 574.184H813.05V511.126H884.018V574.184ZM955.487 574.184H884.518V511.126H955.487V574.184ZM1026.95 574.184H955.987V511.126H1026.95V574.184ZM1098.42 574.184H1027.45V511.126H1098.42V574.184ZM1169.89 574.184H1098.92V511.126H1169.89V574.184ZM1241.36 574.184H1170.39V511.126H1241.36V574.184ZM1312.83 574.184H1241.86V511.126H1312.83V574.184ZM1384.29 574.184H1313.33V511.126H1384.29V574.184ZM1384.29 510.626V447.567H1313.33V510.626H1384.29ZM1312.83 510.626V447.567H1241.86V510.626H1312.83ZM1241.36 510.626V447.567H1170.39V510.626H1241.36ZM1169.89 510.626V447.567H1098.92V510.626H1169.89ZM1098.42 510.626V447.567H1027.45V510.626H1098.42ZM1026.95 510.626V447.567H955.987V510.626H1026.95ZM955.487 510.626V447.567H884.518V510.626H955.487ZM884.018 510.626V447.567H813.05V510.626H884.018ZM812.55 510.626V447.567H741.581V510.626H812.55ZM741.081 510.626V447.567H670.112V510.626H741.081ZM669.612 510.626V447.567H598.643V510.626H669.612ZM598.143 510.626V447.567H527.179V510.626H598.143ZM526.679 510.626V447.567H455.71V510.626H526.679ZM455.21 510.626V447.567H384.245V510.626H455.21ZM383.745 510.626V447.567H312.776V510.626H383.745ZM312.276 510.626V447.567H241.308L241.308 510.626H312.276ZM240.808 510.626L240.808 447.567H169.839L169.839 510.626H240.808ZM169.339 510.626L169.339 447.567H98.3701L98.3701 510.626H169.339ZM97.8701 510.626L97.8701 447.567H26.9053L26.9053 510.626H97.8701ZM97.8701 447.067H26.9053L26.9053 384.009H97.8701V447.067ZM169.339 447.067H98.3701V384.009H169.339V447.067ZM240.808 447.067H169.839V384.009H240.808V447.067ZM312.276 447.067H241.308V384.009H312.276V447.067ZM383.745 447.067H312.776V384.009H383.745V447.067ZM455.21 447.067H384.245V384.009H455.21V447.067ZM526.679 447.067H455.71V384.009H526.679V447.067ZM598.143 447.067H527.179V384.009H598.143V447.067ZM669.612 447.067H598.643V384.009H669.612V447.067ZM741.081 447.067H670.112V384.009H741.081V447.067ZM812.55 447.067H741.581V384.009H812.55V447.067ZM884.018 447.067H813.05V384.009H884.018V447.067ZM955.487 447.067H884.518V384.009H955.487V447.067ZM1026.95 447.067H955.987V384.009H1026.95V447.067ZM1098.42 447.067H1027.45V384.009H1098.42V447.067ZM1169.89 447.067H1098.92V384.009H1169.89V447.067ZM1241.36 447.067H1170.39V384.009H1241.36V447.067ZM1312.83 447.067H1241.86V384.009H1312.83V447.067ZM1384.29 447.067H1313.33V384.009H1384.29V447.067ZM1384.29 383.509V320.45H1313.33V383.509H1384.29ZM1312.83 383.509V320.45H1241.86V383.509H1312.83ZM1241.36 383.509V320.45H1170.39V383.509H1241.36ZM1169.89 383.509V320.45H1098.92V383.509H1169.89ZM1098.42 383.509V320.45H1027.45V383.509H1098.42ZM1026.95 383.509V320.45H955.987V383.509H1026.95ZM955.487 383.509V320.45H884.518V383.509H955.487ZM884.018 383.509V320.45H813.05V383.509H884.018ZM812.55 383.509V320.45H741.581V383.509H812.55ZM741.081 383.509V320.45H670.112V383.509H741.081ZM669.612 383.509V320.45H598.643V383.509H669.612ZM598.143 383.509V320.45H527.179V383.509H598.143ZM526.679 383.509V320.45H455.71V383.509H526.679ZM455.21 383.509V320.45H384.245V383.509H455.21ZM383.745 383.509V320.45H312.776V383.509H383.745ZM312.276 383.509V320.45H241.308V383.509H312.276ZM240.808 383.509V320.45H169.839V383.509H240.808ZM169.339 383.509V320.45H98.3701L98.3701 383.509H169.339ZM97.8701 383.509L97.8701 320.45H26.9053L26.9053 383.509H97.8701ZM97.8701 319.95H26.9053L26.9053 256.891H97.8701V319.95ZM169.339 319.95H98.3701V256.891H169.339V319.95ZM240.808 319.95H169.839V256.891H240.808V319.95ZM312.276 319.95H241.308V256.891H312.276V319.95ZM383.745 319.95H312.776V256.891H383.745V319.95ZM455.21 319.95H384.245V256.891H455.21V319.95ZM526.679 319.95H455.71V256.891H526.679V319.95ZM598.143 319.95H527.179V256.891H598.143V319.95ZM669.612 319.95H598.643V256.891H669.612V319.95ZM741.081 319.95H670.112V256.891H741.081V319.95ZM812.55 319.95H741.581V256.891H812.55V319.95ZM884.018 319.95H813.05V256.891H884.018V319.95ZM955.487 319.95H884.518V256.891H955.487V319.95ZM1026.95 319.95H955.987V256.891H1026.95V319.95ZM1098.42 319.95H1027.45V256.891H1098.42V319.95ZM1169.89 319.95H1098.92V256.891H1169.89V319.95ZM1241.36 319.95H1170.39V256.891H1241.36V319.95ZM1312.83 319.95H1241.86V256.891H1312.83V319.95ZM1384.29 319.95H1313.33V256.891H1384.29V319.95ZM1384.29 256.391V193.335H1313.33V256.391H1384.29ZM1312.83 256.391V193.335H1241.86V256.391H1312.83ZM1241.36 256.391V193.335H1170.39V256.391H1241.36ZM1169.89 256.391V193.335H1098.92V256.391H1169.89ZM1098.42 256.391V193.335H1027.45V256.391H1098.42ZM1026.95 256.391V193.335H955.987V256.391H1026.95ZM955.487 256.391V193.335H884.518V256.391H955.487ZM884.018 256.391V193.335H813.05V256.391H884.018ZM812.55 256.391V193.335H741.581V256.391H812.55ZM741.081 256.391V193.335H670.112V256.391H741.081ZM669.612 256.391V193.335H598.643V256.391H669.612ZM598.143 256.391V193.335H527.179V256.391H598.143ZM526.679 256.391V193.335H455.71V256.391H526.679ZM455.21 256.391V193.335H384.245V256.391H455.21ZM383.745 256.391V193.335H312.776V256.391H383.745ZM312.276 256.391V193.335H241.308V256.391H312.276ZM240.808 256.391V193.335H169.839V256.391H240.808ZM169.339 256.391V193.335H98.3701L98.3701 256.391H169.339ZM97.8701 256.391L97.8701 193.335H26.9053L26.9053 256.391H97.8701ZM97.8701 192.835H26.9053L26.9052 129.774H97.8701V192.835ZM169.339 192.835H98.3701V129.774H169.339V192.835ZM240.808 192.835H169.839V129.774H240.808V192.835ZM312.276 192.835H241.308V129.774H312.276V192.835ZM383.745 192.835H312.776V129.774H383.745V192.835ZM455.21 192.835H384.245V129.774H455.21V192.835ZM526.679 192.835H455.71V129.774H526.679V192.835ZM598.143 192.835H527.179V129.774H598.143V192.835ZM669.612 192.835H598.643V129.774H669.612V192.835ZM741.081 192.835H670.112V129.774H741.081V192.835ZM812.55 192.835H741.581V129.774H812.55V192.835ZM884.018 192.835H813.05V129.774H884.018V192.835ZM955.487 192.835H884.518V129.774H955.487V192.835ZM1026.95 192.835H955.987V129.774H1026.95V192.835ZM1098.42 192.835H1027.45V129.774H1098.42V192.835ZM1169.89 192.835H1098.92V129.774H1169.89V192.835ZM1241.36 192.835H1170.39V129.774H1241.36V192.835ZM1312.83 192.835H1241.86V129.774H1312.83V192.835ZM1384.29 192.835H1313.33V129.774H1384.29V192.835ZM1384.29 129.274V66.2156H1313.33V129.274H1384.29ZM1312.83 129.274V66.2156H1241.86V129.274H1312.83ZM1241.36 129.274V66.2156H1170.39V129.274H1241.36ZM1169.89 129.274V66.2156H1098.92V129.274H1169.89ZM1098.42 129.274V66.2156H1027.45V129.274H1098.42ZM1026.95 129.274V66.2156H955.987V129.274H1026.95ZM955.487 129.274V66.2156H884.518V129.274H955.487ZM884.018 129.274V66.2156H813.05V129.274H884.018ZM812.55 129.274V66.2156H741.581V129.274H812.55ZM741.081 129.274V66.2156H670.112V129.274H741.081ZM669.612 129.274V66.2156H598.643V129.274H669.612ZM598.143 129.274V66.2156H527.179V129.274H598.143ZM526.679 129.274V66.2156H455.71V129.274H526.679ZM455.21 129.274V66.2156H384.245V129.274H455.21ZM383.745 129.274V66.2156H312.776V129.274H383.745ZM312.276 129.274V66.2156H241.308V129.274H312.276ZM240.808 129.274V66.2156H169.839V129.274H240.808ZM169.339 129.274V66.2156H98.3701L98.3701 129.274H169.339ZM97.8701 129.274L97.8701 66.2156H26.9052L26.9052 129.274H97.8701ZM97.8701 65.7156H26.9052L26.9052 2.659H97.8701V65.7156ZM169.339 65.7156H98.3701V2.659H169.339V65.7156ZM240.808 65.7156H169.839V2.659H240.808V65.7156ZM312.276 65.7156H241.308V2.659H312.276V65.7156ZM383.745 65.7156H312.776V2.659H383.745V65.7156ZM455.21 65.7156H384.245V2.659H455.21V65.7156ZM526.679 65.7156H455.71V2.659H526.679V65.7156ZM598.143 65.7156H527.179V2.659H598.143V65.7156ZM669.612 65.7156H598.643V2.659H669.612V65.7156ZM741.081 65.7156H670.112V2.659H741.081V65.7156ZM812.55 65.7156H741.581V2.659H812.55V65.7156ZM884.018 65.7156H813.05V2.659H884.018V65.7156ZM955.487 65.7156H884.518V2.659H955.487V65.7156ZM1026.95 65.7156H955.987V2.659H1026.95V65.7156ZM1098.42 65.7156H1027.45V2.659H1098.42V65.7156ZM1169.89 65.7156H1098.92V2.659H1169.89V65.7156ZM1241.36 65.7156H1170.39V2.659H1241.36V65.7156ZM1312.83 65.7156H1241.86V2.659H1312.83V65.7156ZM1384.29 65.7156H1313.33V2.659H1384.29V65.7156ZM1384.29 2.159V-60.9016H1313.33V2.159H1384.29ZM1312.83 2.159V-60.9016H1241.86V2.159H1312.83ZM1241.36 2.159V-60.9016H1170.39V2.159H1241.36ZM1169.89 2.159V-60.9016H1098.92V2.159H1169.89ZM1098.42 2.159V-60.9016H1027.45V2.159H1098.42ZM1026.95 2.159V-60.9016H955.987V2.159H1026.95ZM955.487 2.159V-60.9016H884.518V2.159H955.487ZM884.018 2.159V-60.9016H813.05V2.159H884.018ZM812.55 2.159V-60.9016H741.581V2.159H812.55ZM741.081 2.159V-60.9016H670.112V2.159H741.081ZM669.612 2.159V-60.9016H598.643V2.159H669.612ZM598.143 2.159V-60.9016H527.179V2.159H598.143ZM526.679 2.159V-60.9016H455.71V2.159H526.679ZM455.21 2.159V-60.9016H384.245V2.159H455.21ZM383.745 2.159V-60.9016H312.776V2.159H383.745ZM312.276 2.159V-60.9016H241.308V2.159H312.276ZM240.808 2.159V-60.9016H169.839V2.159H240.808ZM169.339 2.159V-60.9016H98.3701V2.159H169.339Z" fill="url(#paint0_radial_335_5507)"/>
<defs>
<radialGradient id="paint0_radial_335_5507" cx="0" cy="0" r="1" gradientUnits="userSpaceOnUse" gradientTransform="translate(803.182 271.844) rotate(139.6) scale(285.605 471.959)">
<stop stop-color="white"/>
<stop offset="0.710369" stop-color="white" stop-opacity="0"/>
</radialGradient>
</defs>
</svg>
