<svg width="384" height="323" viewBox="0 0 384 323" fill="none" xmlns="http://www.w3.org/2000/svg">
<g opacity="0.5">
<rect x="20" y="-17.3179" width="340" height="340" rx="170" fill="url(#paint0_radial_1451_1872)"/>
</g>
<mask id="mask0_1451_1872" style="mask-type:alpha" maskUnits="userSpaceOnUse" x="26" y="-17" width="332" height="332">
<rect x="26" y="-17" width="332" height="332" fill="url(#paint1_radial_1451_1872)"/>
</mask>
<g mask="url(#mask0_1451_1872)">
<g clip-path="url(#clip0_1451_1872)">
<path opacity="0.5" d="M70.66 269.25V230.256C70.66 226.085 72.2892 222.078 75.2004 219.09L123.12 169.91C126.031 166.922 127.66 162.915 127.66 158.744V141.25C127.66 132.413 134.823 125.25 143.66 125.25H221.08C225.296 125.25 229.34 123.587 232.336 120.621L326.16 27.75" stroke="#3E8173" stroke-width="1.5"/>
</g>
<g clip-path="url(#clip1_1451_1872)">
<path d="M71.45 268.92V229.926C71.45 225.755 73.0791 221.748 75.9903 218.76L123.91 169.58C126.821 166.592 128.45 162.586 128.45 158.414V140.92C128.45 132.083 135.613 124.92 144.45 124.92H192.95" stroke="url(#paint2_linear_1451_1872)" stroke-width="1.5"/>
</g>
<g clip-path="url(#clip2_1451_1872)">
<path opacity="0.1" d="M41.3 176.17H410.3" stroke="#F8F8F8" stroke-width="1.5"/>
</g>
<g clip-path="url(#clip3_1451_1872)">
<path opacity="0.1" d="M85.4805 78.7002L122.317 139.947C125.211 144.758 130.414 147.7 136.028 147.7H323.98C332.817 147.7 339.98 154.864 339.98 163.7V267.7" stroke="#F8F8F8" stroke-width="1.5"/>
</g>
<g clip-path="url(#clip4_1451_1872)">
<path opacity="0.1" d="M47.1104 176.75V94.75C47.1104 85.9134 54.2738 78.75 63.1104 78.75H441.61" stroke="#F8F8F8" stroke-width="1.5"/>
</g>
<g clip-path="url(#clip5_1451_1872)">
<path opacity="0.1" d="M26.5 246.47H260.5C269.337 246.47 276.5 239.307 276.5 230.47V-24.53" stroke="#F8F8F8" stroke-width="1.5"/>
</g>
<path opacity="0.1" d="M115.94 270.91L189.318 181.332C191.66 178.473 192.94 174.89 192.94 171.193V-39.0898" stroke="#F8F8F8" stroke-width="1.5"/>
<g opacity="0.7" filter="url(#filter0_dii_1451_1872)">
<path d="M270 176C270 172.686 272.686 170 276 170C279.314 170 282 172.686 282 176C282 179.314 279.314 182 276 182C272.686 182 270 179.314 270 176Z" fill="#010101"/>
<path d="M270 176C270 172.686 272.686 170 276 170C279.314 170 282 172.686 282 176C282 179.314 279.314 182 276 182C272.686 182 270 179.314 270 176Z" fill="url(#paint3_radial_1451_1872)" fill-opacity="0.5"/>
<path d="M270.25 176C270.25 172.824 272.824 170.25 276 170.25C279.176 170.25 281.75 172.824 281.75 176C281.75 179.176 279.176 181.75 276 181.75C272.824 181.75 270.25 179.176 270.25 176Z" stroke="url(#paint4_linear_1451_1872)" stroke-width="0.5" style="mix-blend-mode:overlay"/>
</g>
<rect x="273" y="173" width="6" height="6" rx="3" fill="#F8F8F8"/>
<g opacity="0.7" filter="url(#filter1_dii_1451_1872)">
<path d="M41 176C41 172.686 43.6863 170 47 170C50.3137 170 53 172.686 53 176C53 179.314 50.3137 182 47 182C43.6863 182 41 179.314 41 176Z" fill="#010101"/>
<path d="M41 176C41 172.686 43.6863 170 47 170C50.3137 170 53 172.686 53 176C53 179.314 50.3137 182 47 182C43.6863 182 41 179.314 41 176Z" fill="url(#paint5_radial_1451_1872)" fill-opacity="0.5"/>
<path d="M41.25 176C41.25 172.824 43.8244 170.25 47 170.25C50.1756 170.25 52.75 172.824 52.75 176C52.75 179.176 50.1756 181.75 47 181.75C43.8244 181.75 41.25 179.176 41.25 176Z" stroke="url(#paint6_linear_1451_1872)" stroke-width="0.5" style="mix-blend-mode:overlay"/>
</g>
<rect x="44" y="173" width="6" height="6" rx="3" fill="#F8F8F8"/>
<g opacity="0.5" filter="url(#filter2_dii_1451_1872)">
<rect x="122" y="140" width="12" height="12" rx="6" fill="#010101"/>
<rect x="122" y="140" width="12" height="12" rx="6" fill="url(#paint7_radial_1451_1872)" fill-opacity="0.5"/>
<rect x="122.25" y="140.25" width="11.5" height="11.5" rx="5.75" stroke="url(#paint8_linear_1451_1872)" stroke-width="0.5" style="mix-blend-mode:overlay"/>
</g>
<rect x="125" y="143" width="6" height="6" rx="3" fill="#F8F8F8"/>
<g opacity="0.7" filter="url(#filter3_dii_1451_1872)">
<path d="M187 176C187 172.686 189.686 170 193 170C196.314 170 199 172.686 199 176C199 179.314 196.314 182 193 182C189.686 182 187 179.314 187 176Z" fill="#010101"/>
<path d="M187 176C187 172.686 189.686 170 193 170C196.314 170 199 172.686 199 176C199 179.314 196.314 182 193 182C189.686 182 187 179.314 187 176Z" fill="url(#paint9_radial_1451_1872)" fill-opacity="0.5"/>
<path d="M187.25 176C187.25 172.824 189.824 170.25 193 170.25C196.176 170.25 198.75 172.824 198.75 176C198.75 179.176 196.176 181.75 193 181.75C189.824 181.75 187.25 179.176 187.25 176Z" stroke="url(#paint10_linear_1451_1872)" stroke-width="0.5" style="mix-blend-mode:overlay"/>
</g>
<rect x="190" y="173" width="6" height="6" rx="3" fill="#F8F8F8"/>
<rect x="190" y="122" width="6" height="6" rx="3" fill="#F8F8F8"/>
<g opacity="0.7" filter="url(#filter4_dii_1451_1872)">
<path d="M80 80C80 76.6863 82.6863 74 86 74C89.3137 74 92 76.6863 92 80C92 83.3137 89.3137 86 86 86C82.6863 86 80 83.3137 80 80Z" fill="#010101"/>
<path d="M80 80C80 76.6863 82.6863 74 86 74C89.3137 74 92 76.6863 92 80C92 83.3137 89.3137 86 86 86C82.6863 86 80 83.3137 80 80Z" fill="url(#paint11_radial_1451_1872)" fill-opacity="0.5"/>
<path d="M80.25 80C80.25 76.8244 82.8244 74.25 86 74.25C89.1756 74.25 91.75 76.8244 91.75 80C91.75 83.1756 89.1756 85.75 86 85.75C82.8244 85.75 80.25 83.1756 80.25 80Z" stroke="url(#paint12_linear_1451_1872)" stroke-width="0.5" style="mix-blend-mode:overlay"/>
</g>
<rect x="83" y="77" width="6" height="6" rx="3" fill="#F8F8F8"/>
<g opacity="0.7" filter="url(#filter5_dii_1451_1872)">
<path d="M187 79C187 75.6863 189.686 73 193 73C196.314 73 199 75.6863 199 79C199 82.3137 196.314 85 193 85C189.686 85 187 82.3137 187 79Z" fill="#010101"/>
<path d="M187 79C187 75.6863 189.686 73 193 73C196.314 73 199 75.6863 199 79C199 82.3137 196.314 85 193 85C189.686 85 187 82.3137 187 79Z" fill="url(#paint13_radial_1451_1872)" fill-opacity="0.5"/>
<path d="M187.25 79C187.25 75.8244 189.824 73.25 193 73.25C196.176 73.25 198.75 75.8244 198.75 79C198.75 82.1756 196.176 84.75 193 84.75C189.824 84.75 187.25 82.1756 187.25 79Z" stroke="url(#paint14_linear_1451_1872)" stroke-width="0.5" style="mix-blend-mode:overlay"/>
</g>
<rect x="190" y="76" width="6" height="6" rx="3" fill="#F8F8F8"/>
<g opacity="0.7" filter="url(#filter6_dii_1451_1872)">
<path d="M271 148C271 144.686 273.686 142 277 142C280.314 142 283 144.686 283 148C283 151.314 280.314 154 277 154C273.686 154 271 151.314 271 148Z" fill="#010101"/>
<path d="M271 148C271 144.686 273.686 142 277 142C280.314 142 283 144.686 283 148C283 151.314 280.314 154 277 154C273.686 154 271 151.314 271 148Z" fill="url(#paint15_radial_1451_1872)" fill-opacity="0.5"/>
<path d="M271.25 148C271.25 144.824 273.824 142.25 277 142.25C280.176 142.25 282.75 144.824 282.75 148C282.75 151.176 280.176 153.75 277 153.75C273.824 153.75 271.25 151.176 271.25 148Z" stroke="url(#paint16_linear_1451_1872)" stroke-width="0.5" style="mix-blend-mode:overlay"/>
</g>
<rect x="274" y="145" width="6" height="6" rx="3" fill="#F8F8F8"/>
<path d="M183.317 121.683C182.473 120.839 181.999 119.694 181.999 118.5C181.999 117.307 182.473 116.162 183.317 115.318C184.161 114.474 185.306 114 186.5 114C187.693 114 188.838 114.474 189.682 115.318" stroke="#5A4286" stroke-width="3" stroke-linecap="round" stroke-linejoin="round"/>
<path d="M196.318 115.317C197.162 114.473 198.306 113.999 199.5 113.999C200.694 113.999 201.839 114.473 202.683 115.317C203.527 116.162 204.001 117.306 204.001 118.5C204.001 119.694 203.527 120.838 202.683 121.682" stroke="#5A4286" stroke-width="3" stroke-linecap="round" stroke-linejoin="round"/>
<path d="M202.683 128.317C203.527 129.161 204.001 130.306 204.001 131.5C204.001 132.694 203.527 133.838 202.683 134.682C201.839 135.526 200.694 136.001 199.5 136.001C198.306 136.001 197.162 135.526 196.318 134.682" stroke="#5A4286" stroke-width="3" stroke-linecap="round" stroke-linejoin="round"/>
<path d="M189.682 134.682C188.838 135.526 187.693 136.001 186.5 136.001C185.306 136.001 184.161 135.526 183.317 134.682C182.473 133.838 181.999 132.694 181.999 131.5C181.999 130.306 182.473 129.161 183.317 128.317" stroke="#5A4286" stroke-width="3" stroke-linecap="round" stroke-linejoin="round"/>
<path fill-rule="evenodd" clip-rule="evenodd" d="M200.561 117.439C201.146 118.025 201.146 118.975 200.561 119.561L198.379 121.743C197.816 122.305 197.5 123.068 197.5 123.864V126.136C197.5 126.932 197.816 127.695 198.379 128.257L200.561 130.439C201.146 131.025 201.146 131.975 200.561 132.561C199.975 133.146 199.025 133.146 198.439 132.561L196.257 130.379C195.695 129.816 194.932 129.5 194.136 129.5H191.864C191.068 129.5 190.305 129.816 189.743 130.379L187.561 132.561C186.975 133.146 186.025 133.146 185.439 132.561C184.854 131.975 184.854 131.025 185.439 130.439L187.621 128.257C188.184 127.695 188.5 126.932 188.5 126.136V123.864C188.5 123.068 188.184 122.305 187.621 121.743L185.439 119.561C184.854 118.975 184.854 118.025 185.439 117.439C186.025 116.854 186.975 116.854 187.561 117.439L189.743 119.621C190.305 120.184 191.068 120.5 191.864 120.5H194.136C194.932 120.5 195.695 120.184 196.257 119.621L198.439 117.439C199.025 116.854 199.975 116.854 200.561 117.439ZM193 126.5C192.172 126.5 191.5 125.828 191.5 125C191.5 124.172 192.172 123.5 193 123.5C193.828 123.5 194.5 124.172 194.5 125C194.5 125.828 193.828 126.5 193 126.5Z" fill="url(#paint17_linear_1451_1872)"/>
</g>
<g opacity="0.5" filter="url(#filter7_dii_1451_1872)">
<rect x="266" y="69" width="20" height="20" rx="10" fill="#010101"/>
<rect x="266" y="69" width="20" height="20" rx="10" fill="url(#paint18_radial_1451_1872)" fill-opacity="0.5"/>
<rect x="266.5" y="69.5" width="19" height="19" rx="9.5" stroke="url(#paint19_linear_1451_1872)" style="mix-blend-mode:overlay"/>
</g>
<rect x="271" y="74" width="10" height="10" rx="5" fill="#F8F8F8"/>
<defs>
<filter id="filter0_dii_1451_1872" x="260" y="169" width="32" height="33" filterUnits="userSpaceOnUse" color-interpolation-filters="sRGB">
<feFlood flood-opacity="0" result="BackgroundImageFix"/>
<feColorMatrix in="SourceAlpha" type="matrix" values="0 0 0 0 0 0 0 0 0 0 0 0 0 0 0 0 0 0 127 0" result="hardAlpha"/>
<feOffset dy="10"/>
<feGaussianBlur stdDeviation="5"/>
<feComposite in2="hardAlpha" operator="out"/>
<feColorMatrix type="matrix" values="0 0 0 0 0 0 0 0 0 0 0 0 0 0 0 0 0 0 0.1 0"/>
<feBlend mode="normal" in2="BackgroundImageFix" result="effect1_dropShadow_1451_1872"/>
<feBlend mode="normal" in="SourceGraphic" in2="effect1_dropShadow_1451_1872" result="shape"/>
<feColorMatrix in="SourceAlpha" type="matrix" values="0 0 0 0 0 0 0 0 0 0 0 0 0 0 0 0 0 0 127 0" result="hardAlpha"/>
<feOffset/>
<feGaussianBlur stdDeviation="5"/>
<feComposite in2="hardAlpha" operator="arithmetic" k2="-1" k3="1"/>
<feColorMatrix type="matrix" values="0 0 0 0 0.943597 0 0 0 0 0.923779 0 0 0 0 1 0 0 0 1 0"/>
<feBlend mode="overlay" in2="shape" result="effect2_innerShadow_1451_1872"/>
<feColorMatrix in="SourceAlpha" type="matrix" values="0 0 0 0 0 0 0 0 0 0 0 0 0 0 0 0 0 0 127 0" result="hardAlpha"/>
<feOffset dy="-1"/>
<feGaussianBlur stdDeviation="10"/>
<feComposite in2="hardAlpha" operator="arithmetic" k2="-1" k3="1"/>
<feColorMatrix type="matrix" values="0 0 0 0 0.92995 0 0 0 0 0.905339 0 0 0 0 1 0 0 0 1 0"/>
<feBlend mode="overlay" in2="effect2_innerShadow_1451_1872" result="effect3_innerShadow_1451_1872"/>
</filter>
<filter id="filter1_dii_1451_1872" x="31" y="169" width="32" height="33" filterUnits="userSpaceOnUse" color-interpolation-filters="sRGB">
<feFlood flood-opacity="0" result="BackgroundImageFix"/>
<feColorMatrix in="SourceAlpha" type="matrix" values="0 0 0 0 0 0 0 0 0 0 0 0 0 0 0 0 0 0 127 0" result="hardAlpha"/>
<feOffset dy="10"/>
<feGaussianBlur stdDeviation="5"/>
<feComposite in2="hardAlpha" operator="out"/>
<feColorMatrix type="matrix" values="0 0 0 0 0 0 0 0 0 0 0 0 0 0 0 0 0 0 0.1 0"/>
<feBlend mode="normal" in2="BackgroundImageFix" result="effect1_dropShadow_1451_1872"/>
<feBlend mode="normal" in="SourceGraphic" in2="effect1_dropShadow_1451_1872" result="shape"/>
<feColorMatrix in="SourceAlpha" type="matrix" values="0 0 0 0 0 0 0 0 0 0 0 0 0 0 0 0 0 0 127 0" result="hardAlpha"/>
<feOffset/>
<feGaussianBlur stdDeviation="5"/>
<feComposite in2="hardAlpha" operator="arithmetic" k2="-1" k3="1"/>
<feColorMatrix type="matrix" values="0 0 0 0 0.943597 0 0 0 0 0.923779 0 0 0 0 1 0 0 0 1 0"/>
<feBlend mode="overlay" in2="shape" result="effect2_innerShadow_1451_1872"/>
<feColorMatrix in="SourceAlpha" type="matrix" values="0 0 0 0 0 0 0 0 0 0 0 0 0 0 0 0 0 0 127 0" result="hardAlpha"/>
<feOffset dy="-1"/>
<feGaussianBlur stdDeviation="10"/>
<feComposite in2="hardAlpha" operator="arithmetic" k2="-1" k3="1"/>
<feColorMatrix type="matrix" values="0 0 0 0 0.92995 0 0 0 0 0.905339 0 0 0 0 1 0 0 0 1 0"/>
<feBlend mode="overlay" in2="effect2_innerShadow_1451_1872" result="effect3_innerShadow_1451_1872"/>
</filter>
<filter id="filter2_dii_1451_1872" x="112" y="139" width="32" height="33" filterUnits="userSpaceOnUse" color-interpolation-filters="sRGB">
<feFlood flood-opacity="0" result="BackgroundImageFix"/>
<feColorMatrix in="SourceAlpha" type="matrix" values="0 0 0 0 0 0 0 0 0 0 0 0 0 0 0 0 0 0 127 0" result="hardAlpha"/>
<feOffset dy="10"/>
<feGaussianBlur stdDeviation="5"/>
<feComposite in2="hardAlpha" operator="out"/>
<feColorMatrix type="matrix" values="0 0 0 0 0 0 0 0 0 0 0 0 0 0 0 0 0 0 0.1 0"/>
<feBlend mode="normal" in2="BackgroundImageFix" result="effect1_dropShadow_1451_1872"/>
<feBlend mode="normal" in="SourceGraphic" in2="effect1_dropShadow_1451_1872" result="shape"/>
<feColorMatrix in="SourceAlpha" type="matrix" values="0 0 0 0 0 0 0 0 0 0 0 0 0 0 0 0 0 0 127 0" result="hardAlpha"/>
<feOffset/>
<feGaussianBlur stdDeviation="5"/>
<feComposite in2="hardAlpha" operator="arithmetic" k2="-1" k3="1"/>
<feColorMatrix type="matrix" values="0 0 0 0 0.943597 0 0 0 0 0.923779 0 0 0 0 1 0 0 0 1 0"/>
<feBlend mode="overlay" in2="shape" result="effect2_innerShadow_1451_1872"/>
<feColorMatrix in="SourceAlpha" type="matrix" values="0 0 0 0 0 0 0 0 0 0 0 0 0 0 0 0 0 0 127 0" result="hardAlpha"/>
<feOffset dy="-1"/>
<feGaussianBlur stdDeviation="10"/>
<feComposite in2="hardAlpha" operator="arithmetic" k2="-1" k3="1"/>
<feColorMatrix type="matrix" values="0 0 0 0 0.92995 0 0 0 0 0.905339 0 0 0 0 1 0 0 0 1 0"/>
<feBlend mode="overlay" in2="effect2_innerShadow_1451_1872" result="effect3_innerShadow_1451_1872"/>
</filter>
<filter id="filter3_dii_1451_1872" x="177" y="169" width="32" height="33" filterUnits="userSpaceOnUse" color-interpolation-filters="sRGB">
<feFlood flood-opacity="0" result="BackgroundImageFix"/>
<feColorMatrix in="SourceAlpha" type="matrix" values="0 0 0 0 0 0 0 0 0 0 0 0 0 0 0 0 0 0 127 0" result="hardAlpha"/>
<feOffset dy="10"/>
<feGaussianBlur stdDeviation="5"/>
<feComposite in2="hardAlpha" operator="out"/>
<feColorMatrix type="matrix" values="0 0 0 0 0 0 0 0 0 0 0 0 0 0 0 0 0 0 0.1 0"/>
<feBlend mode="normal" in2="BackgroundImageFix" result="effect1_dropShadow_1451_1872"/>
<feBlend mode="normal" in="SourceGraphic" in2="effect1_dropShadow_1451_1872" result="shape"/>
<feColorMatrix in="SourceAlpha" type="matrix" values="0 0 0 0 0 0 0 0 0 0 0 0 0 0 0 0 0 0 127 0" result="hardAlpha"/>
<feOffset/>
<feGaussianBlur stdDeviation="5"/>
<feComposite in2="hardAlpha" operator="arithmetic" k2="-1" k3="1"/>
<feColorMatrix type="matrix" values="0 0 0 0 0.943597 0 0 0 0 0.923779 0 0 0 0 1 0 0 0 1 0"/>
<feBlend mode="overlay" in2="shape" result="effect2_innerShadow_1451_1872"/>
<feColorMatrix in="SourceAlpha" type="matrix" values="0 0 0 0 0 0 0 0 0 0 0 0 0 0 0 0 0 0 127 0" result="hardAlpha"/>
<feOffset dy="-1"/>
<feGaussianBlur stdDeviation="10"/>
<feComposite in2="hardAlpha" operator="arithmetic" k2="-1" k3="1"/>
<feColorMatrix type="matrix" values="0 0 0 0 0.92995 0 0 0 0 0.905339 0 0 0 0 1 0 0 0 1 0"/>
<feBlend mode="overlay" in2="effect2_innerShadow_1451_1872" result="effect3_innerShadow_1451_1872"/>
</filter>
<filter id="filter4_dii_1451_1872" x="70" y="73" width="32" height="33" filterUnits="userSpaceOnUse" color-interpolation-filters="sRGB">
<feFlood flood-opacity="0" result="BackgroundImageFix"/>
<feColorMatrix in="SourceAlpha" type="matrix" values="0 0 0 0 0 0 0 0 0 0 0 0 0 0 0 0 0 0 127 0" result="hardAlpha"/>
<feOffset dy="10"/>
<feGaussianBlur stdDeviation="5"/>
<feComposite in2="hardAlpha" operator="out"/>
<feColorMatrix type="matrix" values="0 0 0 0 0 0 0 0 0 0 0 0 0 0 0 0 0 0 0.1 0"/>
<feBlend mode="normal" in2="BackgroundImageFix" result="effect1_dropShadow_1451_1872"/>
<feBlend mode="normal" in="SourceGraphic" in2="effect1_dropShadow_1451_1872" result="shape"/>
<feColorMatrix in="SourceAlpha" type="matrix" values="0 0 0 0 0 0 0 0 0 0 0 0 0 0 0 0 0 0 127 0" result="hardAlpha"/>
<feOffset/>
<feGaussianBlur stdDeviation="5"/>
<feComposite in2="hardAlpha" operator="arithmetic" k2="-1" k3="1"/>
<feColorMatrix type="matrix" values="0 0 0 0 0.943597 0 0 0 0 0.923779 0 0 0 0 1 0 0 0 1 0"/>
<feBlend mode="overlay" in2="shape" result="effect2_innerShadow_1451_1872"/>
<feColorMatrix in="SourceAlpha" type="matrix" values="0 0 0 0 0 0 0 0 0 0 0 0 0 0 0 0 0 0 127 0" result="hardAlpha"/>
<feOffset dy="-1"/>
<feGaussianBlur stdDeviation="10"/>
<feComposite in2="hardAlpha" operator="arithmetic" k2="-1" k3="1"/>
<feColorMatrix type="matrix" values="0 0 0 0 0.92995 0 0 0 0 0.905339 0 0 0 0 1 0 0 0 1 0"/>
<feBlend mode="overlay" in2="effect2_innerShadow_1451_1872" result="effect3_innerShadow_1451_1872"/>
</filter>
<filter id="filter5_dii_1451_1872" x="177" y="72" width="32" height="33" filterUnits="userSpaceOnUse" color-interpolation-filters="sRGB">
<feFlood flood-opacity="0" result="BackgroundImageFix"/>
<feColorMatrix in="SourceAlpha" type="matrix" values="0 0 0 0 0 0 0 0 0 0 0 0 0 0 0 0 0 0 127 0" result="hardAlpha"/>
<feOffset dy="10"/>
<feGaussianBlur stdDeviation="5"/>
<feComposite in2="hardAlpha" operator="out"/>
<feColorMatrix type="matrix" values="0 0 0 0 0 0 0 0 0 0 0 0 0 0 0 0 0 0 0.1 0"/>
<feBlend mode="normal" in2="BackgroundImageFix" result="effect1_dropShadow_1451_1872"/>
<feBlend mode="normal" in="SourceGraphic" in2="effect1_dropShadow_1451_1872" result="shape"/>
<feColorMatrix in="SourceAlpha" type="matrix" values="0 0 0 0 0 0 0 0 0 0 0 0 0 0 0 0 0 0 127 0" result="hardAlpha"/>
<feOffset/>
<feGaussianBlur stdDeviation="5"/>
<feComposite in2="hardAlpha" operator="arithmetic" k2="-1" k3="1"/>
<feColorMatrix type="matrix" values="0 0 0 0 0.943597 0 0 0 0 0.923779 0 0 0 0 1 0 0 0 1 0"/>
<feBlend mode="overlay" in2="shape" result="effect2_innerShadow_1451_1872"/>
<feColorMatrix in="SourceAlpha" type="matrix" values="0 0 0 0 0 0 0 0 0 0 0 0 0 0 0 0 0 0 127 0" result="hardAlpha"/>
<feOffset dy="-1"/>
<feGaussianBlur stdDeviation="10"/>
<feComposite in2="hardAlpha" operator="arithmetic" k2="-1" k3="1"/>
<feColorMatrix type="matrix" values="0 0 0 0 0.92995 0 0 0 0 0.905339 0 0 0 0 1 0 0 0 1 0"/>
<feBlend mode="overlay" in2="effect2_innerShadow_1451_1872" result="effect3_innerShadow_1451_1872"/>
</filter>
<filter id="filter6_dii_1451_1872" x="261" y="141" width="32" height="33" filterUnits="userSpaceOnUse" color-interpolation-filters="sRGB">
<feFlood flood-opacity="0" result="BackgroundImageFix"/>
<feColorMatrix in="SourceAlpha" type="matrix" values="0 0 0 0 0 0 0 0 0 0 0 0 0 0 0 0 0 0 127 0" result="hardAlpha"/>
<feOffset dy="10"/>
<feGaussianBlur stdDeviation="5"/>
<feComposite in2="hardAlpha" operator="out"/>
<feColorMatrix type="matrix" values="0 0 0 0 0 0 0 0 0 0 0 0 0 0 0 0 0 0 0.1 0"/>
<feBlend mode="normal" in2="BackgroundImageFix" result="effect1_dropShadow_1451_1872"/>
<feBlend mode="normal" in="SourceGraphic" in2="effect1_dropShadow_1451_1872" result="shape"/>
<feColorMatrix in="SourceAlpha" type="matrix" values="0 0 0 0 0 0 0 0 0 0 0 0 0 0 0 0 0 0 127 0" result="hardAlpha"/>
<feOffset/>
<feGaussianBlur stdDeviation="5"/>
<feComposite in2="hardAlpha" operator="arithmetic" k2="-1" k3="1"/>
<feColorMatrix type="matrix" values="0 0 0 0 0.943597 0 0 0 0 0.923779 0 0 0 0 1 0 0 0 1 0"/>
<feBlend mode="overlay" in2="shape" result="effect2_innerShadow_1451_1872"/>
<feColorMatrix in="SourceAlpha" type="matrix" values="0 0 0 0 0 0 0 0 0 0 0 0 0 0 0 0 0 0 127 0" result="hardAlpha"/>
<feOffset dy="-1"/>
<feGaussianBlur stdDeviation="10"/>
<feComposite in2="hardAlpha" operator="arithmetic" k2="-1" k3="1"/>
<feColorMatrix type="matrix" values="0 0 0 0 0.92995 0 0 0 0 0.905339 0 0 0 0 1 0 0 0 1 0"/>
<feBlend mode="overlay" in2="effect2_innerShadow_1451_1872" result="effect3_innerShadow_1451_1872"/>
</filter>
<filter id="filter7_dii_1451_1872" x="256" y="68" width="40" height="41" filterUnits="userSpaceOnUse" color-interpolation-filters="sRGB">
<feFlood flood-opacity="0" result="BackgroundImageFix"/>
<feColorMatrix in="SourceAlpha" type="matrix" values="0 0 0 0 0 0 0 0 0 0 0 0 0 0 0 0 0 0 127 0" result="hardAlpha"/>
<feOffset dy="10"/>
<feGaussianBlur stdDeviation="5"/>
<feComposite in2="hardAlpha" operator="out"/>
<feColorMatrix type="matrix" values="0 0 0 0 0 0 0 0 0 0 0 0 0 0 0 0 0 0 0.1 0"/>
<feBlend mode="normal" in2="BackgroundImageFix" result="effect1_dropShadow_1451_1872"/>
<feBlend mode="normal" in="SourceGraphic" in2="effect1_dropShadow_1451_1872" result="shape"/>
<feColorMatrix in="SourceAlpha" type="matrix" values="0 0 0 0 0 0 0 0 0 0 0 0 0 0 0 0 0 0 127 0" result="hardAlpha"/>
<feOffset/>
<feGaussianBlur stdDeviation="5"/>
<feComposite in2="hardAlpha" operator="arithmetic" k2="-1" k3="1"/>
<feColorMatrix type="matrix" values="0 0 0 0 0.943597 0 0 0 0 0.923779 0 0 0 0 1 0 0 0 1 0"/>
<feBlend mode="overlay" in2="shape" result="effect2_innerShadow_1451_1872"/>
<feColorMatrix in="SourceAlpha" type="matrix" values="0 0 0 0 0 0 0 0 0 0 0 0 0 0 0 0 0 0 127 0" result="hardAlpha"/>
<feOffset dy="-1"/>
<feGaussianBlur stdDeviation="10"/>
<feComposite in2="hardAlpha" operator="arithmetic" k2="-1" k3="1"/>
<feColorMatrix type="matrix" values="0 0 0 0 0.92995 0 0 0 0 0.905339 0 0 0 0 1 0 0 0 1 0"/>
<feBlend mode="overlay" in2="effect2_innerShadow_1451_1872" result="effect3_innerShadow_1451_1872"/>
</filter>
<radialGradient id="paint0_radial_1451_1872" cx="0" cy="0" r="1" gradientUnits="userSpaceOnUse" gradientTransform="translate(194.554 152.682) rotate(90) scale(134.481)">
<stop stop-color="white" stop-opacity="0.25"/>
<stop offset="1" stop-color="#ABABAB" stop-opacity="0"/>
</radialGradient>
<radialGradient id="paint1_radial_1451_1872" cx="0" cy="0" r="1" gradientUnits="userSpaceOnUse" gradientTransform="translate(192 149) scale(166)">
<stop/>
<stop offset="1" stop-opacity="0"/>
</radialGradient>
<linearGradient id="paint2_linear_1451_1872" x1="193" y1="125" x2="85.5" y2="259" gradientUnits="userSpaceOnUse">
<stop stop-color="#AE88F6"/>
<stop offset="1" stop-color="#9667ED"/>
</linearGradient>
<radialGradient id="paint3_radial_1451_1872" cx="0" cy="0" r="1" gradientUnits="userSpaceOnUse" gradientTransform="translate(282 186.059) rotate(-131.312) scale(21.3798 7.89524)">
<stop stop-color="#F9A96E" stop-opacity="0"/>
<stop offset="1" stop-color="#F9A96E"/>
</radialGradient>
<linearGradient id="paint4_linear_1451_1872" x1="273.982" y1="178.323" x2="279.205" y2="170.376" gradientUnits="userSpaceOnUse">
<stop stop-color="white" stop-opacity="0.5"/>
<stop offset="1" stop-color="white" stop-opacity="0.5"/>
</linearGradient>
<radialGradient id="paint5_radial_1451_1872" cx="0" cy="0" r="1" gradientUnits="userSpaceOnUse" gradientTransform="translate(53 186.059) rotate(-131.312) scale(21.3798 7.89524)">
<stop stop-color="#F9A96E" stop-opacity="0"/>
<stop offset="1" stop-color="#F9A96E"/>
</radialGradient>
<linearGradient id="paint6_linear_1451_1872" x1="44.9824" y1="178.323" x2="50.2051" y2="170.376" gradientUnits="userSpaceOnUse">
<stop stop-color="white" stop-opacity="0.5"/>
<stop offset="1" stop-color="white" stop-opacity="0.5"/>
</linearGradient>
<radialGradient id="paint7_radial_1451_1872" cx="0" cy="0" r="1" gradientUnits="userSpaceOnUse" gradientTransform="translate(134 156.059) rotate(-131.312) scale(21.3798 7.89524)">
<stop stop-color="#5A4286" stop-opacity="0"/>
<stop offset="1" stop-color="#5A4286"/>
</radialGradient>
<linearGradient id="paint8_linear_1451_1872" x1="125.982" y1="148.323" x2="131.205" y2="140.376" gradientUnits="userSpaceOnUse">
<stop stop-color="white" stop-opacity="0.5"/>
<stop offset="1" stop-color="white" stop-opacity="0.5"/>
</linearGradient>
<radialGradient id="paint9_radial_1451_1872" cx="0" cy="0" r="1" gradientUnits="userSpaceOnUse" gradientTransform="translate(199 186.059) rotate(-131.312) scale(21.3798 7.89524)">
<stop stop-color="#F9A96E" stop-opacity="0"/>
<stop offset="1" stop-color="#F9A96E"/>
</radialGradient>
<linearGradient id="paint10_linear_1451_1872" x1="190.982" y1="178.323" x2="196.205" y2="170.376" gradientUnits="userSpaceOnUse">
<stop stop-color="white" stop-opacity="0.5"/>
<stop offset="1" stop-color="white" stop-opacity="0.5"/>
</linearGradient>
<radialGradient id="paint11_radial_1451_1872" cx="0" cy="0" r="1" gradientUnits="userSpaceOnUse" gradientTransform="translate(92 90.0588) rotate(-131.312) scale(21.3798 7.89524)">
<stop stop-color="#F9A96E" stop-opacity="0"/>
<stop offset="1" stop-color="#F9A96E"/>
</radialGradient>
<linearGradient id="paint12_linear_1451_1872" x1="83.9824" y1="82.3234" x2="89.2051" y2="74.3759" gradientUnits="userSpaceOnUse">
<stop stop-color="white" stop-opacity="0.5"/>
<stop offset="1" stop-color="white" stop-opacity="0.5"/>
</linearGradient>
<radialGradient id="paint13_radial_1451_1872" cx="0" cy="0" r="1" gradientUnits="userSpaceOnUse" gradientTransform="translate(199 89.0588) rotate(-131.312) scale(21.3798 7.89524)">
<stop stop-color="#F9A96E" stop-opacity="0"/>
<stop offset="1" stop-color="#F9A96E"/>
</radialGradient>
<linearGradient id="paint14_linear_1451_1872" x1="190.982" y1="81.3234" x2="196.205" y2="73.3759" gradientUnits="userSpaceOnUse">
<stop stop-color="white" stop-opacity="0.5"/>
<stop offset="1" stop-color="white" stop-opacity="0.5"/>
</linearGradient>
<radialGradient id="paint15_radial_1451_1872" cx="0" cy="0" r="1" gradientUnits="userSpaceOnUse" gradientTransform="translate(283 158.059) rotate(-131.312) scale(21.3798 7.89524)">
<stop stop-color="#F9A96E" stop-opacity="0"/>
<stop offset="1" stop-color="#F9A96E"/>
</radialGradient>
<linearGradient id="paint16_linear_1451_1872" x1="274.982" y1="150.323" x2="280.205" y2="142.376" gradientUnits="userSpaceOnUse">
<stop stop-color="white" stop-opacity="0.5"/>
<stop offset="1" stop-color="white" stop-opacity="0.5"/>
</linearGradient>
<linearGradient id="paint17_linear_1451_1872" x1="187.308" y1="117" x2="196.242" y2="144.253" gradientUnits="userSpaceOnUse">
<stop stop-color="white"/>
<stop offset="1" stop-color="#505050"/>
</linearGradient>
<radialGradient id="paint18_radial_1451_1872" cx="0" cy="0" r="1" gradientUnits="userSpaceOnUse" gradientTransform="translate(286 95.7647) rotate(-131.312) scale(35.6331 13.1587)">
<stop stop-color="#5DE4C7" stop-opacity="0"/>
<stop offset="1" stop-color="#5DE4C7"/>
</radialGradient>
<linearGradient id="paint19_linear_1451_1872" x1="272.637" y1="82.8723" x2="281.342" y2="69.6265" gradientUnits="userSpaceOnUse">
<stop stop-color="white" stop-opacity="0.5"/>
<stop offset="1" stop-color="white" stop-opacity="0.5"/>
</linearGradient>
<clipPath id="clip0_1451_1872">
<rect width="258" height="244" fill="white" transform="translate(69.66 26.75)"/>
</clipPath>
<clipPath id="clip1_1451_1872">
<rect width="124" height="147" fill="white" transform="translate(70.45 123.42)"/>
</clipPath>
<clipPath id="clip2_1451_1872">
<rect width="338" height="5" fill="white" transform="translate(39.8 173.67)"/>
</clipPath>
<clipPath id="clip3_1451_1872">
<rect width="257" height="191" fill="white" transform="translate(84.4805 77.7002)"/>
</clipPath>
<clipPath id="clip4_1451_1872">
<rect width="397" height="101" fill="white" transform="translate(46.1104 77.25)"/>
</clipPath>
<clipPath id="clip5_1451_1872">
<rect width="252" height="273" fill="white" transform="translate(25.5 -25.53)"/>
</clipPath>
</defs>
</svg>
