<svg width="256" height="256" viewBox="0 0 256 256" fill="none" xmlns="http://www.w3.org/2000/svg">
<rect width="256" height="256" rx="32" fill="#010101"/>
<path fill-rule="evenodd" clip-rule="evenodd" d="M172.81 128.006C172.81 152.759 152.744 172.825 127.992 172.825C118.558 172.825 109.805 169.91 102.584 164.932L89.4613 178.055C114.229 197.17 149.933 195.372 172.644 172.661C189.683 155.622 194.95 131.27 188.446 109.709C187.398 106.236 188.661 102.384 191.802 100.571C195.515 98.4271 200.296 99.9678 201.622 104.045C204.075 111.589 205.401 119.642 205.401 128.005C205.401 149.377 196.741 168.727 182.737 182.735C182.628 182.844 182.518 182.954 182.408 183.062C168.425 196.885 149.203 205.419 127.987 205.419C118.708 205.419 109.81 203.787 101.565 200.793C100.282 200.272 98.9944 199.764 97.7027 199.272C97.4796 199.186 97.2564 199.102 97.033 199.017C89.8922 196.323 82.6242 194.066 75.2702 192.246C71.632 191.346 67.9729 190.552 64.2977 189.866C60.8812 189.228 59.4806 184.987 61.9382 182.53L91.0609 153.407C86.0858 146.187 83.1729 137.437 83.1729 128.006C83.1729 103.253 103.239 83.1871 127.992 83.1871C137.423 83.1871 146.173 86.0999 153.393 91.0751L166.513 77.9546C141.745 58.8399 106.041 60.6378 83.3308 83.3484C66.2906 100.389 61.0238 124.744 67.5305 146.306C68.5773 149.775 67.3152 153.624 64.177 155.436C60.4677 157.578 55.6907 156.038 54.3656 151.965C51.9102 144.418 50.583 136.361 50.583 127.995C50.583 106.599 59.2627 87.2308 73.2931 73.2187C87.2994 59.2306 106.638 50.5806 127.997 50.5806C137.277 50.5806 146.174 52.2132 154.419 55.2068C155.702 55.7283 156.99 56.2355 158.282 56.7283C158.505 56.8134 158.728 56.8982 158.951 56.9824C166.092 59.6766 173.36 61.9337 180.714 63.7537C184.352 64.6541 188.011 65.4475 191.687 66.1339C195.103 66.772 196.504 71.0127 194.046 73.4702L164.918 102.598C169.896 109.819 172.81 118.572 172.81 128.006ZM127.188 158.562C144.064 158.562 157.746 144.881 157.746 128.004C157.746 122.735 156.413 117.778 154.065 113.451L112.635 154.881C116.962 157.229 121.919 158.562 127.188 158.562ZM127.188 97.4458C110.311 97.4458 96.6293 111.127 96.6293 128.004C96.6293 133.692 98.1834 139.017 100.89 143.578L142.761 101.707C138.201 98.9998 132.876 97.4458 127.188 97.4458Z" fill="url(#paint0_linear_488_1732)"/>
<defs>
<linearGradient id="paint0_linear_488_1732" x1="50.583" y1="128" x2="205.401" y2="128" gradientUnits="userSpaceOnUse">
<stop stop-color="white"/>
<stop offset="1" stop-color="#505050"/>
</linearGradient>
</defs>
</svg>
