<svg width="385" height="341" viewBox="0 0 385 341" fill="none" xmlns="http://www.w3.org/2000/svg">
<mask id="mask0_356_8934" style="mask-type:alpha" maskUnits="userSpaceOnUse" x="26" y="4" width="333" height="333">
<rect x="26.4785" y="4.27319" width="332" height="332" fill="url(#paint0_radial_356_8934)"/>
</mask>
<g mask="url(#mask0_356_8934)">
<g clip-path="url(#clip0_356_8934)">
<rect opacity="0.1" x="26.9785" y="4.77319" width="63" height="63" rx="15.5" stroke="#F8F8F8"/>
<rect opacity="0.3" x="94.9785" y="4.77319" width="199" height="63" rx="15.5" stroke="#F8F8F8"/>
<rect opacity="0.1" x="298.979" y="4.77319" width="63" height="63" rx="15.5" stroke="#F8F8F8"/>
<rect opacity="0.3" x="-41.0215" y="72.7732" width="131" height="63" rx="15.5" stroke="#F8F8F8"/>
<rect opacity="0.3" x="-41.0215" y="140.773" width="131" height="63" rx="15.5" stroke="#F8F8F8"/>
<rect opacity="0.3" x="-41.0215" y="208.773" width="131" height="63" rx="15.5" stroke="#F8F8F8"/>
<g clip-path="url(#clip1_356_8934)">
<mask id="mask1_356_8934" style="mask-type:alpha" maskUnits="userSpaceOnUse" x="143" y="69" width="208" height="208">
<path d="M246.979 276.273C304.14 276.273 350.479 229.935 350.479 172.773C350.479 115.612 304.14 69.2732 246.979 69.2732C189.817 69.2732 143.479 115.612 143.479 172.773C143.479 229.935 189.817 276.273 246.979 276.273Z" fill="#D9D9D9"/>
</mask>
<g mask="url(#mask1_356_8934)">
<path opacity="0.3" d="M314.479 73.5232H346.479C354.625 73.5232 361.229 80.127 361.229 88.2732V120.273C361.229 128.419 354.625 135.023 346.479 135.023H314.479C306.332 135.023 299.729 128.419 299.729 120.273V88.2732C299.729 80.127 306.332 73.5232 314.479 73.5232Z" stroke="#F8F8F8"/>
<path opacity="0.3" d="M314.479 141.523H346.479C354.625 141.523 361.229 148.127 361.229 156.273V188.273C361.229 196.419 354.625 203.023 346.479 203.023H314.479C306.332 203.023 299.729 196.419 299.729 188.273V156.273C299.729 148.127 306.332 141.523 314.479 141.523Z" stroke="#F8F8F8"/>
<path opacity="0.3" d="M314.479 209.523H346.479C354.625 209.523 361.229 216.127 361.229 224.273V256.273C361.229 264.419 354.625 271.023 346.479 271.023H314.479C306.332 271.023 299.729 264.419 299.729 256.273V224.273C299.729 216.127 306.332 209.523 314.479 209.523Z" stroke="#F8F8F8"/>
</g>
</g>
<rect opacity="0.1" x="26.9785" y="276.773" width="63" height="63" rx="15.5" stroke="#F8F8F8"/>
<rect opacity="0.3" x="94.9785" y="276.773" width="199" height="63" rx="15.5" stroke="#F8F8F8"/>
<rect opacity="0.1" x="298.979" y="276.773" width="63" height="63" rx="15.5" stroke="#F8F8F8"/>
<g opacity="0.25">
<path d="M97.4785 103.523C97.0643 103.523 96.7285 103.859 96.7285 104.273C96.7285 104.687 97.0643 105.023 97.4785 105.023V103.523ZM97.4785 105.023H108.983V103.523H97.4785V105.023ZM123.225 114.819L141.394 162.264L142.795 161.727L124.625 114.283L123.225 114.819ZM157.036 173.023H161.479V171.523H157.036V173.023ZM141.394 162.264C143.876 168.744 150.097 173.023 157.036 173.023V171.523C150.718 171.523 145.054 167.627 142.795 161.727L141.394 162.264ZM108.983 105.023C115.301 105.023 120.965 108.919 123.225 114.819L124.625 114.283C122.144 107.802 115.923 103.523 108.983 103.523V105.023Z" fill="#F8F8F8"/>
<path d="M97.4785 243.023C97.0643 243.023 96.7285 242.687 96.7285 242.273C96.7285 241.859 97.0643 241.523 97.4785 241.523V243.023ZM97.4785 241.523H108.87V243.023H97.4785V241.523ZM123.163 231.59L141.45 182.433L142.856 182.956L124.569 232.113L123.163 231.59ZM157.149 171.523H161.479V173.023H157.149V171.523ZM141.45 182.433C143.891 175.874 150.151 171.523 157.149 171.523V173.023C150.778 173.023 145.078 176.984 142.856 182.956L141.45 182.433ZM108.87 241.523C115.241 241.523 120.941 237.562 123.163 231.59L124.569 232.113C122.129 238.672 115.868 243.023 108.87 243.023V241.523Z" fill="#F8F8F8"/>
<path d="M97.4785 172.273H141.479" stroke="#F8F8F8" stroke-width="1.5" stroke-linecap="round"/>
</g>
<g opacity="0.25">
<path d="M294.479 103.523C294.893 103.523 295.229 103.859 295.229 104.273C295.229 104.687 294.893 105.023 294.479 105.023V103.523ZM294.479 105.023H282.974V103.523H294.479V105.023ZM268.733 114.819L250.563 162.264L249.162 161.727L267.332 114.283L268.733 114.819ZM234.921 173.023H230.479V171.523H234.921V173.023ZM250.563 162.264C248.081 168.744 241.861 173.023 234.921 173.023V171.523C241.239 171.523 246.903 167.627 249.162 161.727L250.563 162.264ZM282.974 105.023C276.656 105.023 270.992 108.919 268.733 114.819L267.332 114.283C269.814 107.802 276.034 103.523 282.974 103.523V105.023Z" fill="#F8F8F8"/>
<path d="M294.479 243.023C294.893 243.023 295.229 242.687 295.229 242.273C295.229 241.859 294.893 241.523 294.479 241.523V243.023ZM294.479 241.523H283.087V243.023H294.479V241.523ZM268.794 231.59L250.507 182.433L249.101 182.956L267.388 232.113L268.794 231.59ZM234.808 171.523H230.479V173.023H234.808V171.523ZM250.507 182.433C248.067 175.874 241.806 171.523 234.808 171.523V173.023C241.179 173.023 246.879 176.984 249.101 182.956L250.507 182.433ZM283.087 241.523C276.716 241.523 271.016 237.562 268.794 231.59L267.388 232.113C269.828 238.672 276.089 243.023 283.087 243.023V241.523Z" fill="#F8F8F8"/>
<path d="M291.785 172.273H250.479" stroke="#F8F8F8" stroke-width="1.5" stroke-linecap="round"/>
</g>
</g>
</g>
<g opacity="0.5">
<rect x="22.4785" y="0.273193" width="340" height="340" rx="170" fill="url(#paint1_radial_356_8934)"/>
</g>
<g filter="url(#filter0_d_356_8934)">
<g clip-path="url(#clip2_356_8934)">
<rect x="161.285" y="136.079" width="70.3875" height="70.3875" rx="35.1937" fill="white" fill-opacity="0.01" shape-rendering="crispEdges"/>
<g clip-path="url(#clip3_356_8934)">
<mask id="mask2_356_8934" style="mask-type:luminance" maskUnits="userSpaceOnUse" x="161" y="136" width="71" height="71">
<path d="M231.672 171.274C231.672 151.837 215.915 136.08 196.478 136.08C177.041 136.08 161.285 151.837 161.285 171.274C161.285 190.711 177.041 206.468 196.478 206.468C215.915 206.468 231.672 190.711 231.672 171.274Z" fill="white"/>
</mask>
<g mask="url(#mask2_356_8934)">
<g filter="url(#filter1_b_356_8934)">
<path d="M226.98 171.274C226.98 154.429 213.324 140.773 196.478 140.773C179.633 140.773 165.977 154.429 165.977 171.274C165.977 188.119 179.633 201.775 196.478 201.775C213.324 201.775 226.98 188.119 226.98 171.274Z" fill="#F8F8F8" fill-opacity="0.01"/>
</g>
<path d="M226.98 171.274C226.98 154.429 213.324 140.773 196.478 140.773C179.633 140.773 165.977 154.429 165.977 171.274C165.977 188.119 179.633 201.775 196.478 201.775C213.324 201.775 226.98 188.119 226.98 171.274Z" fill="white" fill-opacity="0.1"/>
<path fill-rule="evenodd" clip-rule="evenodd" d="M205.442 171.275C205.442 176.226 201.429 180.239 196.478 180.239C194.592 180.239 192.841 179.656 191.397 178.661L188.772 181.285C193.726 185.108 200.867 184.749 205.409 180.206C208.816 176.799 209.87 171.928 208.569 167.616C208.36 166.921 208.612 166.151 209.24 165.788C209.983 165.36 210.939 165.668 211.204 166.483C211.695 167.992 211.96 169.603 211.96 171.275C211.96 175.55 210.228 179.419 207.427 182.221C207.406 182.243 207.384 182.265 207.362 182.287C204.565 185.051 200.72 186.758 196.477 186.758C194.622 186.758 192.842 186.432 191.193 185.833C190.936 185.728 190.679 185.627 190.421 185.528C190.376 185.511 190.331 185.495 190.287 185.478C188.858 184.939 187.405 184.487 185.934 184.123C185.206 183.943 184.475 183.785 183.74 183.647C183.056 183.52 182.776 182.672 183.268 182.18L189.092 176.356C188.097 174.912 187.515 173.162 187.515 171.275C187.515 166.325 191.528 162.312 196.478 162.312C198.364 162.312 200.115 162.894 201.559 163.889L204.183 161.265C199.229 157.442 192.088 157.802 187.546 162.344C184.138 165.752 183.085 170.623 184.386 174.935C184.595 175.629 184.343 176.399 183.715 176.761C182.974 177.19 182.018 176.882 181.753 176.067C181.262 174.558 180.997 172.946 180.997 171.273C180.997 166.994 182.733 163.12 185.539 160.318C188.34 157.52 192.208 155.79 196.479 155.79C198.335 155.79 200.115 156.117 201.764 156.716C202.02 156.82 202.278 156.921 202.536 157.02C202.581 157.037 202.626 157.054 202.67 157.071C204.098 157.609 205.552 158.061 207.023 158.425C207.75 158.605 208.482 158.764 209.217 158.901C209.901 159.029 210.181 159.877 209.689 160.368L203.864 166.194C204.859 167.638 205.442 169.389 205.442 171.275ZM196.317 177.387C199.693 177.387 202.429 174.65 202.429 171.275C202.429 170.221 202.162 169.23 201.693 168.364L193.407 176.65C194.272 177.12 195.264 177.387 196.317 177.387ZM196.317 165.163C192.942 165.163 190.206 167.9 190.206 171.275C190.206 172.413 190.517 173.478 191.058 174.39L199.432 166.015C198.52 165.474 197.455 165.163 196.317 165.163Z" fill="url(#paint2_linear_356_8934)"/>
</g>
<path d="M230.792 171.274C230.792 152.323 215.429 136.96 196.478 136.96C177.527 136.96 162.165 152.323 162.165 171.274C162.165 190.225 177.527 205.588 196.478 205.588C215.429 205.588 230.792 190.225 230.792 171.274Z" stroke="url(#paint3_linear_356_8934)" stroke-width="1.75969"/>
</g>
</g>
</g>
<defs>
<filter id="filter0_d_356_8934" x="142.515" y="133.733" width="107.927" height="107.927" filterUnits="userSpaceOnUse" color-interpolation-filters="sRGB">
<feFlood flood-opacity="0" result="BackgroundImageFix"/>
<feColorMatrix in="SourceAlpha" type="matrix" values="0 0 0 0 0 0 0 0 0 0 0 0 0 0 0 0 0 0 127 0" result="hardAlpha"/>
<feMorphology radius="9.38499" operator="erode" in="SourceAlpha" result="effect1_dropShadow_356_8934"/>
<feOffset dy="16.4237"/>
<feGaussianBlur stdDeviation="14.0775"/>
<feComposite in2="hardAlpha" operator="out"/>
<feColorMatrix type="matrix" values="0 0 0 0 1 0 0 0 0 1 0 0 0 0 1 0 0 0 0.2 0"/>
<feBlend mode="normal" in2="BackgroundImageFix" result="effect1_dropShadow_356_8934"/>
<feBlend mode="normal" in="SourceGraphic" in2="effect1_dropShadow_356_8934" result="shape"/>
</filter>
<filter id="filter1_b_356_8934" x="161.977" y="136.773" width="69.0024" height="69.0024" filterUnits="userSpaceOnUse" color-interpolation-filters="sRGB">
<feFlood flood-opacity="0" result="BackgroundImageFix"/>
<feGaussianBlur in="BackgroundImageFix" stdDeviation="2"/>
<feComposite in2="SourceAlpha" operator="in" result="effect1_backgroundBlur_356_8934"/>
<feBlend mode="normal" in="SourceGraphic" in2="effect1_backgroundBlur_356_8934" result="shape"/>
</filter>
<radialGradient id="paint0_radial_356_8934" cx="0" cy="0" r="1" gradientUnits="userSpaceOnUse" gradientTransform="translate(192.479 170.273) scale(166)">
<stop/>
<stop offset="1" stop-opacity="0"/>
</radialGradient>
<radialGradient id="paint1_radial_356_8934" cx="0" cy="0" r="1" gradientUnits="userSpaceOnUse" gradientTransform="translate(197.032 170.273) rotate(90) scale(134.481)">
<stop stop-color="white" stop-opacity="0.25"/>
<stop offset="1" stop-color="#ABABAB" stop-opacity="0"/>
</radialGradient>
<linearGradient id="paint2_linear_356_8934" x1="185.463" y1="155.79" x2="202.756" y2="208.536" gradientUnits="userSpaceOnUse">
<stop stop-color="white"/>
<stop offset="1" stop-color="#505050"/>
</linearGradient>
<linearGradient id="paint3_linear_356_8934" x1="196.478" y1="136.96" x2="196.478" y2="205.588" gradientUnits="userSpaceOnUse">
<stop stop-color="#9C9C9C"/>
<stop offset="1" stop-color="#7A7A7A"/>
</linearGradient>
<clipPath id="clip0_356_8934">
<rect width="332" height="332" fill="white" transform="translate(26.4785 4.27319)"/>
</clipPath>
<clipPath id="clip1_356_8934">
<rect width="132" height="200" fill="white" transform="translate(298.479 72.2732)"/>
</clipPath>
<clipPath id="clip2_356_8934">
<rect x="161.285" y="136.079" width="70.3875" height="70.3875" rx="35.1937" fill="white"/>
</clipPath>
<clipPath id="clip3_356_8934">
<rect width="70.3875" height="70.3875" fill="white" transform="translate(161.285 136.08)"/>
</clipPath>
</defs>
</svg>
